<?xml version="1.0" encoding="UTF-8"?>
<svg version="1.1" xmlns="http://www.w3.org/2000/svg" width="577" height="433">
<path d="M0 0 C0.96413395 -0.00218016 0.96413395 -0.00218016 1.94774535 -0.00440437 C4.11621056 -0.00807354 6.28460587 -0.0045737 8.45307064 -0.0011425 C10.01753413 -0.00229395 11.58199735 -0.00388164 13.14646 -0.00586975 C17.45702449 -0.01005969 21.76756696 -0.00797388 26.07813156 -0.00488353 C30.72233379 -0.00262832 35.36653214 -0.00610964 40.0107336 -0.00886345 C49.11300293 -0.01331872 58.21526403 -0.01234578 67.31753368 -0.00945081 C74.71208813 -0.00719597 82.10664026 -0.00688461 89.50119495 -0.00797462 C90.55207295 -0.00812786 91.60295094 -0.00828109 92.68567372 -0.00843897 C94.82024066 -0.00875868 96.9548076 -0.00908289 99.08937453 -0.00941156 C119.12229458 -0.0122656 139.15521006 -0.00898043 159.18812936 -0.00361119 C176.39379058 0.00085743 193.59944506 0.00008029 210.80510616 -0.00452995 C230.76600647 -0.00987592 250.72690276 -0.01199161 270.68780369 -0.00891769 C272.81438251 -0.00859913 274.94096134 -0.00828476 277.06754017 -0.00797462 C278.11397157 -0.00782035 279.16040298 -0.00766607 280.23854442 -0.00750712 C287.62851079 -0.00664208 295.01847462 -0.00810455 302.40844059 -0.01045418 C311.40807943 -0.01325259 320.40770955 -0.012513 329.40734739 -0.00717343 C334.0029506 -0.00453709 338.59853923 -0.00353025 343.19414234 -0.00682259 C347.39521432 -0.00978687 351.59625812 -0.00819051 355.79732751 -0.00284503 C357.32283506 -0.00172143 358.84834495 -0.0023108 360.37385101 -0.00472082 C362.43618876 -0.0077308 364.49842803 -0.00467405 366.5607605 0 C367.70968688 0.00016235 368.85861326 0.0003247 370.0423556 0.00049198 C372.71745968 0.12584114 372.71745968 0.12584114 374.71745968 1.12584114 C373.28444594 4.40593153 371.52277085 6.55561 368.97917843 9.05943489 C367.87219601 10.15674934 367.87219601 10.15674934 366.7428503 11.27623177 C365.9713464 12.03097786 365.19984249 12.78572395 364.40495968 13.56334114 C363.26510616 14.6896595 363.26510616 14.6896595 362.1022253 15.83873177 C360.62811824 17.29490877 359.15210792 18.74916217 357.67400265 20.20128059 C355.34136847 22.49578462 353.02907905 24.81018753 350.71745968 27.12584114 C349.58824093 28.23765755 349.58824093 28.23765755 348.43620968 29.37193489 C343.5618392 34.15755284 343.5618392 34.15755284 339.09245968 39.31334114 C336.72241545 42.11997247 334.23152888 44.28554952 331.41667843 46.61802864 C328.85942922 48.88721989 326.859467 51.46280501 324.71745968 54.12584114 C322.52995968 56.50084114 322.52995968 56.50084114 320.71745968 58.12584114 C320.05745968 58.12584114 319.39745968 58.12584114 318.71745968 58.12584114 C318.71745968 58.78584114 318.71745968 59.44584114 318.71745968 60.12584114 C317.29937247 61.30758048 315.87704769 62.48465703 314.43230343 63.63365364 C312.63452765 65.19800523 311.17173381 66.85245349 309.65495968 68.68834114 C307.25216246 71.59172111 304.67191033 73.77743165 301.71745968 76.12584114 C300.50803315 77.58988378 299.29942195 79.05484389 298.11589718 80.53990364 C296.02642509 82.90952841 293.62248846 84.84612222 291.17058468 86.82896614 C289.58458357 88.08364817 289.58458357 88.08364817 288.71745968 90.12584114 C288.05745968 90.12584114 287.39745968 90.12584114 286.71745968 90.12584114 C286.71745968 90.78584114 286.71745968 91.44584114 286.71745968 92.12584114 C286.05745968 92.12584114 285.39745968 92.12584114 284.71745968 92.12584114 C284.71745968 92.78584114 284.71745968 93.44584114 284.71745968 94.12584114 C282.84245968 96.25084114 282.84245968 96.25084114 280.71745968 98.12584114 C280.05745968 98.12584114 279.39745968 98.12584114 278.71745968 98.12584114 C278.05745968 99.44584114 277.39745968 100.76584114 276.71745968 102.12584114 C276.05745968 102.12584114 275.39745968 102.12584114 274.71745968 102.12584114 C274.38745968 103.11584114 274.05745968 104.10584114 273.71745968 105.12584114 C272.27995968 106.81334114 272.27995968 106.81334114 270.71745968 108.12584114 C270.05745968 108.12584114 269.39745968 108.12584114 268.71745968 108.12584114 C268.05745968 109.44584114 267.39745968 110.76584114 266.71745968 112.12584114 C266.05745968 112.12584114 265.39745968 112.12584114 264.71745968 112.12584114 C264.71745968 112.78584114 264.71745968 113.44584114 264.71745968 114.12584114 C264.05745968 114.12584114 263.39745968 114.12584114 262.71745968 114.12584114 C262.71745968 114.78584114 262.71745968 115.44584114 262.71745968 116.12584114 C262.05745968 116.12584114 261.39745968 116.12584114 260.71745968 116.12584114 C260.05745968 117.44584114 259.39745968 118.76584114 258.71745968 120.12584114 C258.05745968 120.12584114 257.39745968 120.12584114 256.71745968 120.12584114 C256.71745968 120.78584114 256.71745968 121.44584114 256.71745968 122.12584114 C255.22136593 123.56334114 255.22136593 123.56334114 253.27995968 125.12584114 C250.5655773 127.27109158 250.5655773 127.27109158 248.71745968 130.12584114 C248.05745968 130.12584114 247.39745968 130.12584114 246.71745968 130.12584114 C246.71745968 130.78584114 246.71745968 131.44584114 246.71745968 132.12584114 C246.05745968 132.12584114 245.39745968 132.12584114 244.71745968 132.12584114 C244.71745968 132.78584114 244.71745968 133.44584114 244.71745968 134.12584114 C244.05745968 134.12584114 243.39745968 134.12584114 242.71745968 134.12584114 C242.71745968 134.78584114 242.71745968 135.44584114 242.71745968 136.12584114 C242.05745968 136.12584114 241.39745968 136.12584114 240.71745968 136.12584114 C240.71745968 136.78584114 240.71745968 137.44584114 240.71745968 138.12584114 C240.05745968 138.12584114 239.39745968 138.12584114 238.71745968 138.12584114 C238.05745968 139.44584114 237.39745968 140.76584114 236.71745968 142.12584114 C236.05745968 142.12584114 235.39745968 142.12584114 234.71745968 142.12584114 C234.05745968 143.44584114 233.39745968 144.76584114 232.71745968 146.12584114 C232.05745968 146.12584114 231.39745968 146.12584114 230.71745968 146.12584114 C230.38745968 147.11584114 230.05745968 148.10584114 229.71745968 149.12584114 C229.05745968 149.12584114 228.39745968 149.12584114 227.71745968 149.12584114 C227.38745968 150.11584114 227.05745968 151.10584114 226.71745968 152.12584114 C226.05745968 152.12584114 225.39745968 152.12584114 224.71745968 152.12584114 C224.05745968 153.44584114 223.39745968 154.76584114 222.71745968 156.12584114 C222.05745968 156.12584114 221.39745968 156.12584114 220.71745968 156.12584114 C220.71745968 156.78584114 220.71745968 157.44584114 220.71745968 158.12584114 C220.05745968 158.12584114 219.39745968 158.12584114 218.71745968 158.12584114 C218.71745968 158.78584114 218.71745968 159.44584114 218.71745968 160.12584114 C218.05745968 160.12584114 217.39745968 160.12584114 216.71745968 160.12584114 C216.38745968 161.11584114 216.05745968 162.10584114 215.71745968 163.12584114 C214.05079301 164.45917447 212.38412635 165.79250781 210.71745968 167.12584114 C209.10731048 168.95699121 207.56823871 170.8277651 206.04949093 172.73521614 C205.60992062 173.19412239 205.1703503 173.65302864 204.71745968 174.12584114 C204.05745968 174.12584114 203.39745968 174.12584114 202.71745968 174.12584114 C202.71745968 174.78584114 202.71745968 175.44584114 202.71745968 176.12584114 C202.05745968 176.12584114 201.39745968 176.12584114 200.71745968 176.12584114 C200.71745968 176.78584114 200.71745968 177.44584114 200.71745968 178.12584114 C200.05745968 178.12584114 199.39745968 178.12584114 198.71745968 178.12584114 C198.71745968 178.78584114 198.71745968 179.44584114 198.71745968 180.12584114 C198.05745968 180.12584114 197.39745968 180.12584114 196.71745968 180.12584114 C196.71745968 180.78584114 196.71745968 181.44584114 196.71745968 182.12584114 C196.05745968 182.12584114 195.39745968 182.12584114 194.71745968 182.12584114 C194.05745968 183.44584114 193.39745968 184.76584114 192.71745968 186.12584114 C192.05745968 186.12584114 191.39745968 186.12584114 190.71745968 186.12584114 C190.71745968 186.78584114 190.71745968 187.44584114 190.71745968 188.12584114 C190.05745968 188.12584114 189.39745968 188.12584114 188.71745968 188.12584114 C188.71745968 188.78584114 188.71745968 189.44584114 188.71745968 190.12584114 C188.05745968 190.12584114 187.39745968 190.12584114 186.71745968 190.12584114 C186.71745968 191.77584114 186.71745968 193.42584114 186.71745968 195.12584114 C187.37745968 195.12584114 188.03745968 195.12584114 188.71745968 195.12584114 C188.71745968 195.78584114 188.71745968 196.44584114 188.71745968 197.12584114 C189.37745968 197.12584114 190.03745968 197.12584114 190.71745968 197.12584114 C190.71745968 197.78584114 190.71745968 198.44584114 190.71745968 199.12584114 C192.03745968 199.78584114 193.35745968 200.44584114 194.71745968 201.12584114 C194.71745968 201.78584114 194.71745968 202.44584114 194.71745968 203.12584114 C196.03745968 203.78584114 197.35745968 204.44584114 198.71745968 205.12584114 C198.71745968 205.78584114 198.71745968 206.44584114 198.71745968 207.12584114 C199.70745968 207.45584114 200.69745968 207.78584114 201.71745968 208.12584114 C203.40495968 209.56334114 203.40495968 209.56334114 204.71745968 211.12584114 C204.71745968 211.78584114 204.71745968 212.44584114 204.71745968 213.12584114 C205.29495968 213.37334114 205.87245968 213.62084114 206.46745968 213.87584114 C209.04685947 215.30884103 210.7786756 216.91008791 212.71745968 219.12584114 C212.71745968 219.78584114 212.71745968 220.44584114 212.71745968 221.12584114 C213.29721554 221.38107552 213.8769714 221.63630989 214.47429562 221.89927864 C216.9476128 223.25168891 218.61348077 224.76316638 220.60808468 226.75084114 C221.31706905 227.45724739 222.02605343 228.16365364 222.75652218 228.89146614 C223.48613155 229.62880989 224.21574093 230.36615364 224.96745968 231.12584114 C225.7125378 231.86318489 226.45761593 232.60052864 227.22527218 233.36021614 C227.9291003 234.06662239 228.63292843 234.77302864 229.35808468 235.50084114 C230.00293819 236.14795052 230.64779171 236.79505989 231.31218624 237.46177864 C232.71745968 239.12584114 232.71745968 239.12584114 232.71745968 241.12584114 C233.37745968 241.12584114 234.03745968 241.12584114 234.71745968 241.12584114 C234.71745968 241.78584114 234.71745968 242.44584114 234.71745968 243.12584114 C236.03745968 243.78584114 237.35745968 244.44584114 238.71745968 245.12584114 C238.71745968 245.78584114 238.71745968 246.44584114 238.71745968 247.12584114 C240.03745968 247.78584114 241.35745968 248.44584114 242.71745968 249.12584114 C242.71745968 249.78584114 242.71745968 250.44584114 242.71745968 251.12584114 C244.03745968 251.78584114 245.35745968 252.44584114 246.71745968 253.12584114 C246.71745968 253.78584114 246.71745968 254.44584114 246.71745968 255.12584114 C247.37745968 255.12584114 248.03745968 255.12584114 248.71745968 255.12584114 C248.71745968 255.78584114 248.71745968 256.44584114 248.71745968 257.12584114 C250.03745968 257.78584114 251.35745968 258.44584114 252.71745968 259.12584114 C252.71745968 259.78584114 252.71745968 260.44584114 252.71745968 261.12584114 C254.03745968 261.78584114 255.35745968 262.44584114 256.71745968 263.12584114 C256.71745968 263.78584114 256.71745968 264.44584114 256.71745968 265.12584114 C257.28980343 265.37334114 257.86214718 265.62084114 258.45183468 265.87584114 C261.06756579 267.31900313 262.86519424 269.00800336 264.96745968 271.12584114 C265.67386593 271.82709114 266.38027218 272.52834114 267.10808468 273.25084114 C268.71745968 275.12584114 268.71745968 275.12584114 268.71745968 277.12584114 C269.33620968 277.37334114 269.95495968 277.62084114 270.59245968 277.87584114 C273.06814655 279.33212753 273.6687097 280.5039662 274.71745968 283.12584114 C275.37745968 283.12584114 276.03745968 283.12584114 276.71745968 283.12584114 C276.71745968 283.78584114 276.71745968 284.44584114 276.71745968 285.12584114 C277.37745968 285.12584114 278.03745968 285.12584114 278.71745968 285.12584114 C278.71745968 285.78584114 278.71745968 286.44584114 278.71745968 287.12584114 C280.03745968 287.78584114 281.35745968 288.44584114 282.71745968 289.12584114 C282.71745968 289.78584114 282.71745968 290.44584114 282.71745968 291.12584114 C283.70745968 291.45584114 284.69745968 291.78584114 285.71745968 292.12584114 C287.4083419 294.10541057 289.0757644 296.1052931 290.71745968 298.12584114 C291.37745968 298.45584114 292.03745968 298.78584114 292.71745968 299.12584114 C292.71745968 299.78584114 292.71745968 300.44584114 292.71745968 301.12584114 C294.03745968 301.78584114 295.35745968 302.44584114 296.71745968 303.12584114 C296.71745968 303.78584114 296.71745968 304.44584114 296.71745968 305.12584114 C298.03745968 305.78584114 299.35745968 306.44584114 300.71745968 307.12584114 C300.71745968 307.78584114 300.71745968 308.44584114 300.71745968 309.12584114 C302.03745968 309.78584114 303.35745968 310.44584114 304.71745968 311.12584114 C304.71745968 311.78584114 304.71745968 312.44584114 304.71745968 313.12584114 C305.58370968 313.49709114 305.58370968 313.49709114 306.46745968 313.87584114 C309.04685947 315.30884103 310.7786756 316.91008791 312.71745968 319.12584114 C312.71745968 319.78584114 312.71745968 320.44584114 312.71745968 321.12584114 C313.37745968 321.12584114 314.03745968 321.12584114 314.71745968 321.12584114 C314.71745968 321.78584114 314.71745968 322.44584114 314.71745968 323.12584114 C316.03745968 323.78584114 317.35745968 324.44584114 318.71745968 325.12584114 C318.71745968 325.78584114 318.71745968 326.44584114 318.71745968 327.12584114 C319.37745968 327.12584114 320.03745968 327.12584114 320.71745968 327.12584114 C320.71745968 327.78584114 320.71745968 328.44584114 320.71745968 329.12584114 C321.37745968 329.12584114 322.03745968 329.12584114 322.71745968 329.12584114 C322.71745968 329.78584114 322.71745968 330.44584114 322.71745968 331.12584114 C324.03745968 331.78584114 325.35745968 332.44584114 326.71745968 333.12584114 C326.71745968 333.78584114 326.71745968 334.44584114 326.71745968 335.12584114 C327.70745968 335.45584114 328.69745968 335.78584114 329.71745968 336.12584114 C330.93209841 337.57027639 332.14270571 339.01883611 333.31120968 340.50084114 C334.7650724 342.18086029 336.29090847 343.49772509 338.02995968 344.87584114 C338.91683468 345.61834114 339.80370968 346.36084114 340.71745968 347.12584114 C340.71745968 347.78584114 340.71745968 348.44584114 340.71745968 349.12584114 C342.03745968 349.78584114 343.35745968 350.44584114 344.71745968 351.12584114 C344.71745968 351.78584114 344.71745968 352.44584114 344.71745968 353.12584114 C345.28980343 353.37334114 345.86214718 353.62084114 346.45183468 353.87584114 C349.06756579 355.31900313 350.86519424 357.00800336 352.96745968 359.12584114 C353.67386593 359.82709114 354.38027218 360.52834114 355.10808468 361.25084114 C356.71745968 363.12584114 356.71745968 363.12584114 356.71745968 365.12584114 C357.37745968 365.12584114 358.03745968 365.12584114 358.71745968 365.12584114 C358.71745968 365.78584114 358.71745968 366.44584114 358.71745968 367.12584114 C360.03745968 367.78584114 361.35745968 368.44584114 362.71745968 369.12584114 C362.71745968 369.78584114 362.71745968 370.44584114 362.71745968 371.12584114 C363.37745968 371.12584114 364.03745968 371.12584114 364.71745968 371.12584114 C364.71745968 371.78584114 364.71745968 372.44584114 364.71745968 373.12584114 C365.37745968 373.12584114 366.03745968 373.12584114 366.71745968 373.12584114 C366.71745968 373.78584114 366.71745968 374.44584114 366.71745968 375.12584114 C368.03745968 375.78584114 369.35745968 376.44584114 370.71745968 377.12584114 C370.71745968 377.78584114 370.71745968 378.44584114 370.71745968 379.12584114 C372.03745968 379.78584114 373.35745968 380.44584114 374.71745968 381.12584114 C374.71745968 382.44584114 374.71745968 383.76584114 374.71745968 385.12584114 C325.9425462 385.14870532 277.16763326 385.16633825 228.39271549 385.17690647 C222.64085612 385.17815725 216.88899676 385.17945157 211.13713741 385.18077278 C209.99199427 385.18103509 208.84685112 385.1812974 207.66700666 385.18156766 C189.09904988 385.18592484 170.53109617 385.19381265 151.96314121 385.20299394 C132.92581767 385.21232915 113.88849574 385.21789647 94.85117 385.21992964 C83.09405031 385.22130514 71.33693931 385.2256572 59.57982229 385.23375761 C51.52919089 385.23902344 43.47856402 385.24064581 35.42793102 385.23934252 C30.77576401 385.23869888 26.12361227 385.23971952 21.47144794 385.24504662 C17.21973245 385.24987991 12.96804262 385.25018026 8.71632599 385.24674004 C7.17123042 385.24631427 5.6261333 385.2476106 4.08104081 385.25072432 C1.99464847 385.25468729 -0.09164894 385.25260519 -2.17803955 385.24888897 C-3.92266461 385.24945855 -3.92266461 385.24945855 -5.70253462 385.25003964 C-8.28254032 385.12584114 -8.28254032 385.12584114 -9.28254032 384.12584114 C-9.38040144 382.09294831 -9.40625261 380.05658719 -9.40558815 378.02134037 C-9.40674199 377.3735394 -9.40789584 376.72573844 -9.40908465 376.05830714 C-9.41175761 373.8606549 -9.40722362 371.66307411 -9.40279484 369.46542549 C-9.4032304 367.88476372 -9.40410503 366.30410202 -9.405384 364.72344071 C-9.40763189 360.35888816 -9.40360369 355.9943599 -9.39860594 351.62981045 C-9.39430581 346.93107929 -9.39574755 342.2323496 -9.39650822 337.53361702 C-9.39703373 329.38576556 -9.39388408 321.23792208 -9.38827038 313.09007263 C-9.38015908 301.30950675 -9.37754054 289.52894475 -9.37628239 277.74837638 C-9.37409128 258.63729799 -9.36742962 239.52622386 -9.35797977 220.41514778 C-9.34880716 201.84548654 -9.34172559 183.27582645 -9.33747196 164.70616341 C-9.33720924 163.56240682 -9.33694651 162.41865024 -9.33667583 161.24023437 C-9.33537084 155.50260572 -9.33410712 149.76497706 -9.33286393 144.0273484 C-9.3224895 96.3935097 -9.3048696 48.75967563 -9.28254032 1.12584114 C-5.96015273 0.01837861 -3.50060883 0.00049459 0 0 Z " fill="#FEFEFE" transform="translate(105.2825403213501,23.87415885925293)"/>
</svg>
