<?xml version="1.0" encoding="UTF-8"?>
<svg version="1.1" xmlns="http://www.w3.org/2000/svg" width="1000" height="360">
<path d="M0 0 C0.33 60.39 0.66 120.78 1 183 C1.66 183 2.32 183 3 183 C3.185625 184.11375 3.37125 185.2275 3.5625 186.375 C4.036875 187.57125 4.51125 188.7675 5 190 C8.21912772 191.45637869 8.21912772 191.45637869 12 192 C13.216875 192.350625 14.43375 192.70125 15.6875 193.0625 C18.11983152 193.75089571 20.54658058 194.39599914 23 195 C22.85936865 197.29199177 22.71234057 199.58359186 22.5625 201.875 C22.48128906 203.15117187 22.40007812 204.42734375 22.31640625 205.7421875 C22 209 22 209 21 211 C20.3932087 214.26150326 19.93141667 217.52294792 19.5 220.8125 C19 224 19 224 18 225 C-5.01538462 226.32307692 -5.01538462 226.32307692 -13 221 C-14.58115661 220.28682097 -16.16474079 219.57901263 -17.75 218.875 C-25.54828991 214.98722281 -30.0973901 209.12071666 -33.35546875 201.12109375 C-34.19794468 198.34858207 -34.29461375 195.87248402 -34 193 C-34.66 193 -35.32 193 -36 193 C-36 138.88 -36 84.76 -36 29 C-54.00275412 29.14371084 -54.00275412 29.14371084 -63 32 C-63 32.66 -63 33.32 -63 34 C-63.99 34.495 -63.99 34.495 -65 35 C-65.87393517 37.31141821 -65.87393517 37.31141821 -66.5625 40 C-67.90802348 44.90802348 -67.90802348 44.90802348 -69 46 C-69.11299527 47.85423244 -69.15682466 49.71271594 -69.17358398 51.5703125 C-69.18707382 52.76245361 -69.20056366 53.95459473 -69.21446228 55.18286133 C-69.22490067 56.48376709 -69.23533905 57.78467285 -69.24609375 59.125 C-69.2615971 60.46965339 -69.27780676 61.81429881 -69.29469299 63.15893555 C-69.36543106 68.87718324 -69.42520573 74.59551336 -69.47680664 80.31396484 C-69.50883652 83.8100815 -69.55018595 87.30599257 -69.59700203 90.80194092 C-69.62058142 92.76974424 -69.63370251 94.73766403 -69.64659119 96.70556641 C-69.76445463 105.32725066 -70.76965443 112.8858286 -73.625 121.0625 C-74.01558594 122.19365234 -74.01558594 122.19365234 -74.4140625 123.34765625 C-74.60742188 123.89292969 -74.80078125 124.43820313 -75 125 C-75.66 125 -76.32 125 -77 125 C-77.3403125 126.0828125 -77.3403125 126.0828125 -77.6875 127.1875 C-79.27941462 130.59874561 -81.15061505 132.55767005 -84 135 C-86.3125 135.8125 -86.3125 135.8125 -88 136 C-88 136.66 -88 137.32 -88 138 C-87.113125 138.185625 -86.22625 138.37125 -85.3125 138.5625 C-81.06687676 140.40494027 -79.15139347 142.96375738 -77 147 C-77 147.66 -77 148.32 -77 149 C-76.34 149 -75.68 149 -75 149 C-74.34525592 150.68406269 -73.70166594 152.37246336 -73.0625 154.0625 C-72.52302734 155.47208984 -72.52302734 155.47208984 -71.97265625 156.91015625 C-69.52067428 164.69938412 -69.83559604 172.61724713 -69.7890625 180.7109375 C-69.77607338 182.04701541 -69.76225454 183.38308549 -69.74765015 184.71914673 C-69.68649222 190.36054585 -69.63208413 196.0019173 -69.59863281 201.64355469 C-69.57755154 205.10776319 -69.5421516 208.57158582 -69.49787521 212.03557205 C-69.47706266 213.97678646 -69.4716938 215.91814699 -69.46670532 217.85946655 C-69.35072877 226.2462278 -69.17750052 233.86570161 -63 240 C-63 240.66 -63 241.32 -63 242 C-58.04960945 243.88209737 -53.34632835 244.58458393 -48.125 245.125 C-45.44375 245.41375 -42.7625 245.7025 -40 246 C-40 255.24 -40 264.48 -40 274 C-53.22110357 274.23469415 -65.20330331 274.39627969 -78 271 C-78 270.34 -78 269.68 -78 269 C-78.86625 268.9175 -79.7325 268.835 -80.625 268.75 C-87.38239322 267.24835706 -92.20641066 262.63477765 -96 257 C-96.66796875 254.78125 -96.66796875 254.78125 -97 253 C-97.66 253 -98.32 253 -99 253 C-99.20496094 252.21753906 -99.40992188 251.43507813 -99.62109375 250.62890625 C-99.89050781 249.61699219 -100.15992188 248.60507812 -100.4375 247.5625 C-100.70433594 246.55316406 -100.97117188 245.54382813 -101.24609375 244.50390625 C-101.75978077 242.08247999 -101.75978077 242.08247999 -103 241 C-104.13704643 233.38093323 -104.15029043 225.8202 -104.17578125 218.12890625 C-104.19304222 216.11539016 -104.21032717 214.10187396 -104.22898388 212.08837032 C-104.27420963 207.1662796 -104.31230595 202.24430917 -104.32592773 197.32202148 C-104.33410245 194.54756619 -104.35277323 191.77355666 -104.38285828 188.99925232 C-104.41077768 186.40046533 -104.42395196 183.80146386 -104.41999817 181.20252991 C-104.52158234 173.8631278 -105.22629051 167.4426846 -109 161 C-109.66 160.67 -110.32 160.34 -111 160 C-111 159.01 -111 158.02 -111 157 C-113.82160825 155.46094095 -116.3490421 154.6042933 -119.5 154 C-122.85603683 153.3563765 -124.81655846 152.59172077 -128 151 C-128 141.76 -128 132.52 -128 123 C-126.02 123 -124.04 123 -122 123 C-122 122.34 -122 121.68 -122 121 C-120.948125 120.773125 -119.89625 120.54625 -118.8125 120.3125 C-114.7884714 119.15000285 -112.674843 117.26925256 -110 114 C-108.20679176 110.83354526 -108.20679176 110.83354526 -107 108 C-106.34 108 -105.68 108 -105 108 C-104.98969254 107.19313248 -104.97938507 106.38626495 -104.96876526 105.5549469 C-104.8704489 97.92000491 -104.76788872 90.2851369 -104.66066074 82.65031528 C-104.60569193 78.72596899 -104.55231629 74.80161499 -104.50268555 70.87719727 C-104.45465446 67.08404085 -104.40230269 63.29096562 -104.34705925 59.49790764 C-104.32680967 58.05679303 -104.30807007 56.61565632 -104.29092598 55.17450142 C-104.20135492 47.72762443 -104.00165373 40.3894241 -103 33 C-102.34 33 -101.68 33 -101 33 C-100.90912109 32.07767578 -100.90912109 32.07767578 -100.81640625 31.13671875 C-100.73261719 30.32847656 -100.64882812 29.52023438 -100.5625 28.6875 C-100.48128906 27.88699219 -100.40007812 27.08648437 -100.31640625 26.26171875 C-100 24 -100 24 -99 21 C-98.34 21 -97.68 21 -97 21 C-96.67 19.68 -96.34 18.36 -96 17 C-95.34 17 -94.68 17 -94 17 C-93.9071875 16.13375 -93.9071875 16.13375 -93.8125 15.25 C-91.94022792 10.06524656 -85.66085879 7.41674159 -81 5 C-80.01 5 -79.02 5 -78 5 C-78 4.34 -78 3.68 -78 3 C-52.55834029 -2.45178422 -26.01922366 0 0 0 Z " fill="#777777" transform="translate(339,43)"/>
<path d="M0 0 C1.23298828 -0.01224609 2.46597656 -0.02449219 3.73632812 -0.03710938 C5.52780273 -0.04000977 5.52780273 -0.04000977 7.35546875 -0.04296875 C8.44883545 -0.04707764 9.54220215 -0.05118652 10.66870117 -0.05541992 C14.0122478 0.20293442 16.68405295 1.00924647 19.8125 2.1875 C20.57433594 2.43371094 21.33617187 2.67992188 22.12109375 2.93359375 C26.80932397 4.45619329 31.31183517 6.17656465 35.8125 8.1875 C35.8125 8.8475 35.8125 9.5075 35.8125 10.1875 C36.555 10.455625 37.2975 10.72375 38.0625 11 C40.70311949 12.14026751 42.66802844 13.28130306 44.8125 15.1875 C44.8125 15.8475 44.8125 16.5075 44.8125 17.1875 C45.410625 17.435 46.00875 17.6825 46.625 17.9375 C49.12876919 19.36822525 50.29322388 20.7566582 51.8125 23.1875 C51.8125 23.8475 51.8125 24.5075 51.8125 25.1875 C52.4725 25.1875 53.1325 25.1875 53.8125 25.1875 C55.2731285 27.83488916 55.8125 29.08198334 55.8125 32.1875 C56.4725 32.1875 57.1325 32.1875 57.8125 32.1875 C58.1425 34.4975 58.4725 36.8075 58.8125 39.1875 C59.4725 39.1875 60.1325 39.1875 60.8125 39.1875 C62.27920113 44.41262279 63.03827402 48.7689234 62.8125 54.1875 C63.4725 54.1875 64.1325 54.1875 64.8125 54.1875 C65.6638539 61.66725209 65.92108501 69.10419827 65.9375 76.625 C65.94426758 77.92099121 65.94426758 77.92099121 65.95117188 79.24316406 C65.94923828 80.06913086 65.94730469 80.89509766 65.9453125 81.74609375 C65.94418457 82.48142334 65.94305664 83.21675293 65.94189453 83.97436523 C65.8125 86.1875 65.8125 86.1875 64.8125 91.1875 C32.4725 91.1875 0.1325 91.1875 -33.1875 91.1875 C-32.1975 92.6725 -32.1975 92.6725 -31.1875 94.1875 C-30.7734375 96.44921875 -30.7734375 96.44921875 -30.5625 98.875 C-30.48773438 99.68324219 -30.41296875 100.49148437 -30.3359375 101.32421875 C-30.28695312 101.93910156 -30.23796875 102.55398437 -30.1875 103.1875 C-29.5275 103.1875 -28.8675 103.1875 -28.1875 103.1875 C-26.93085022 106.09350261 -26.1875 107.98354584 -26.1875 111.1875 C-25.5275 111.1875 -24.8675 111.1875 -24.1875 111.1875 C-22.9751751 112.69471474 -21.763844 114.20276829 -20.5625 115.71875 C-18.70499665 117.70290131 -16.7711466 118.44931526 -14.1875 119.1875 C-14.1875 119.8475 -14.1875 120.5075 -14.1875 121.1875 C-5.11213113 123.96677236 3.29041558 124.64880133 12.75 124.5625 C14.01779297 124.57410156 15.28558594 124.58570313 16.59179688 124.59765625 C24.09976452 124.57456665 30.85145818 123.77917756 38.10766602 121.83056641 C40.8125 121.1875 40.8125 121.1875 44.8125 121.1875 C44.8125 120.5275 44.8125 119.8675 44.8125 119.1875 C48.2775 118.6925 48.2775 118.6925 51.8125 118.1875 C51.8125 121.4875 51.8125 124.7875 51.8125 128.1875 C52.4725 128.1875 53.1325 128.1875 53.8125 128.1875 C54.2638623 131.45452455 54.66752162 134.72571904 55.0625 138 C55.19140625 138.92876953 55.3203125 139.85753906 55.453125 140.81445312 C55.55625 141.70712891 55.659375 142.59980469 55.765625 143.51953125 C55.92272949 144.75280151 55.92272949 144.75280151 56.08300781 146.01098633 C55.8125 148.1875 55.8125 148.1875 53.96289062 149.94726562 C51.54144774 151.34382896 49.83598319 151.67106741 47.0625 151.875 C46.26328125 151.94074219 45.4640625 152.00648438 44.640625 152.07421875 C43.73570312 152.13029297 43.73570312 152.13029297 42.8125 152.1875 C42.8125 152.8475 42.8125 153.5075 42.8125 154.1875 C42.09070557 154.27314209 41.36891113 154.35878418 40.62524414 154.44702148 C37.3746131 154.83523087 34.12481562 155.23002524 30.875 155.625 C29.73869141 155.75970703 28.60238281 155.89441406 27.43164062 156.03320312 C26.35205078 156.16533203 25.27246094 156.29746094 24.16015625 156.43359375 C22.65980835 156.61426392 22.65980835 156.61426392 21.12915039 156.79858398 C18.85689099 156.94968286 18.85689099 156.94968286 17.8125 158.1875 C16.18992456 158.2866657 14.56310169 158.31829777 12.9375 158.3203125 C11.95265625 158.32160156 10.9678125 158.32289063 9.953125 158.32421875 C8.91671875 158.32035156 7.8803125 158.31648437 6.8125 158.3125 C5.77609375 158.31636719 4.7396875 158.32023438 3.671875 158.32421875 C2.68703125 158.32292969 1.7021875 158.32164062 0.6875 158.3203125 C-0.22257812 158.31918457 -1.13265625 158.31805664 -2.0703125 158.31689453 C-4.1875 158.1875 -4.1875 158.1875 -5.1875 157.1875 C-6.59700688 156.89240939 -8.01776105 156.65044037 -9.44140625 156.43359375 C-10.29541016 156.30146484 -11.14941406 156.16933594 -12.02929688 156.03320312 C-12.92712891 155.89849609 -13.82496094 155.76378906 -14.75 155.625 C-16.10254883 155.41713867 -16.10254883 155.41713867 -17.48242188 155.20507812 C-19.71691433 154.86221949 -21.9519227 154.52319977 -24.1875 154.1875 C-24.1875 153.5275 -24.1875 152.8675 -24.1875 152.1875 C-27.1575 151.5275 -30.1275 150.8675 -33.1875 150.1875 C-33.1875 149.5275 -33.1875 148.8675 -33.1875 148.1875 C-33.90421875 148.09210938 -34.6209375 147.99671875 -35.359375 147.8984375 C-44.96367809 145.48409611 -52.96415266 136.17083828 -58.1875 128.1875 C-58.1875 127.1975 -58.1875 126.2075 -58.1875 125.1875 C-58.8475 125.1875 -59.5075 125.1875 -60.1875 125.1875 C-63.00282819 120.14609836 -64.7063509 115.96128925 -65.1875 110.1875 C-65.8475 110.1875 -66.5075 110.1875 -67.1875 110.1875 C-67.27314209 109.53676514 -67.35878418 108.88603027 -67.44702148 108.21557617 C-67.83664094 105.26830626 -68.23076783 102.32165629 -68.625 99.375 C-68.75970703 98.35083984 -68.89441406 97.32667969 -69.03320312 96.27148438 C-69.16533203 95.28857422 -69.29746094 94.30566406 -69.43359375 93.29296875 C-69.55404053 92.38699951 -69.6744873 91.48103027 -69.79858398 90.54760742 C-70.14712872 88.0456656 -70.14712872 88.0456656 -71.1875 85.1875 C-71.74965988 77.21465885 -70.72300409 69.47712758 -69.4375 61.625 C-69.20160156 60.03655273 -69.20160156 60.03655273 -68.9609375 58.41601562 C-67.86358435 51.5659996 -66.05950019 45.50325748 -63.1875 39.1875 C-62.5275 39.1875 -61.8675 39.1875 -61.1875 39.1875 C-61.06375 38.218125 -60.94 37.24875 -60.8125 36.25 C-60.60625 35.239375 -60.4 34.22875 -60.1875 33.1875 C-59.1975 32.6925 -59.1975 32.6925 -58.1875 32.1875 C-57.22351521 30.4922164 -56.26172619 28.79560557 -55.31640625 27.08984375 C-50.96658455 19.7598674 -44.35976871 14.58866489 -37.1875 10.1875 C-36.5275 10.1875 -35.8675 10.1875 -35.1875 10.1875 C-35.1875 9.5275 -35.1875 8.8675 -35.1875 8.1875 C-32.28149739 6.93085022 -30.39145416 6.1875 -27.1875 6.1875 C-27.1875 5.5275 -27.1875 4.8675 -27.1875 4.1875 C-26.26066406 3.98253906 -25.33382812 3.77757813 -24.37890625 3.56640625 C-23.18136719 3.29699219 -21.98382813 3.02757813 -20.75 2.75 C-18.95755859 2.34974609 -18.95755859 2.34974609 -17.12890625 1.94140625 C-11.25650067 0.43626113 -6.47568186 0.00333283 0 0 Z M-4.1875 30.1875 C-4.1875 30.8475 -4.1875 31.5075 -4.1875 32.1875 C-5.7653125 32.125625 -5.7653125 32.125625 -7.375 32.0625 C-10.92760173 32.17897875 -13.03616641 32.65958068 -16.1875 34.1875 C-16.1875 34.8475 -16.1875 35.5075 -16.1875 36.1875 C-17.5075 36.5175 -18.8275 36.8475 -20.1875 37.1875 C-20.1875 37.8475 -20.1875 38.5075 -20.1875 39.1875 C-21.1775 39.5175 -22.1675 39.8475 -23.1875 40.1875 C-24.64164116 41.90284719 -24.64164116 41.90284719 -25.875 44 C-26.31199219 44.68707031 -26.74898438 45.37414062 -27.19921875 46.08203125 C-28.47077142 48.40334532 -28.47077142 48.40334532 -28.1875 52.1875 C-28.8475 52.1875 -29.5075 52.1875 -30.1875 52.1875 C-30.23648438 52.89777344 -30.28546875 53.60804688 -30.3359375 54.33984375 C-30.41070312 55.25894531 -30.48546875 56.17804688 -30.5625 57.125 C-30.66691406 58.49978516 -30.66691406 58.49978516 -30.7734375 59.90234375 C-30.91007812 60.65644531 -31.04671875 61.41054687 -31.1875 62.1875 C-32.1775 62.6825 -32.1775 62.6825 -33.1875 63.1875 C-12.7275 63.1875 7.7325 63.1875 28.8125 63.1875 C28.82952833 57.00682671 28.82952833 57.00682671 27.8125 51.1875 C27.1525 51.1875 26.4925 51.1875 25.8125 51.1875 C25.3175 47.7225 25.3175 47.7225 24.8125 44.1875 C23.8225 43.8575 22.8325 43.5275 21.8125 43.1875 C21.125 41.125 21.125 41.125 20.8125 39.1875 C20.1525 39.1875 19.4925 39.1875 18.8125 39.1875 C18.3175 37.7025 18.3175 37.7025 17.8125 36.1875 C13.07071606 32.96308692 9.58955764 31.76520576 3.8125 31.1875 C3.3175 30.6925 3.3175 30.6925 2.8125 30.1875 C0.47952567 30.14657063 -1.85455225 30.14508277 -4.1875 30.1875 Z " fill="#777777" transform="translate(429.1875,111.8125)"/>
<path d="M0 0 C26.35535308 -0.44419134 26.35535308 -0.44419134 38 3 C38 3.66 38 4.32 38 5 C38.86625 5.0825 39.7325 5.165 40.625 5.25 C46.13748746 6.47499721 50.39096245 9.69691677 54 14 C54 14.99 54 15.98 54 17 C54.66 17 55.32 17 56 17 C56.495 18.98 56.495 18.98 57 21 C57.66 21 58.32 21 59 21 C60.29243536 25.1196377 61.26252625 28.66831683 61 33 C61.66 33 62.32 33 63 33 C64.09754593 41.09684239 64.21937638 49.15994888 64.31640625 57.31640625 C64.33701785 58.7832848 64.35801529 60.25015797 64.37937927 61.71702576 C64.43416627 65.54899702 64.48376389 69.38101796 64.53222656 73.21307373 C64.58276151 77.13493183 64.63827933 81.05671919 64.69335938 84.97851562 C64.80040914 92.65228357 64.90196862 100.32611098 65 108 C65.66 108 66.32 108 67 108 C67.21914063 108.53109375 67.43828125 109.0621875 67.6640625 109.609375 C69.92696931 114.65032188 71.91385257 117.40502682 77 120 C79.7282504 120.78215588 79.7282504 120.78215588 82 121 C82 121.66 82 122.32 82 123 C83.98 123 85.96 123 88 123 C88 132.24 88 141.48 88 151 C84.23080759 152.88459621 81.27927639 153.65876891 77.21875 154.4375 C74.93169625 155.01731644 73.06575768 155.87322308 71 157 C71 157.99 71 158.98 71 160 C70.34 160.33 69.68 160.66 69 161 C64.53777368 168.61815842 64.41268947 176.39832537 64.42578125 185.00390625 C64.40413534 187.01874585 64.38248596 189.03358541 64.36063671 191.04842281 C64.33523731 193.84537957 64.32780883 196.64227846 64.32006836 199.43933105 C64.30260452 204.33850113 64.25539961 209.23748279 64.21000671 214.13645935 C64.18771861 216.73639647 64.17177933 219.33639826 64.16316223 221.93641663 C64.0628707 238.87836299 64.0628707 238.87836299 61.5 245.875 C61.11328125 246.95394531 61.11328125 246.95394531 60.71875 248.0546875 C60.4815625 248.69664062 60.244375 249.33859375 60 250 C59.67 250.99 59.34 251.98 59 253 C58.34 253 57.68 253 57 253 C56.773125 253.70125 56.54625 254.4025 56.3125 255.125 C53.07471942 262.21728127 48.07698916 266.00486976 41 269 C40.01 269 39.02 269 38 269 C38 269.66 38 270.32 38 271 C25.20330331 274.39627969 13.22110357 274.23469415 0 274 C0 264.76 0 255.52 0 246 C7.5625 245.125 7.5625 245.125 9.90063477 244.86376953 C14.44461317 244.31596737 18.63089764 243.36642097 23 242 C23 241.34 23 240.68 23 240 C23.46076431 239.54250366 23.92152863 239.08500732 24.39625549 238.61364746 C30.47852415 232.49382144 29.44067842 222.00975984 29.44140625 214.09375 C29.46159023 212.07673694 29.48178447 210.05972393 29.50257015 208.04271698 C29.52809803 205.23828249 29.54072924 202.43385284 29.55297852 199.6293335 C29.57492468 194.72141097 29.60629363 189.81362229 29.65428162 184.90588379 C29.67846569 182.30040534 29.69346443 179.69482032 29.69789124 177.0892334 C29.77107145 168.52928301 30.79013291 161.05552849 33.625 152.9375 C33.88539063 152.18339844 34.14578125 151.42929688 34.4140625 150.65234375 C34.60742188 150.10707031 34.80078125 149.56179687 35 149 C35.66 149 36.32 149 37 149 C37.226875 148.278125 37.45375 147.55625 37.6875 146.8125 C39.27941462 143.40125439 41.15061505 141.44232995 44 139 C46.3125 138.1875 46.3125 138.1875 48 138 C48 137.34 48 136.68 48 136 C47.113125 135.814375 46.22625 135.62875 45.3125 135.4375 C41.06687676 133.59505973 39.15139347 131.03624262 37 127 C37 126.34 37 125.68 37 125 C36.34 125 35.68 125 35 125 C34.34525592 123.31593731 33.70166594 121.62753664 33.0625 119.9375 C32.70285156 118.99777344 32.34320312 118.05804688 31.97265625 117.08984375 C29.51838979 109.29335871 29.78969606 101.29421521 29.68359375 93.19140625 C29.66299015 91.85619005 29.64199286 90.52097988 29.62062073 89.18577576 C29.56575137 85.69244298 29.51618906 82.19905482 29.46777344 78.70562744 C29.41729977 75.13247826 29.36174951 71.55940829 29.30664062 67.98632812 C29.19948969 60.99095423 29.09795138 53.9955086 29 47 C28.67 47 28.34 47 28 47 C27.80083984 46.07767578 27.80083984 46.07767578 27.59765625 45.13671875 C27.42105469 44.32847656 27.24445312 43.52023438 27.0625 42.6875 C26.88847656 41.88699219 26.71445312 41.08648437 26.53515625 40.26171875 C26.00113841 37.854599 26.00113841 37.854599 25 35 C24.34 34.67 23.68 34.34 23 34 C23 33.34 23 32.68 23 32 C20.85548495 31.51496744 18.70930465 31.03729595 16.5625 30.5625 C15.36753906 30.29566406 14.17257812 30.02882813 12.94140625 29.75390625 C8.66568383 28.93605251 4.32661311 28.48073479 0 28 C0 18.76 0 9.52 0 0 Z " fill="#777777" transform="translate(702,43)"/>
<path d="M0 0 C0.67467316 -0.0014502 1.34934631 -0.00290039 2.04446411 -0.00439453 C9.67067836 -0.00254415 16.69821904 0.39409228 24.0625 2.375 C25.91449501 2.70012266 27.76838757 3.01487511 29.625 3.3125 C34.39792942 4.15280448 38.59145648 5.51909514 43.0625 7.375 C43.0625 8.365 43.0625 9.355 43.0625 10.375 C42.4025 10.375 41.7425 10.375 41.0625 10.375 C41.00191406 11.17164062 40.94132813 11.96828125 40.87890625 12.7890625 C40.04668278 23.31348858 40.04668278 23.31348858 39.0625 28.375 C38.4025 28.375 37.7425 28.375 37.0625 28.375 C36.7325 31.345 36.4025 34.315 36.0625 37.375 C35.08023438 37.07722656 34.09796875 36.77945313 33.0859375 36.47265625 C28.28566198 35.10028529 23.40943939 34.28556433 18.49609375 33.43164062 C13.16371429 32.47621429 13.16371429 32.47621429 12.0625 31.375 C10.50301458 31.21813751 8.93707332 31.12423361 7.37109375 31.05859375 C5.95473633 30.99575195 5.95473633 30.99575195 4.50976562 30.93164062 C3.51654297 30.89232422 2.52332031 30.85300781 1.5 30.8125 C0.50291016 30.76931641 -0.49417969 30.72613281 -1.52148438 30.68164062 C-3.9933415 30.57519702 -6.4653031 30.47318072 -8.9375 30.375 C-8.9375 31.035 -8.9375 31.695 -8.9375 32.375 C-9.63617187 32.46136719 -10.33484375 32.54773438 -11.0546875 32.63671875 C-11.96476563 32.77722656 -12.87484375 32.91773438 -13.8125 33.0625 C-15.16988281 33.25392578 -15.16988281 33.25392578 -16.5546875 33.44921875 C-19.12247353 34.16068839 -19.12247353 34.16068839 -20.21875 36.59375 C-20.96784601 39.49242586 -21.34671905 42.20253023 -21.5625 45.1875 C-21.63726563 46.16332031 -21.71203125 47.13914063 -21.7890625 48.14453125 C-21.83804688 48.88058594 -21.88703125 49.61664063 -21.9375 50.375 C-21.2775 50.375 -20.6175 50.375 -19.9375 50.375 C-19.89625 50.99375 -19.855 51.6125 -19.8125 52.25 C-19.379375 53.301875 -19.379375 53.301875 -18.9375 54.375 C-15.94134054 55.6795656 -15.94134054 55.6795656 -12.9375 56.375 C-12.9375 57.035 -12.9375 57.695 -12.9375 58.375 C-9.9675 59.035 -6.9975 59.695 -3.9375 60.375 C-3.9375 61.035 -3.9375 61.695 -3.9375 62.375 C-2.4215625 62.5296875 -2.4215625 62.5296875 -0.875 62.6875 C3.16904125 63.39360244 6.33733038 64.68813074 10.0625 66.375 C11.38526056 66.74808631 12.71482077 67.10546415 14.0625 67.375 C14.0625 68.035 14.0625 68.695 14.0625 69.375 C17.0325 70.035 20.0025 70.695 23.0625 71.375 C23.0625 72.035 23.0625 72.695 23.0625 73.375 C24.7125 73.705 26.3625 74.035 28.0625 74.375 C28.0625 75.035 28.0625 75.695 28.0625 76.375 C29.42375 76.74625 29.42375 76.74625 30.8125 77.125 C34.18746123 78.42306201 35.80352121 79.59471841 38.0625 82.375 C38.0625 83.035 38.0625 83.695 38.0625 84.375 C39.5475 84.87 39.5475 84.87 41.0625 85.375 C47.70434036 93.46974294 50.76083346 104.51360775 50.35546875 114.91796875 C49.12261036 125.25754109 47.05680252 133.47820683 40.0625 141.375 C39.4025 141.375 38.7425 141.375 38.0625 141.375 C37.7325 142.365 37.4025 143.355 37.0625 144.375 C34.76953125 146.1640625 34.76953125 146.1640625 31.875 148 C30.46154297 148.91652344 30.46154297 148.91652344 29.01953125 149.8515625 C25.95997738 151.42781879 23.46467998 152.00202027 20.0625 152.375 C20.0625 153.035 20.0625 153.695 20.0625 154.375 C19.46187744 154.46064209 18.86125488 154.54628418 18.24243164 154.63452148 C15.53598342 155.02288015 12.83050164 155.41760329 10.125 155.8125 C9.17947266 155.94720703 8.23394531 156.08191406 7.25976562 156.22070312 C6.36064453 156.35283203 5.46152344 156.48496094 4.53515625 156.62109375 C3.28617554 156.80176392 3.28617554 156.80176392 2.01196289 156.98608398 C0.06562641 157.18683994 0.06562641 157.18683994 -0.9375 158.375 C-2.77909023 158.47459621 -4.62446967 158.50580411 -6.46875 158.5078125 C-7.58894531 158.50910156 -8.70914063 158.51039063 -9.86328125 158.51171875 C-11.04277344 158.50785156 -12.22226562 158.50398437 -13.4375 158.5 C-15.20673828 158.50580078 -15.20673828 158.50580078 -17.01171875 158.51171875 C-18.69201172 158.50978516 -18.69201172 158.50978516 -20.40625 158.5078125 C-21.44201172 158.50668457 -22.47777344 158.50555664 -23.54492188 158.50439453 C-25.9375 158.375 -25.9375 158.375 -26.9375 157.375 C-29.68842859 156.99719007 -32.42729073 156.66698908 -35.1875 156.375 C-44.49189331 155.3708159 -44.49189331 155.3708159 -48.9375 154.375 C-48.9375 153.715 -48.9375 153.055 -48.9375 152.375 C-49.85982422 152.30152344 -49.85982422 152.30152344 -50.80078125 152.2265625 C-51.60902344 152.15179688 -52.41726563 152.07703125 -53.25 152 C-54.05050781 151.93039062 -54.85101562 151.86078125 -55.67578125 151.7890625 C-57.9375 151.375 -57.9375 151.375 -60.9375 149.375 C-61.56629413 142.58402344 -60.18167224 136.04020843 -58.9375 129.375 C-58.2775 129.375 -57.6175 129.375 -56.9375 129.375 C-56.958125 128.3025 -56.97875 127.23 -57 126.125 C-56.9517016 123.22709576 -56.80594115 121.08887859 -55.9375 118.375 C-53.6275 118.705 -51.3175 119.035 -48.9375 119.375 C-48.9375 120.035 -48.9375 120.695 -48.9375 121.375 C-47.865 121.478125 -46.7925 121.58125 -45.6875 121.6875 C-42.19735081 122.10437577 -39.00019154 122.91152388 -35.62890625 123.89453125 C-28.81639881 125.62185838 -22.15819762 125.83155271 -15.17211914 125.76611328 C-13.10953067 125.74987824 -11.04886148 125.76613324 -8.98632812 125.78515625 C0.46054725 125.83638004 0.46054725 125.83638004 9.0625 122.375 C10.5443964 120.3398239 10.5443964 120.3398239 11.0625 118.375 C11.7225 118.375 12.3825 118.375 13.0625 118.375 C13.0625 115.735 13.0625 113.095 13.0625 110.375 C12.4025 110.375 11.7425 110.375 11.0625 110.375 C10.65 109.42625 10.2375 108.4775 9.8125 107.5 C8.0584869 104.36783376 7.35398243 103.50999394 4.0625 102.375 C4.0625 101.715 4.0625 101.055 4.0625 100.375 C2.4125 100.045 0.7625 99.715 -0.9375 99.375 C-0.9375 98.715 -0.9375 98.055 -0.9375 97.375 C-3.9075 96.715 -6.8775 96.055 -9.9375 95.375 C-9.9375 94.715 -9.9375 94.055 -9.9375 93.375 C-11.54625 93.1584375 -11.54625 93.1584375 -13.1875 92.9375 C-15.85412949 92.53750558 -18.35149729 92.09908076 -20.9375 91.375 C-20.9375 90.715 -20.9375 90.055 -20.9375 89.375 C-21.741875 89.2925 -22.54625 89.21 -23.375 89.125 C-27.89684205 88.17303325 -31.78452701 86.35919821 -35.9375 84.375 C-35.9375 83.715 -35.9375 83.055 -35.9375 82.375 C-37.9175 81.715 -39.8975 81.055 -41.9375 80.375 C-41.9375 79.715 -41.9375 79.055 -41.9375 78.375 C-43.0821875 77.9728125 -43.0821875 77.9728125 -44.25 77.5625 C-46.84233979 76.41704753 -48.23825537 75.61084819 -49.9375 73.375 C-49.9375 72.385 -49.9375 71.395 -49.9375 70.375 C-50.9275 70.045 -51.9175 69.715 -52.9375 69.375 C-55.5719781 65.11049365 -57.59249928 60.4512444 -56.9375 55.375 C-57.5975 55.375 -58.2575 55.375 -58.9375 55.375 C-58.9375 48.775 -58.9375 42.175 -58.9375 35.375 C-58.6075 35.375 -58.2775 35.375 -57.9375 35.375 C-57.2775 32.405 -56.6175 29.435 -55.9375 26.375 C-55.2775 26.375 -54.6175 26.375 -53.9375 26.375 C-53.7209375 25.4778125 -53.7209375 25.4778125 -53.5 24.5625 C-51.96312624 18.5857687 -48.74689486 16.04532766 -43.9375 12.375 C-40.9375 10.9375 -40.9375 10.9375 -38.9375 10.375 C-38.9375 9.715 -38.9375 9.055 -38.9375 8.375 C-36.6275 7.715 -34.3175 7.055 -31.9375 6.375 C-31.9375 5.715 -31.9375 5.055 -31.9375 4.375 C-21.39343322 0.54700817 -11.12220072 -0.02352211 0 0 Z " fill="#777777" transform="translate(669.9375,111.625)"/>
<path d="M0 0 C1.0374939 0.00303635 1.0374939 0.00303635 2.09594727 0.00613403 C2.80243408 0.00517731 3.5089209 0.00422058 4.23681641 0.00323486 C5.7331552 0.00255321 7.22949694 0.00440649 8.72583008 0.00857544 C11.02374884 0.01392396 13.32147213 0.00863003 15.61938477 0.00222778 C17.06990603 0.00288857 18.52042718 0.00416974 19.97094727 0.00613403 C20.66260986 0.0041098 21.35427246 0.00208557 22.06689453 0 C26.91849503 0.0239943 26.91849503 0.0239943 28.03344727 1.13894653 C29.44295415 1.43403714 30.86370832 1.67600616 32.28735352 1.89285278 C33.14135742 2.02498169 33.99536133 2.1571106 34.87524414 2.29324341 C35.77307617 2.42795044 36.6709082 2.56265747 37.59594727 2.70144653 C38.94849609 2.90930786 38.94849609 2.90930786 40.32836914 3.12136841 C42.56286159 3.46422704 44.79786997 3.80324676 47.03344727 4.13894653 C47.03344727 4.79894653 47.03344727 5.45894653 47.03344727 6.13894653 C49.34344727 6.46894653 51.65344727 6.79894653 54.03344727 7.13894653 C54.03344727 8.45894653 54.03344727 9.77894653 54.03344727 11.13894653 C53.37344727 11.13894653 52.71344727 11.13894653 52.03344727 11.13894653 C51.97286133 11.8517981 51.91227539 12.56464966 51.84985352 13.29910278 C51.38536626 18.60854942 50.85269476 23.87235553 50.03344727 29.13894653 C49.37344727 29.13894653 48.71344727 29.13894653 48.03344727 29.13894653 C47.70344727 31.77894653 47.37344727 34.41894653 47.03344727 37.13894653 C46.0524707 36.84246216 45.07149414 36.54597778 44.06079102 36.24050903 C39.94878421 35.06564995 35.80232481 34.26824662 31.59594727 33.51394653 C30.8644043 33.37988403 30.13286133 33.24582153 29.37915039 33.10769653 C27.5978103 32.78169965 25.81570629 32.45988153 24.03344727 32.13894653 C24.03344727 31.47894653 24.03344727 30.81894653 24.03344727 30.13894653 C7.76475198 29.61126401 7.76475198 29.61126401 -6.96655273 35.13894653 C-8.21730256 37.18494546 -8.21730256 37.18494546 -8.96655273 39.13894653 C-9.62655273 39.13894653 -10.28655273 39.13894653 -10.96655273 39.13894653 C-10.69916139 45.15525176 -10.09291182 49.43948202 -5.96655273 54.13894653 C-3.3621804 55.55085218 -3.3621804 55.55085218 -0.96655273 56.13894653 C-0.96655273 56.79894653 -0.96655273 57.45894653 -0.96655273 58.13894653 C1.67344727 58.79894653 4.31344727 59.45894653 7.03344727 60.13894653 C7.03344727 60.79894653 7.03344727 61.45894653 7.03344727 62.13894653 C9.67344727 62.46894653 12.31344727 62.79894653 15.03344727 63.13894653 C15.03344727 63.79894653 15.03344727 64.45894653 15.03344727 65.13894653 C18.33344727 65.79894653 21.63344727 66.45894653 25.03344727 67.13894653 C25.03344727 67.79894653 25.03344727 68.45894653 25.03344727 69.13894653 C28.00344727 69.79894653 30.97344727 70.45894653 34.03344727 71.13894653 C34.03344727 71.79894653 34.03344727 72.45894653 34.03344727 73.13894653 C34.92032227 73.40707153 35.80719727 73.67519653 36.72094727 73.95144653 C39.82441387 75.06401003 42.34455412 76.24090431 45.03344727 78.13894653 C45.03344727 78.79894653 45.03344727 79.45894653 45.03344727 80.13894653 C45.81719727 80.36582153 46.60094727 80.59269653 47.40844727 80.82644653 C50.03344727 82.13894653 50.03344727 82.13894653 51.34594727 84.76394653 C51.57282227 85.54769653 51.79969727 86.33144653 52.03344727 87.13894653 C52.69344727 87.13894653 53.35344727 87.13894653 54.03344727 87.13894653 C54.15719727 87.77832153 54.28094727 88.41769653 54.40844727 89.07644653 C54.61469727 89.75707153 54.82094727 90.43769653 55.03344727 91.13894653 C55.69344727 91.46894653 56.35344727 91.79894653 57.03344727 92.13894653 C58.96675302 95.89815217 59.22836609 98.94819178 59.03344727 103.13894653 C59.69344727 103.13894653 60.35344727 103.13894653 61.03344727 103.13894653 C61.03344727 109.40894653 61.03344727 115.67894653 61.03344727 122.13894653 C60.37344727 122.13894653 59.71344727 122.13894653 59.03344727 122.13894653 C58.97286133 122.83761841 58.91227539 123.53629028 58.84985352 124.25613403 C58.72416992 125.62125122 58.72416992 125.62125122 58.59594727 127.01394653 C58.47413086 128.37132935 58.47413086 128.37132935 58.34985352 129.75613403 C58.03344727 132.13894653 58.03344727 132.13894653 57.03344727 134.13894653 C56.37344727 134.13894653 55.71344727 134.13894653 55.03344727 134.13894653 C54.80657227 134.86082153 54.57969727 135.58269653 54.34594727 136.32644653 C52.76425009 139.71579763 50.83230225 141.68141533 48.03344727 144.13894653 C47.04344727 144.46894653 46.05344727 144.79894653 45.03344727 145.13894653 C45.03344727 145.79894653 45.03344727 146.45894653 45.03344727 147.13894653 C43.38344727 147.46894653 41.73344727 147.79894653 40.03344727 148.13894653 C40.03344727 148.79894653 40.03344727 149.45894653 40.03344727 150.13894653 C36.66247343 151.63715713 34.82902607 152.13894653 31.03344727 152.13894653 C31.03344727 152.79894653 31.03344727 153.45894653 31.03344727 154.13894653 C30.46311768 154.22458862 29.89278809 154.31023071 29.30517578 154.39846802 C26.73476911 154.78687454 24.16536832 155.18157482 21.59594727 155.57644653 C20.24919922 155.77850708 20.24919922 155.77850708 18.87524414 155.98464966 C18.02124023 156.11677856 17.16723633 156.24890747 16.28735352 156.38504028 C15.1012146 156.56571045 15.1012146 156.56571045 13.89111328 156.75003052 C12.0264211 156.96357095 12.0264211 156.96357095 11.03344727 158.13894653 C9.11886445 158.23866439 7.20062409 158.26975242 5.28344727 158.27175903 C4.11813477 158.2730481 2.95282227 158.27433716 1.75219727 158.27566528 C0.52500977 158.2717981 -0.70217773 158.26793091 -1.96655273 158.26394653 C-3.19374023 158.26781372 -4.42092773 158.27168091 -5.68530273 158.27566528 C-7.43327148 158.27373169 -7.43327148 158.27373169 -9.21655273 158.27175903 C-10.29420898 158.2706311 -11.37186523 158.26950317 -12.48217773 158.26834106 C-14.96655273 158.13894653 -14.96655273 158.13894653 -15.96655273 157.13894653 C-17.54924518 156.86579813 -19.14160414 156.64812062 -20.73608398 156.45535278 C-22.19304688 156.27069458 -22.19304688 156.27069458 -23.67944336 156.08230591 C-25.73383376 155.82987609 -27.78852069 155.57984714 -29.84350586 155.33230591 C-31.30626953 155.14571411 -31.30626953 155.14571411 -32.79858398 154.95535278 C-33.69295166 154.84650757 -34.58731934 154.73766235 -35.50878906 154.6255188 C-37.98461866 154.13536996 -39.77006954 153.35460832 -41.96655273 152.13894653 C-43.37582526 151.57832352 -44.79256883 151.03607397 -46.21655273 150.51394653 C-47.45405273 150.06019653 -48.69155273 149.60644653 -49.96655273 149.13894653 C-49.63655273 144.84894653 -49.30655273 140.55894653 -48.96655273 136.13894653 C-48.30655273 136.13894653 -47.64655273 136.13894653 -46.96655273 136.13894653 C-46.9059668 135.34230591 -46.84538086 134.54566528 -46.78295898 133.72488403 C-45.95073551 123.20045796 -45.95073551 123.20045796 -44.96655273 118.13894653 C-42.65655273 118.46894653 -40.34655273 118.79894653 -37.96655273 119.13894653 C-37.96655273 119.79894653 -37.96655273 120.45894653 -37.96655273 121.13894653 C-37.0790332 121.2124231 -37.0790332 121.2124231 -36.17358398 121.28738403 C-31.70706054 121.70999147 -28.11943924 122.39036274 -23.96655273 124.13894653 C-17.30120316 125.28024575 -10.75197807 125.35964511 -4.00561523 125.37918091 C-1.97135066 125.38892355 0.06191717 125.42003294 2.09594727 125.45144653 C12.8119459 125.58868452 12.8119459 125.58868452 21.90844727 120.51394653 C23.63287297 116.87349227 23.78647357 113.12459102 24.03344727 109.13894653 C23.37344727 109.13894653 22.71344727 109.13894653 22.03344727 109.13894653 C21.78594727 108.35519653 21.53844727 107.57144653 21.28344727 106.76394653 C19.87955628 103.81577545 19.0266899 103.23646883 16.03344727 102.13894653 C16.03344727 101.47894653 16.03344727 100.81894653 16.03344727 100.13894653 C15.33219727 100.03582153 14.63094727 99.93269653 13.90844727 99.82644653 C10.63785431 99.04434822 8.02126983 97.66464316 5.03344727 96.13894653 C2.79819692 95.45258028 2.79819692 95.45258028 1.03344727 95.13894653 C1.03344727 94.47894653 1.03344727 93.81894653 1.03344727 93.13894653 C-0.10543945 92.95718872 -0.10543945 92.95718872 -1.26733398 92.77175903 C-2.26120117 92.60418091 -3.25506836 92.43660278 -4.27905273 92.26394653 C-5.26518555 92.10152466 -6.25131836 91.93910278 -7.26733398 91.77175903 C-9.96655273 91.13894653 -9.96655273 91.13894653 -12.96655273 89.13894653 C-14.813049 88.2454806 -16.66028728 87.35345692 -18.51391602 86.47488403 C-28.61438415 81.64472633 -37.23191317 76.13112153 -42.96655273 66.13894653 C-42.96655273 65.14894653 -42.96655273 64.15894653 -42.96655273 63.13894653 C-43.62655273 63.13894653 -44.28655273 63.13894653 -44.96655273 63.13894653 C-48.40500305 50.36755965 -48.87505044 35.41200157 -42.71655273 23.45144653 C-40.28678254 19.3417462 -37.57238409 16.26400037 -33.96655273 13.13894653 C-33.30655273 13.13894653 -32.64655273 13.13894653 -31.96655273 13.13894653 C-31.96655273 12.47894653 -31.96655273 11.81894653 -31.96655273 11.13894653 C-30.64655273 10.80894653 -29.32655273 10.47894653 -27.96655273 10.13894653 C-27.96655273 9.47894653 -27.96655273 8.81894653 -27.96655273 8.13894653 C-25.06055012 6.88229676 -23.17050689 6.13894653 -19.96655273 6.13894653 C-19.96655273 5.47894653 -19.96655273 4.81894653 -19.96655273 4.13894653 C-18.9675293 3.9339856 -17.96850586 3.72902466 -16.93920898 3.51785278 C-15.64885742 3.24843872 -14.35850586 2.97902466 -13.02905273 2.70144653 C-11.7412793 2.4346106 -10.45350586 2.16777466 -9.12670898 1.89285278 C-1.21766234 0.00602213 -1.21766234 0.00602213 0 0 Z " fill="#777777" transform="translate(547.966552734375,111.86105346679688)"/>
<path d="" fill="#777777" transform="translate(0,0)"/>
</svg>
