<?xml version="1.0" encoding="UTF-8"?>
<svg version="1.1" xmlns="http://www.w3.org/2000/svg" width="800" height="800">
<path d="M0 0 C6.2786666 3.79381517 12.58949763 7.53296568 18.90234375 11.26953125 C19.4772052 11.60991425 20.05206665 11.95029724 20.64434814 12.30099487 C33.84126584 20.11490451 47.04493563 27.91742134 60.25390625 35.7109375 C68.90512312 40.81686332 77.54936063 45.93246359 86.15625 51.11279297 C90.41067946 53.67029571 94.68313834 56.195499 98.96484375 58.70703125 C107.29489528 63.5941928 115.59925334 68.52426591 123.90234375 73.45703125 C125.29858223 74.28646128 126.69482247 75.11588836 128.09106445 75.9453125 C129.13113396 76.56315613 129.13113396 76.56315613 130.19221497 77.19348145 C130.88546371 77.60529663 131.57871246 78.01711182 132.29296875 78.44140625 C132.98674118 78.8535437 133.68051361 79.26568115 134.39530945 79.69030762 C148.29060425 87.944128 162.19461537 96.18331553 176.10864258 104.40551758 C177.91213783 105.47129992 179.71536589 106.53753455 181.51831055 107.60424805 C186.08951034 110.30749224 190.6668109 112.99958755 195.25390625 115.67578125 C216.76161887 128.24298988 237.43040922 140.35799964 250.52734375 162.33203125 C251.05448975 163.20746582 251.05448975 163.20746582 251.59228516 164.10058594 C257.14516852 173.44831632 260.70902084 182.83432459 263.52734375 193.33203125 C263.87261423 194.46141145 264.21788471 195.59079165 264.57361794 196.75439548 C266.00500741 202.55370044 265.80997155 208.38796373 265.79476929 214.32810974 C265.7993004 215.62968728 265.80383151 216.93126481 265.80849993 218.27228409 C265.82069081 221.86991822 265.82047408 225.46745908 265.81811118 229.06510913 C265.817702 232.95150668 265.82875207 236.83787473 265.83822632 240.72425842 C265.85481771 248.33426411 265.86033509 255.94423881 265.86145107 263.55426108 C265.86240279 269.74529069 265.86651927 275.93631012 265.87285233 282.1273365 C265.89046259 299.70196931 265.89969197 317.27657772 265.89819138 334.85121941 C265.89807151 336.271493 265.89807151 336.271493 265.89794922 337.72045898 C265.89786746 338.66847242 265.8977857 339.61648586 265.89770146 340.59322698 C265.89688946 355.93927636 265.91600592 371.28522739 265.94422595 386.63124835 C265.97301118 402.40995384 265.98676303 418.18861147 265.9850384 433.96734387 C265.98437626 442.81708719 265.98979055 451.66672749 266.0113945 460.51644707 C266.02968104 468.05532591 266.03389299 475.59405509 266.02037565 483.1329466 C266.01388237 486.97309332 266.01359514 490.81295357 266.03108215 494.65307236 C266.14341981 520.9488401 263.1104059 543.36766989 247.52734375 565.33203125 C247.01945313 566.06292969 246.5115625 566.79382813 245.98828125 567.546875 C230.70316906 588.36625195 208.67223178 599.74564365 186.82714844 612.41699219 C182.80365726 614.75202214 178.78738309 617.09898843 174.77734375 619.45703125 C174.13966064 619.83174561 173.50197754 620.20645996 172.8449707 620.5925293 C165.57383294 624.87658565 158.34754232 629.23572605 151.11425781 633.58325195 C139.20349849 640.73746524 127.24463604 647.8099582 115.2578125 654.8359375 C106.96211507 659.7001014 98.70441691 664.62327994 90.46484375 669.58203125 C80.97155674 675.29406312 71.42859115 680.91384243 61.84985352 686.48120117 C55.9294952 689.92415949 50.03361827 693.40191219 44.16967773 696.93994141 C35.94440442 701.8989139 27.66209544 706.76205244 19.39013672 711.64257812 C15.6788529 713.83276097 11.96880021 716.02502258 8.2590332 718.21777344 C6.44146011 719.29184559 4.62359004 720.36541536 2.80541992 721.43847656 C-1.93414816 724.23637659 -6.6682403 727.04300272 -11.39453125 729.86328125 C-12.37035156 730.44400391 -13.34617187 731.02472656 -14.3515625 731.62304688 C-16.19960845 732.72307423 -18.04609281 733.8257315 -19.890625 734.93164062 C-46.23761683 750.59145845 -73.1567288 756.41912982 -103.109375 748.96044922 C-115.8448836 745.5739617 -126.68857466 739.67910903 -137.91162109 732.87792969 C-140.55265507 731.28374216 -143.20730101 729.71485448 -145.8671875 728.15234375 C-155.66237196 722.39826856 -165.41233683 716.57139386 -175.14428711 710.71118164 C-181.5058749 706.88994464 -187.91962744 703.16540416 -194.35083008 699.46289062 C-199.88579173 696.26922854 -205.37599203 693.00781477 -210.84765625 689.70703125 C-219.07858888 684.74225068 -227.36143255 679.86969233 -235.66015625 675.01953125 C-250.29277526 666.46530563 -264.83200951 657.76042628 -279.33984375 648.99609375 C-291.5420122 641.64097605 -303.85509638 634.47340283 -316.15087891 627.27636719 C-328.80421123 619.86999216 -341.42173517 612.40939929 -353.97509766 604.83447266 C-356.44221966 603.35034081 -358.91587982 601.87762641 -361.390625 600.40625 C-369.55102781 595.52739399 -377.26769501 590.57902948 -384.47265625 584.33203125 C-385.14039063 583.80738281 -385.808125 583.28273438 -386.49609375 582.7421875 C-405.86010931 567.09024607 -417.34789573 540.65590757 -420.05632782 516.47833252 C-421.05080049 505.81441153 -420.75404657 495.04606369 -420.73410559 484.34662914 C-420.7295329 480.70920778 -420.73658844 477.07180477 -420.74206543 473.43438721 C-420.75091025 466.3298008 -420.74905948 459.22525689 -420.74324015 452.12066889 C-420.73870419 446.34124563 -420.73811907 440.5618342 -420.74028778 434.78240967 C-420.74059425 433.9565887 -420.74090071 433.13076773 -420.74121647 432.27992189 C-420.74185598 430.60173813 -420.74250441 428.92355438 -420.74316165 427.24537063 C-420.74885056 411.54739591 -420.74232972 395.84944463 -420.73156092 380.15147376 C-420.72262672 366.7122989 -420.72417917 353.27315861 -420.73339844 339.83398438 C-420.74412658 324.18818659 -420.74830137 308.5424093 -420.74217391 292.89660835 C-420.74153688 291.22495652 -420.74090814 289.55330468 -420.74028778 287.88165283 C-420.73982495 286.64826001 -420.73982495 286.64826001 -420.73935278 285.38995016 C-420.73763346 279.62444333 -420.74052439 273.85894962 -420.74524689 268.09344482 C-420.75088409 261.05724827 -420.74928004 254.02109628 -420.7386854 246.98490477 C-420.73346662 243.40211507 -420.73130631 239.81939939 -420.7379837 236.23661041 C-420.79949119 200.17766723 -420.79949119 200.17766723 -415.34765625 184.70703125 C-415.04126221 183.81951172 -414.73486816 182.93199219 -414.41918945 182.01757812 C-408.60426517 165.80573969 -398.42800292 150.74012618 -385.47265625 139.33203125 C-384.65667969 138.61273438 -383.84070313 137.8934375 -383 137.15234375 C-372.78032546 128.76203222 -361.13931212 122.64257719 -349.66552734 116.15429688 C-345.14297679 113.573144 -340.67801214 110.90205737 -336.22265625 108.20703125 C-329.26329956 104.00627485 -322.28534511 99.83944752 -315.28515625 95.70703125 C-314.35815918 95.15974365 -313.43116211 94.61245605 -312.47607422 94.04858398 C-308.32261545 91.59821248 -304.16712702 89.15135642 -300.0078125 86.7109375 C-292.72221752 82.43580695 -285.45844404 78.12851869 -278.22265625 73.76953125 C-268.50366155 67.9148902 -258.71469372 62.18197259 -248.91113281 56.47045898 C-242.13765777 52.51834177 -235.43061678 48.47217485 -228.76147461 44.34570312 C-223.57375247 41.16937381 -218.32429468 38.10069085 -213.07052612 35.0352478 C-211.16672033 33.92439311 -209.26401842 32.81166775 -207.36157227 31.69848633 C-204.85029093 30.2292077 -202.33867631 28.76050243 -199.82666016 27.29248047 C-190.74461476 21.98393304 -181.67136471 16.66346757 -172.65942383 11.23657227 C-108.73966226 -27.24592921 -67.00996372 -40.52255069 0 0 Z " fill="#FDFDFD" transform="translate(476.47265625,38.66796875)"/>
<path d="M0 0 C6.2786666 3.79381517 12.58949763 7.53296568 18.90234375 11.26953125 C19.4772052 11.60991425 20.05206665 11.95029724 20.64434814 12.30099487 C33.84126584 20.11490451 47.04493563 27.91742134 60.25390625 35.7109375 C68.90512312 40.81686332 77.54936063 45.93246359 86.15625 51.11279297 C90.41067946 53.67029571 94.68313834 56.195499 98.96484375 58.70703125 C107.29489528 63.5941928 115.59925334 68.52426591 123.90234375 73.45703125 C125.29858223 74.28646128 126.69482247 75.11588836 128.09106445 75.9453125 C129.13113396 76.56315613 129.13113396 76.56315613 130.19221497 77.19348145 C130.88546371 77.60529663 131.57871246 78.01711182 132.29296875 78.44140625 C132.98674118 78.8535437 133.68051361 79.26568115 134.39530945 79.69030762 C148.29060425 87.944128 162.19461537 96.18331553 176.10864258 104.40551758 C177.91213783 105.47129992 179.71536589 106.53753455 181.51831055 107.60424805 C186.08951034 110.30749224 190.6668109 112.99958755 195.25390625 115.67578125 C216.76161887 128.24298988 237.43040922 140.35799964 250.52734375 162.33203125 C251.05448975 163.20746582 251.05448975 163.20746582 251.59228516 164.10058594 C257.14516852 173.44831632 260.70902084 182.83432459 263.52734375 193.33203125 C263.87261423 194.46141145 264.21788471 195.59079165 264.57361794 196.75439548 C266.00500741 202.55370044 265.80997155 208.38796373 265.79476929 214.32810974 C265.7993004 215.62968728 265.80383151 216.93126481 265.80849993 218.27228409 C265.82069081 221.86991822 265.82047408 225.46745908 265.81811118 229.06510913 C265.817702 232.95150668 265.82875207 236.83787473 265.83822632 240.72425842 C265.85481771 248.33426411 265.86033509 255.94423881 265.86145107 263.55426108 C265.86240279 269.74529069 265.86651927 275.93631012 265.87285233 282.1273365 C265.89046259 299.70196931 265.89969197 317.27657772 265.89819138 334.85121941 C265.89807151 336.271493 265.89807151 336.271493 265.89794922 337.72045898 C265.89786746 338.66847242 265.8977857 339.61648586 265.89770146 340.59322698 C265.89688946 355.93927636 265.91600592 371.28522739 265.94422595 386.63124835 C265.97301118 402.40995384 265.98676303 418.18861147 265.9850384 433.96734387 C265.98437626 442.81708719 265.98979055 451.66672749 266.0113945 460.51644707 C266.02968104 468.05532591 266.03389299 475.59405509 266.02037565 483.1329466 C266.01388237 486.97309332 266.01359514 490.81295357 266.03108215 494.65307236 C266.14341981 520.9488401 263.1104059 543.36766989 247.52734375 565.33203125 C247.01945313 566.06292969 246.5115625 566.79382813 245.98828125 567.546875 C230.70316906 588.36625195 208.67223178 599.74564365 186.82714844 612.41699219 C182.80365726 614.75202214 178.78738309 617.09898843 174.77734375 619.45703125 C174.13966064 619.83174561 173.50197754 620.20645996 172.8449707 620.5925293 C165.57383294 624.87658565 158.34754232 629.23572605 151.11425781 633.58325195 C139.20349849 640.73746524 127.24463604 647.8099582 115.2578125 654.8359375 C106.96211507 659.7001014 98.70441691 664.62327994 90.46484375 669.58203125 C80.97155674 675.29406312 71.42859115 680.91384243 61.84985352 686.48120117 C55.9294952 689.92415949 50.03361827 693.40191219 44.16967773 696.93994141 C35.94440442 701.8989139 27.66209544 706.76205244 19.39013672 711.64257812 C15.6788529 713.83276097 11.96880021 716.02502258 8.2590332 718.21777344 C6.44146011 719.29184559 4.62359004 720.36541536 2.80541992 721.43847656 C-1.93414816 724.23637659 -6.6682403 727.04300272 -11.39453125 729.86328125 C-12.37035156 730.44400391 -13.34617187 731.02472656 -14.3515625 731.62304688 C-16.19960845 732.72307423 -18.04609281 733.8257315 -19.890625 734.93164062 C-46.23761683 750.59145845 -73.1567288 756.41912982 -103.109375 748.96044922 C-115.8448836 745.5739617 -126.68857466 739.67910903 -137.91162109 732.87792969 C-140.55265507 731.28374216 -143.20730101 729.71485448 -145.8671875 728.15234375 C-155.66237196 722.39826856 -165.41233683 716.57139386 -175.14428711 710.71118164 C-181.5058749 706.88994464 -187.91962744 703.16540416 -194.35083008 699.46289062 C-199.88579173 696.26922854 -205.37599203 693.00781477 -210.84765625 689.70703125 C-219.07858888 684.74225068 -227.36143255 679.86969233 -235.66015625 675.01953125 C-250.29277526 666.46530563 -264.83200951 657.76042628 -279.33984375 648.99609375 C-291.5420122 641.64097605 -303.85509638 634.47340283 -316.15087891 627.27636719 C-328.80421123 619.86999216 -341.42173517 612.40939929 -353.97509766 604.83447266 C-356.44221966 603.35034081 -358.91587982 601.87762641 -361.390625 600.40625 C-369.55102781 595.52739399 -377.26769501 590.57902948 -384.47265625 584.33203125 C-385.14039063 583.80738281 -385.808125 583.28273438 -386.49609375 582.7421875 C-405.86010931 567.09024607 -417.34789573 540.65590757 -420.05632782 516.47833252 C-421.05080049 505.81441153 -420.75404657 495.04606369 -420.73410559 484.34662914 C-420.7295329 480.70920778 -420.73658844 477.07180477 -420.74206543 473.43438721 C-420.75091025 466.3298008 -420.74905948 459.22525689 -420.74324015 452.12066889 C-420.73870419 446.34124563 -420.73811907 440.5618342 -420.74028778 434.78240967 C-420.74059425 433.9565887 -420.74090071 433.13076773 -420.74121647 432.27992189 C-420.74185598 430.60173813 -420.74250441 428.92355438 -420.74316165 427.24537063 C-420.74885056 411.54739591 -420.74232972 395.84944463 -420.73156092 380.15147376 C-420.72262672 366.7122989 -420.72417917 353.27315861 -420.73339844 339.83398438 C-420.74412658 324.18818659 -420.74830137 308.5424093 -420.74217391 292.89660835 C-420.74153688 291.22495652 -420.74090814 289.55330468 -420.74028778 287.88165283 C-420.73982495 286.64826001 -420.73982495 286.64826001 -420.73935278 285.38995016 C-420.73763346 279.62444333 -420.74052439 273.85894962 -420.74524689 268.09344482 C-420.75088409 261.05724827 -420.74928004 254.02109628 -420.7386854 246.98490477 C-420.73346662 243.40211507 -420.73130631 239.81939939 -420.7379837 236.23661041 C-420.79949119 200.17766723 -420.79949119 200.17766723 -415.34765625 184.70703125 C-415.04126221 183.81951172 -414.73486816 182.93199219 -414.41918945 182.01757812 C-408.60426517 165.80573969 -398.42800292 150.74012618 -385.47265625 139.33203125 C-384.65667969 138.61273438 -383.84070313 137.8934375 -383 137.15234375 C-372.78032546 128.76203222 -361.13931212 122.64257719 -349.66552734 116.15429688 C-345.14297679 113.573144 -340.67801214 110.90205737 -336.22265625 108.20703125 C-329.26329956 104.00627485 -322.28534511 99.83944752 -315.28515625 95.70703125 C-314.35815918 95.15974365 -313.43116211 94.61245605 -312.47607422 94.04858398 C-308.32261545 91.59821248 -304.16712702 89.15135642 -300.0078125 86.7109375 C-292.72221752 82.43580695 -285.45844404 78.12851869 -278.22265625 73.76953125 C-268.50366155 67.9148902 -258.71469372 62.18197259 -248.91113281 56.47045898 C-242.13765777 52.51834177 -235.43061678 48.47217485 -228.76147461 44.34570312 C-223.57375247 41.16937381 -218.32429468 38.10069085 -213.07052612 35.0352478 C-211.16672033 33.92439311 -209.26401842 32.81166775 -207.36157227 31.69848633 C-204.85029093 30.2292077 -202.33867631 28.76050243 -199.82666016 27.29248047 C-190.74461476 21.98393304 -181.67136471 16.66346757 -172.65942383 11.23657227 C-108.73966226 -27.24592921 -67.00996372 -40.52255069 0 0 Z M-125.32910156 13.43310547 C-128.5382938 15.3716809 -131.76422752 17.27918152 -134.99609375 19.1796875 C-140.11654095 22.19433442 -145.22639978 25.22629162 -150.33030701 28.26881409 C-156.43307119 31.90619996 -162.54672414 35.52511592 -168.66015625 39.14453125 C-178.60128916 45.03425223 -188.53774842 50.9318175 -198.47265625 56.83203125 C-211.69579141 64.68508084 -224.9243195 72.52896407 -238.15625 80.3671875 C-241.56410359 82.3862103 -244.97157047 84.40588477 -248.37890625 86.42578125 C-258.7397486 92.56753698 -269.1019831 98.70688507 -279.47265625 104.83203125 C-289.12923592 110.53574876 -298.78075316 116.24796829 -308.42677307 121.9695282 C-309.00007858 122.30958389 -309.57338409 122.64963959 -310.1640625 123 C-310.74514267 123.34468826 -311.32622284 123.68937653 -311.9249115 124.04450989 C-315.84090897 126.36664797 -319.75983287 128.68378382 -323.68023682 130.99847412 C-326.52270449 132.67726718 -329.36388156 134.35823717 -332.20489502 136.03948975 C-333.56415849 136.84321115 -334.92395863 137.64602583 -336.28436279 138.44781494 C-357.17179689 150.76024951 -375.02094161 161.85490557 -386.66015625 183.95703125 C-386.98145508 184.54701904 -387.30275391 185.13700684 -387.63378906 185.74487305 C-395.59868705 201.56965098 -395.05902884 218.39235386 -394.99555492 235.65560532 C-394.98641147 239.34212866 -395.00051965 243.02857951 -395.01147461 246.71508789 C-395.0291664 253.91596835 -395.02546185 261.11668107 -395.01382405 268.31756783 C-395.00475294 274.17518605 -395.00358153 280.03275761 -395.00791931 285.89038086 C-395.00853224 286.72730327 -395.00914518 287.56422568 -395.00977668 288.42650938 C-395.01105571 290.12724115 -395.01235257 291.8279729 -395.01366705 293.52870464 C-395.02504548 309.43844666 -395.01200226 325.34809615 -394.99046558 341.25782299 C-394.97259709 354.87895953 -394.97570197 368.49995967 -394.99414062 382.12109375 C-395.01559587 397.97785941 -395.0239471 413.83454418 -395.01169157 429.69132233 C-395.01041751 431.38544209 -395.00916002 433.07956186 -395.00791931 434.77368164 C-395.00730221 435.60699996 -395.00668511 436.44031829 -395.00604931 437.29888868 C-395.00261034 443.14255704 -395.00839322 448.98617365 -395.01783752 454.82983398 C-395.0291108 461.96123354 -395.02590641 469.09245723 -395.00471455 476.2238369 C-394.99427519 479.8553064 -394.9899589 483.48648377 -395.00331116 487.11795044 C-395.05155367 501.41812096 -395.03866518 514.67295197 -390.47265625 528.33203125 C-389.88784683 530.41495072 -389.30427936 532.49821981 -388.72265625 534.58203125 C-382.7981343 551.50923683 -367.87540248 566.44888505 -352.47265625 575.14453125 C-350.95536503 576.01889967 -349.43844429 576.89391127 -347.921875 577.76953125 C-347.1695459 578.20136719 -346.4172168 578.63320313 -345.64208984 579.078125 C-342.49933964 580.89459642 -339.39160993 582.76689083 -336.28515625 584.64453125 C-329.35319641 588.81857463 -322.38822982 592.93582685 -315.41992188 597.04882812 C-308.03721625 601.4065712 -300.65982253 605.77319728 -293.28515625 610.14453125 C-292.15303711 610.81556885 -291.02091797 611.48660645 -289.85449219 612.17797852 C-287.5457048 613.5464974 -285.23695546 614.91508045 -282.92822266 616.28369141 C-277.27675542 619.6337931 -271.62466563 622.98284433 -265.97265625 626.33203125 C-259.74219378 630.02398962 -253.51173888 633.71596044 -247.28190613 637.40898132 C-230.97791425 647.07391464 -214.66599529 656.72529959 -198.34375 666.359375 C-188.07445642 672.42229502 -177.81462847 678.50095226 -167.56155396 684.59124756 C-148.78302058 695.7523812 -148.78302058 695.7523812 -129.97216797 706.85888672 C-127.39714954 708.37653286 -124.82759812 709.90320119 -122.2578125 711.4296875 C-120.57968912 712.41841362 -118.90131461 713.40671368 -117.22265625 714.39453125 C-116.48426514 714.83603516 -115.74587402 715.27753906 -114.98510742 715.73242188 C-99.57373639 724.74962048 -84.16202623 727.17050525 -66.47265625 724.33203125 C-67.15328125 723.83703125 -67.83390625 723.34203125 -68.53515625 722.83203125 C-77.91980898 714.84509276 -82.7498443 706.48663053 -84.47265625 694.33203125 C-84.73923053 690.18674892 -84.74734714 686.05656555 -84.73335266 681.9037323 C-84.73717821 680.6874618 -84.74100376 679.47119131 -84.74494523 678.21806413 C-84.75343496 674.86801067 -84.75305829 671.51817844 -84.74876463 668.16813171 C-84.74628683 664.5449732 -84.75532463 660.92183992 -84.76280212 657.2986908 C-84.77552224 650.21033514 -84.77734615 643.12201742 -84.77500186 636.03365227 C-84.77321543 630.26883776 -84.7749753 624.50403472 -84.7792263 618.73922157 C-84.77982149 617.91727222 -84.78041668 617.09532287 -84.78102991 616.24846596 C-84.78224172 614.5784098 -84.78345585 612.90835365 -84.78467228 611.2382975 C-84.7955376 595.59194694 -84.79339019 579.94561796 -84.78728744 564.2992662 C-84.78211991 550.00470055 -84.79337119 535.71020309 -84.81238566 521.41565093 C-84.8317866 506.71719383 -84.84001606 492.01876895 -84.8362624 477.32029897 C-84.83435369 469.07659461 -84.83680565 460.83294826 -84.85097694 452.58925438 C-84.86292055 445.57074527 -84.86426239 438.55232987 -84.85218678 431.5338194 C-84.84631875 427.95748289 -84.8451406 424.38131754 -84.85718918 420.80499268 C-84.87013479 416.91700514 -84.85953414 413.02927376 -84.84687805 409.14128113 C-84.85425234 408.02646667 -84.86162662 406.91165222 -84.86922437 405.7630555 C-84.755862 389.12385031 -79.50748855 374.80715291 -68.47265625 362.33203125 C-67.78945313 361.55472656 -67.10625 360.77742188 -66.40234375 359.9765625 C-54.68646847 347.486248 -39.61798323 339.07238874 -24.9453125 330.546875 C-19.90172835 327.60691849 -14.95522416 324.53587767 -10.03515625 321.39453125 C-3.10642978 316.97556623 3.87535991 312.65559957 10.90234375 308.39453125 C18.23504574 303.94735513 25.5524975 299.47818885 32.83984375 294.95703125 C40.62212929 290.12919342 48.41421698 285.31768546 56.21484375 280.51953125 C57.30643799 279.84809082 58.39803223 279.17665039 59.52270508 278.48486328 C61.74735199 277.11662793 63.97204296 275.74846421 66.19677734 274.38037109 C71.64101942 271.03209437 77.0841468 267.68200663 82.52734375 264.33203125 C89.08536591 260.29594492 95.64365125 256.26028939 102.203125 252.2265625 C112.99698953 245.58808244 123.78493866 238.94046017 134.5559082 232.26489258 C142.63868285 227.25768023 150.73709161 222.27599254 158.83764648 217.29760742 C164.07596972 214.07693359 169.30998466 210.84983107 174.53125 207.6015625 C175.47162109 207.01697266 176.41199219 206.43238281 177.38085938 205.83007812 C179.11899416 204.74859988 180.85606945 203.66541588 182.59179688 202.58007812 C195.99434972 194.24340392 206.24260368 189.60299059 222.52734375 191.33203125 C228.28461296 193.25908401 232.09571927 196.31658009 235.52734375 201.33203125 C236.50964873 202.34941855 237.50203972 203.35799242 238.52734375 204.33203125 C237.43412556 185.74732197 225.6120512 170.73331968 212.515625 158.5078125 C207.15871768 153.79265252 201.24665908 150.27598493 195.08984375 146.70703125 C193.48786133 145.7634375 193.48786133 145.7634375 191.85351562 144.80078125 C189.73756945 143.55473842 187.61943137 142.31240958 185.49902344 141.07397461 C182.84771096 139.51982455 180.20995344 137.94621274 177.578125 136.359375 C172.07702899 133.04847408 166.5279183 129.82121573 160.9815979 126.58685303 C150.37054462 120.39558199 139.82200976 114.11401888 129.33984375 107.70703125 C119.12039625 101.46134435 108.812555 95.40071925 98.42138672 89.4440918 C91.56020563 85.51092053 84.75080248 81.50743986 77.984375 77.4140625 C74.22755088 75.14321854 70.44039679 72.92525648 66.65234375 70.70703125 C59.66366182 66.61113592 52.71732942 62.44731466 45.77734375 58.26953125 C36.1113266 52.4547314 26.40115038 46.71936839 16.66189575 41.02853394 C9.4716581 36.82683974 2.29265601 32.607564 -4.86328125 28.34765625 C-5.56742661 27.92861023 -6.27157196 27.50956421 -6.99705505 27.07781982 C-10.38718851 25.05959618 -13.775803 23.03887799 -17.16235352 21.01464844 C-23.70778457 17.10934382 -30.28469393 13.26712956 -36.921875 9.51953125 C-37.5593013 9.15851318 -38.1967276 8.79749512 -38.85346985 8.42553711 C-68.60617693 -8.27235877 -97.16970657 -3.59611159 -125.32910156 13.43310547 Z " fill="#3F484B" transform="translate(476.47265625,38.66796875)"/>
<path d="M0 0 C6.2786666 3.79381517 12.58949763 7.53296568 18.90234375 11.26953125 C19.4772052 11.60991425 20.05206665 11.95029724 20.64434814 12.30099487 C33.84126584 20.11490451 47.04493563 27.91742134 60.25390625 35.7109375 C68.90512312 40.81686332 77.54936063 45.93246359 86.15625 51.11279297 C90.41067946 53.67029571 94.68313834 56.195499 98.96484375 58.70703125 C107.29489528 63.5941928 115.59925334 68.52426591 123.90234375 73.45703125 C125.29858223 74.28646128 126.69482247 75.11588836 128.09106445 75.9453125 C129.13113396 76.56315613 129.13113396 76.56315613 130.19221497 77.19348145 C130.88546371 77.60529663 131.57871246 78.01711182 132.29296875 78.44140625 C132.98674118 78.8535437 133.68051361 79.26568115 134.39530945 79.69030762 C148.29060425 87.944128 162.19461537 96.18331553 176.10864258 104.40551758 C177.91213783 105.47129992 179.71536589 106.53753455 181.51831055 107.60424805 C186.08951034 110.30749224 190.6668109 112.99958755 195.25390625 115.67578125 C216.76161887 128.24298988 237.43040922 140.35799964 250.52734375 162.33203125 C251.05448975 163.20746582 251.05448975 163.20746582 251.59228516 164.10058594 C257.14516852 173.44831632 260.70902084 182.83432459 263.52734375 193.33203125 C263.87261423 194.46141145 264.21788471 195.59079165 264.57361794 196.75439548 C266.00500741 202.55370044 265.80997155 208.38796373 265.79476929 214.32810974 C265.7993004 215.62968728 265.80383151 216.93126481 265.80849993 218.27228409 C265.82069081 221.86991822 265.82047408 225.46745908 265.81811118 229.06510913 C265.817702 232.95150668 265.82875207 236.83787473 265.83822632 240.72425842 C265.85481771 248.33426411 265.86033509 255.94423881 265.86145107 263.55426108 C265.86240279 269.74529069 265.86651927 275.93631012 265.87285233 282.1273365 C265.89046259 299.70196931 265.89969197 317.27657772 265.89819138 334.85121941 C265.89807151 336.271493 265.89807151 336.271493 265.89794922 337.72045898 C265.89786746 338.66847242 265.8977857 339.61648586 265.89770146 340.59322698 C265.89688946 355.93927636 265.91600592 371.28522739 265.94422595 386.63124835 C265.97301118 402.40995384 265.98676303 418.18861147 265.9850384 433.96734387 C265.98437626 442.81708719 265.98979055 451.66672749 266.0113945 460.51644707 C266.02968104 468.05532591 266.03389299 475.59405509 266.02037565 483.1329466 C266.01388237 486.97309332 266.01359514 490.81295357 266.03108215 494.65307236 C266.14341981 520.9488401 263.1104059 543.36766989 247.52734375 565.33203125 C247.01945313 566.06292969 246.5115625 566.79382813 245.98828125 567.546875 C230.70316906 588.36625195 208.67223178 599.74564365 186.82714844 612.41699219 C182.80365726 614.75202214 178.78738309 617.09898843 174.77734375 619.45703125 C174.13966064 619.83174561 173.50197754 620.20645996 172.8449707 620.5925293 C165.57383294 624.87658565 158.34754232 629.23572605 151.11425781 633.58325195 C139.20349849 640.73746524 127.24463604 647.8099582 115.2578125 654.8359375 C106.96211507 659.7001014 98.70441691 664.62327994 90.46484375 669.58203125 C80.97155674 675.29406312 71.42859115 680.91384243 61.84985352 686.48120117 C55.9294952 689.92415949 50.03361827 693.40191219 44.16967773 696.93994141 C35.94440442 701.8989139 27.66209544 706.76205244 19.39013672 711.64257812 C15.6788529 713.83276097 11.96880021 716.02502258 8.2590332 718.21777344 C6.44146011 719.29184559 4.62359004 720.36541536 2.80541992 721.43847656 C-1.93414816 724.23637659 -6.6682403 727.04300272 -11.39453125 729.86328125 C-12.37035156 730.44400391 -13.34617187 731.02472656 -14.3515625 731.62304688 C-16.19960845 732.72307423 -18.04609281 733.8257315 -19.890625 734.93164062 C-46.23761683 750.59145845 -73.1567288 756.41912982 -103.109375 748.96044922 C-115.8448836 745.5739617 -126.68857466 739.67910903 -137.91162109 732.87792969 C-140.55265507 731.28374216 -143.20730101 729.71485448 -145.8671875 728.15234375 C-155.66237196 722.39826856 -165.41233683 716.57139386 -175.14428711 710.71118164 C-181.5058749 706.88994464 -187.91962744 703.16540416 -194.35083008 699.46289062 C-199.88579173 696.26922854 -205.37599203 693.00781477 -210.84765625 689.70703125 C-219.07858888 684.74225068 -227.36143255 679.86969233 -235.66015625 675.01953125 C-250.29277526 666.46530563 -264.83200951 657.76042628 -279.33984375 648.99609375 C-291.5420122 641.64097605 -303.85509638 634.47340283 -316.15087891 627.27636719 C-328.80421123 619.86999216 -341.42173517 612.40939929 -353.97509766 604.83447266 C-356.44221966 603.35034081 -358.91587982 601.87762641 -361.390625 600.40625 C-369.55102781 595.52739399 -377.26769501 590.57902948 -384.47265625 584.33203125 C-385.14039063 583.80738281 -385.808125 583.28273438 -386.49609375 582.7421875 C-405.86010931 567.09024607 -417.34789573 540.65590757 -420.05632782 516.47833252 C-421.05080049 505.81441153 -420.75404657 495.04606369 -420.73410559 484.34662914 C-420.7295329 480.70920778 -420.73658844 477.07180477 -420.74206543 473.43438721 C-420.75091025 466.3298008 -420.74905948 459.22525689 -420.74324015 452.12066889 C-420.73870419 446.34124563 -420.73811907 440.5618342 -420.74028778 434.78240967 C-420.74059425 433.9565887 -420.74090071 433.13076773 -420.74121647 432.27992189 C-420.74185598 430.60173813 -420.74250441 428.92355438 -420.74316165 427.24537063 C-420.74885056 411.54739591 -420.74232972 395.84944463 -420.73156092 380.15147376 C-420.72262672 366.7122989 -420.72417917 353.27315861 -420.73339844 339.83398438 C-420.74412658 324.18818659 -420.74830137 308.5424093 -420.74217391 292.89660835 C-420.74153688 291.22495652 -420.74090814 289.55330468 -420.74028778 287.88165283 C-420.73982495 286.64826001 -420.73982495 286.64826001 -420.73935278 285.38995016 C-420.73763346 279.62444333 -420.74052439 273.85894962 -420.74524689 268.09344482 C-420.75088409 261.05724827 -420.74928004 254.02109628 -420.7386854 246.98490477 C-420.73346662 243.40211507 -420.73130631 239.81939939 -420.7379837 236.23661041 C-420.79949119 200.17766723 -420.79949119 200.17766723 -415.34765625 184.70703125 C-415.04126221 183.81951172 -414.73486816 182.93199219 -414.41918945 182.01757812 C-408.60426517 165.80573969 -398.42800292 150.74012618 -385.47265625 139.33203125 C-384.65667969 138.61273438 -383.84070313 137.8934375 -383 137.15234375 C-372.78032546 128.76203222 -361.13931212 122.64257719 -349.66552734 116.15429688 C-345.14297679 113.573144 -340.67801214 110.90205737 -336.22265625 108.20703125 C-329.26329956 104.00627485 -322.28534511 99.83944752 -315.28515625 95.70703125 C-314.35815918 95.15974365 -313.43116211 94.61245605 -312.47607422 94.04858398 C-308.32261545 91.59821248 -304.16712702 89.15135642 -300.0078125 86.7109375 C-292.72221752 82.43580695 -285.45844404 78.12851869 -278.22265625 73.76953125 C-268.50366155 67.9148902 -258.71469372 62.18197259 -248.91113281 56.47045898 C-242.13765777 52.51834177 -235.43061678 48.47217485 -228.76147461 44.34570312 C-223.57375247 41.16937381 -218.32429468 38.10069085 -213.07052612 35.0352478 C-211.16672033 33.92439311 -209.26401842 32.81166775 -207.36157227 31.69848633 C-204.85029093 30.2292077 -202.33867631 28.76050243 -199.82666016 27.29248047 C-190.74461476 21.98393304 -181.67136471 16.66346757 -172.65942383 11.23657227 C-108.73966226 -27.24592921 -67.00996372 -40.52255069 0 0 Z M-104.47265625 -15.66796875 C-105.42398437 -15.38566406 -106.3753125 -15.10335938 -107.35546875 -14.8125 C-117.77107115 -11.33619281 -126.8818921 -5.29259712 -136.21533203 0.37109375 C-142.24509382 4.00106277 -148.3318498 7.53417346 -154.41015625 11.08203125 C-162.22963605 15.64862875 -170.02610663 20.24982065 -177.78630066 24.91654968 C-184.74892831 29.10312544 -191.73526081 33.24946979 -198.72265625 37.39453125 C-200.12200102 38.22499591 -201.52133346 39.05548134 -202.9206543 39.88598633 C-214.99587319 47.05197671 -227.07534008 54.21079628 -239.15625 61.3671875 C-242.56410359 63.3862103 -245.97157047 65.40588477 -249.37890625 67.42578125 C-259.7397486 73.56753698 -270.1019831 79.70688507 -280.47265625 85.83203125 C-291.30236936 92.22866716 -302.12469899 98.63772313 -312.94303894 105.05357361 C-316.12990281 106.94343503 -319.31726417 108.83245104 -322.50537109 110.72021484 C-331.2645755 115.9069107 -340.01922965 121.10112562 -348.76330566 126.31329346 C-350.33889165 127.2523103 -351.91502598 128.19040689 -353.49121094 129.12841797 C-361.84383375 134.11060448 -370.04512504 139.01006548 -377.47265625 145.33203125 C-378.11847656 145.83476562 -378.76429688 146.3375 -379.4296875 146.85546875 C-394.04931215 158.6780449 -403.56593183 176.47383654 -408.47265625 194.33203125 C-408.64632896 194.94959465 -408.82000167 195.56715804 -408.99893719 196.20343548 C-410.69959532 202.9068703 -410.7607768 209.40222768 -410.74681091 216.28977966 C-410.75204759 217.57517185 -410.75728427 218.86056403 -410.76267964 220.1849075 C-410.77678456 223.73274088 -410.77852436 227.28048635 -410.77808273 230.82834375 C-410.77973765 234.66293971 -410.79281689 238.49750016 -410.80427551 242.33207703 C-410.82707461 250.70851812 -410.83504095 259.08493379 -410.84010196 267.4614017 C-410.84336556 272.69912068 -410.84989212 277.93683236 -410.85710335 283.1745472 C-410.87666433 297.69717769 -410.89307091 312.21980143 -410.89597988 326.74244595 C-410.89616745 327.67086689 -410.89635502 328.59928784 -410.89654827 329.55584276 C-410.89691451 331.43771462 -410.89727821 333.31958647 -410.89763939 335.20145833 C-410.8978222 336.13553128 -410.89800501 337.06960423 -410.89819336 338.03198242 C-410.89837391 338.96720559 -410.89855446 339.90242875 -410.89874048 340.86599202 C-410.90227866 356.00439514 -410.92928103 371.1426557 -410.96669125 386.28100943 C-411.00485706 401.85069973 -411.02413797 417.42031945 -411.02443939 432.99005753 C-411.02502218 441.72079834 -411.03339801 450.45136916 -411.06243706 459.18206596 C-411.08706215 466.61953777 -411.09415948 474.05677761 -411.07918953 481.49427926 C-411.07206521 485.28196492 -411.07268147 489.0691936 -411.09560013 492.85682678 C-411.20376821 511.84918169 -410.4710404 529.18293683 -401.47265625 546.33203125 C-400.84617187 547.59660156 -400.84617187 547.59660156 -400.20703125 548.88671875 C-389.04523777 570.53569183 -371.95915808 583.35748132 -351.47265625 595.33203125 C-350.05476265 596.16651013 -348.63720641 597.00156247 -347.2199707 597.8371582 C-344.34690229 599.53027842 -341.47224627 601.22064942 -338.59619141 602.90869141 C-332.60599198 606.42622562 -326.63391062 609.97416105 -320.66015625 613.51953125 C-318.45585609 614.82573506 -316.25142946 616.13172544 -314.046875 617.4375 C-308.48299184 620.73341947 -302.919501 624.03000032 -297.35620117 627.3269043 C-295.11030183 628.65784963 -292.86437111 629.98874202 -290.6184082 631.31958008 C-285.46310864 634.3743641 -280.30799519 637.4294605 -275.15368652 640.48591614 C-264.17824666 646.99419865 -253.20156362 653.49991461 -242.19677734 659.95849609 C-237.14686632 662.92599554 -232.12266352 665.93477886 -227.10522461 668.95678711 C-223.35013206 671.21533096 -219.57993566 673.44557051 -215.79663086 675.65649414 C-207.89891949 680.27203975 -200.0732597 684.99971458 -192.2644043 689.76348877 C-183.7469982 694.9588822 -175.2342645 700.12924499 -166.49365234 704.94384766 C-160.25184746 708.40345908 -154.14847606 712.08884578 -148.03515625 715.76953125 C-146.42000122 716.74007446 -146.42000122 716.74007446 -144.7722168 717.73022461 C-139.99902508 720.6002391 -135.23098372 723.47790347 -130.4765625 726.37890625 C-122.98747102 730.91558306 -115.88014918 734.71605591 -107.47265625 737.33203125 C-106.094492 737.86559576 -104.71924545 738.40678509 -103.34765625 738.95703125 C-95.41166895 741.89969663 -87.77867155 742.69321243 -79.34765625 742.64453125 C-78.33719238 742.6396167 -77.32672852 742.63470215 -76.28564453 742.62963867 C-50.46122716 742.22825485 -29.65305627 729.80480665 -8.1953125 716.78125 C-0.79760014 712.30128126 6.67608101 707.95078674 14.14489746 703.59082031 C21.41328227 699.34770938 28.65764943 695.06857339 35.8699646 690.73075867 C42.71862247 686.61200356 49.59121613 682.53393196 56.46484375 678.45703125 C57.84751474 677.6365918 59.23016396 676.81611566 60.61279297 675.99560547 C62.75766957 674.7227597 64.90256551 673.44994665 67.04754639 672.17727661 C72.01433081 669.23031224 76.98011666 666.28167126 81.9453125 663.33203125 C96.27384301 654.82034645 110.60804433 646.31856076 124.96044922 637.84716797 C139.13978412 629.47766517 153.31374142 621.09907908 167.47445679 612.69810486 C168.04749542 612.35815994 168.62053406 612.01821503 169.2109375 611.66796875 C169.79162994 611.32347183 170.37232239 610.97897491 170.97061157 610.6240387 C174.90600561 608.29045574 178.8452853 605.96354037 182.78649902 603.63980103 C185.64861427 601.95166305 188.50912474 600.26081689 191.3694458 598.56964111 C192.74223174 597.7588293 194.11570194 596.94917465 195.4899292 596.14080811 C222.5318896 580.23097247 245.26770225 562.16571625 253.52734375 530.33203125 C255.82064215 521.16922987 256.96496586 512.60878709 256.9150238 503.1728363 C256.92040934 501.92612422 256.92579488 500.67941213 256.93134362 499.39492089 C256.94306889 495.97804104 256.94160277 492.56165645 256.9341768 489.14479768 C256.92940839 485.44247208 256.94198743 481.74019661 256.95219421 478.03788757 C256.96931865 470.80032656 256.97023516 463.56285261 256.96498131 456.32527661 C256.96092496 450.43476373 256.9624005 444.5442764 256.96772957 438.65376472 C256.96847799 437.81246423 256.96922641 436.97116373 256.96999751 436.10436927 C256.97152915 434.3947091 256.9730675 432.68504893 256.97461248 430.97538877 C256.98831561 414.97014468 256.9829162 398.96494957 256.97142727 382.95970661 C256.96150654 368.3603849 256.97441937 353.76119013 256.99836146 339.161888 C257.02282683 324.12877526 257.03234156 309.09572145 257.02570873 294.06258923 C257.02223177 285.63982234 257.02434659 277.21715287 257.04195976 268.79440117 C257.05677555 261.62101758 257.0571966 254.44779996 257.03988885 247.2744193 C257.03145102 243.62411124 257.02904868 239.97409842 257.04454041 236.32380676 C257.16613133 205.48213722 253.68876434 176.47493143 231.59375 153.2734375 C230.57746406 152.28690688 229.554423 151.30731993 228.52734375 150.33203125 C227.81400879 149.64125488 227.10067383 148.95047852 226.36572266 148.23876953 C220.30238168 142.54736822 213.96744939 138.22494476 206.77734375 134.08203125 C205.68679688 133.44072266 204.59625 132.79941406 203.47265625 132.13867188 C201.23522824 130.82398825 198.99500204 129.51405477 196.75195312 128.20898438 C192.88879291 125.96034903 189.04070355 123.68694304 185.1940918 121.41015625 C183.40481489 120.35130008 181.61459997 119.29402751 179.82348633 118.23828125 C173.0144089 114.22384261 166.23673548 110.15881242 159.46484375 106.08203125 C149.74341506 100.23218277 139.97158493 94.47395168 130.17575073 88.75012207 C120.73975266 83.23500964 111.35292702 77.64365935 101.99145508 72.00268555 C93.93420157 67.15602936 85.83218147 62.3895064 77.71484375 57.64453125 C68.79314039 52.42895601 59.89438347 47.17952497 51.04150391 41.84765625 C33.29428499 31.16395318 15.43487081 20.66799762 -2.44970703 10.21630859 C-7.99504244 6.97345025 -13.52654452 3.71359932 -19.00463867 0.3581543 C-44.44170574 -15.19427709 -74.73154284 -25.90464093 -104.47265625 -15.66796875 Z " fill="#F9FAFA" transform="translate(476.47265625,38.66796875)"/>
<path d="M0 0 C1 1 1 1 1.11352539 3.04125977 C1.10828857 3.91580811 1.10305176 4.79035645 1.09765625 5.69140625 C1.09443359 6.63564453 1.09121094 7.57988281 1.08789062 8.55273438 C1.07532227 10.04256836 1.07532227 10.04256836 1.0625 11.5625 C1.05798828 12.55958984 1.05347656 13.55667969 1.04882812 14.58398438 C1.03700007 17.05604849 1.02051849 19.52799518 1 22 C1.98226562 21.67386719 2.96453125 21.34773438 3.9765625 21.01171875 C8.14819754 19.82117404 12.0621568 19.7370451 16.375 19.8125 C17.09816406 19.81314453 17.82132813 19.81378906 18.56640625 19.81445312 C23.85913848 19.85913848 23.85913848 19.85913848 25 21 C25.08318077 29.56761956 22.88817267 37.98940787 20 46 C17.17313037 48.82686963 14.40699191 48.24884919 10.625 48.3125 C1.79985099 48.64920847 -6.64403647 50.47225367 -13 57 C-13.66 57 -14.32 57 -15 57 C-15.2475 57.53625 -15.495 58.0725 -15.75 58.625 C-17 61 -17 61 -19.0625 64 C-22.60569393 69.48623577 -22.87362752 75.59023286 -22 82 C-19.7984026 84.89683868 -18.21405538 86.39297231 -15 88 C-12.87621185 88.11298971 -10.75186669 88.2202398 -8.6262207 88.29003906 C3.57461972 88.69437127 15.7998293 89.52721705 24.75390625 98.8203125 C32.06811304 107.80885579 31.55004373 117.97667463 31 129 C30.59198588 132.10824242 29.88231994 134.99682405 29 138 C28.67322266 139.33804688 28.67322266 139.33804688 28.33984375 140.703125 C24.94458648 154.28415409 17.49897439 165.44648992 8.125 175.75 C7.64861084 176.27561523 7.17222168 176.80123047 6.68139648 177.34277344 C5.49934432 178.605608 4.2543764 179.80897594 3 181 C2.34 181 1.68 181 1 181 C1.02618408 181.73637695 1.05236816 182.47275391 1.0793457 183.23144531 C1.18333686 186.57074616 1.2483341 189.90970655 1.3125 193.25 C1.35439453 194.40886719 1.39628906 195.56773437 1.43945312 196.76171875 C1.56340591 205.3392517 1.56340591 205.3392517 -1.23828125 208.625 C-2.14964844 209.07875 -3.06101562 209.5325 -4 210 C-4.7528125 210.48984375 -5.505625 210.9796875 -6.28125 211.484375 C-7.0134375 211.90203125 -7.745625 212.3196875 -8.5 212.75 C-9.2321875 213.17796875 -9.964375 213.6059375 -10.71875 214.046875 C-13 215 -13 215 -18 215 C-18 207.74 -18 200.48 -18 193 C-21.155625 193.99 -21.155625 193.99 -24.375 195 C-31.9452892 197.23906235 -39.69619494 198.8953627 -47 195 C-47.21127632 189.4849596 -46.47992392 184.66548488 -45.1875 179.3125 C-44.9390332 178.19391602 -44.9390332 178.19391602 -44.68554688 177.05273438 C-42.83138919 169.20929752 -42.83138919 169.20929752 -40 167 C-37.00807327 166.7820253 -34.3457871 166.77130632 -31.375 166.9375 C-20.27815497 167.22920479 -12.78108197 165.07778358 -4 158 C2.75772422 151.46311644 6.06728944 144.44767206 6.375 135.0625 C6.34371207 130.78126852 6.31295893 129.43466519 3.75 125.875 C-0.50758272 122.97210269 -3.31727338 121.76666144 -8.5078125 121.54296875 C-9.57773437 121.48173828 -10.64765625 121.42050781 -11.75 121.35742188 C-13.97605807 121.24534603 -16.20266089 121.14355284 -18.4296875 121.05273438 C-26.83279418 120.54513044 -34.12980144 118.91789467 -40.21875 112.75390625 C-40.6415625 112.03074219 -41.064375 111.30757812 -41.5 110.5625 C-41.9434375 109.84191406 -42.386875 109.12132812 -42.84375 108.37890625 C-48.28809855 97.17752697 -46.92214063 81.84553701 -44 70 C-39.18297693 56.93014481 -30.80929048 43.85549854 -20 35 C-19.34 35 -18.68 35 -18 35 C-18.02094727 34.26362305 -18.04189453 33.52724609 -18.06347656 32.76855469 C-18.14667144 29.42917558 -18.19867157 26.09001451 -18.25 22.75 C-18.30027344 21.01169922 -18.30027344 21.01169922 -18.3515625 19.23828125 C-18.36445313 18.12324219 -18.37734375 17.00820313 -18.390625 15.859375 C-18.41157227 14.83295898 -18.43251953 13.80654297 -18.45410156 12.74902344 C-17.74509455 8.45686271 -15.1048795 6.86176648 -11.81640625 4.296875 C-11.07261719 3.78640625 -10.32882812 3.2759375 -9.5625 2.75 C-8.82128906 2.22921875 -8.08007812 1.7084375 -7.31640625 1.171875 C-4.65038235 -0.17687234 -2.94975721 -0.30357707 0 0 Z " fill="#F9F9F9" transform="translate(499,439)"/>
<path d="M0 0 C1.48894549 6.40384424 2.63895514 12.76573812 0 19 C-6.49105716 25.8362945 -15.7033073 29.78195094 -24 34 C-26.46042358 35.36018101 -28.88339617 36.7712483 -31.3125 38.1875 C-32.35792969 38.77015625 -33.40335938 39.3528125 -34.48046875 39.953125 C-39.99164561 43.09118486 -45.29373624 46.59390582 -50.60668945 50.0534668 C-51.37843506 50.55015869 -52.15018066 51.04685059 -52.9453125 51.55859375 C-53.63125488 52.00517334 -54.31719727 52.45175293 -55.02392578 52.91186523 C-57.0184056 54.01013513 -58.77564617 54.55755444 -61 55 C-61 55.66 -61 56.32 -61 57 C-62.32 57 -63.64 57 -65 57 C-65.2631068 53.79324529 -65.4216804 50.58926334 -65.5625 47.375 C-65.63791016 46.47136719 -65.71332031 45.56773437 -65.79101562 44.63671875 C-66.00529568 38.11308164 -66.00529568 38.11308164 -63.49487305 35.33349609 C-61.07944496 33.68869511 -58.58894077 32.35679873 -56 31 C-54.24346283 29.95041855 -52.48729796 28.90015159 -50.73820496 27.83821106 C-47.40549455 25.82094285 -44.044056 23.85224112 -40.6875 21.875 C-37.8314063 20.18985897 -34.97604815 18.50347668 -32.12109375 16.81640625 C-31.42142487 16.4032164 -30.72175598 15.99002655 -30.00088501 15.5643158 C-25.8455807 13.1060983 -21.71223528 10.61592057 -17.59765625 8.08984375 C-16.67831299 7.5273291 -15.75896973 6.96481445 -14.81176758 6.38525391 C-13.14960358 5.36479642 -11.49160338 4.33751352 -9.83862305 3.30224609 C-9.11328369 2.8583252 -8.38794434 2.4144043 -7.640625 1.95703125 C-7.02735352 1.57522705 -6.41408203 1.19342285 -5.78222656 0.80004883 C-4 0 -4 0 0 0 Z " fill="#46B052" transform="translate(626,571)"/>
<path d="M0 0 C0.66 0.33 1.32 0.66 2 1 C-3.28 6.28 -8.56 11.56 -14 17 C-14.66 16.67 -15.32 16.34 -16 16 C-14.27538679 14.07906479 -12.54557391 12.163278 -10.8125 10.25 C-10.32974609 9.71117187 -9.84699219 9.17234375 -9.34960938 8.6171875 C-6.43837795 5.41287909 -3.47293499 2.6158121 0 0 Z " fill="#D7D9D9" transform="translate(114,193)"/>
<path d="M0 0 C0.66 0.33 1.32 0.66 2 1 C-2.62 5.62 -7.24 10.24 -12 15 C-12.66 14.67 -13.32 14.34 -14 14 C-9.72706118 8.76564995 -5.18419194 4.32893185 0 0 Z " fill="#60686A" transform="translate(102,181)"/>
</svg>
