<?xml version="1.0" encoding="UTF-8"?>
<svg version="1.1" xmlns="http://www.w3.org/2000/svg" width="400" height="339">
<path d="M0 0 C1.4540625 0.0309375 1.4540625 0.0309375 2.9375 0.0625 C3.31261719 1.07828125 3.68773437 2.0940625 4.07421875 3.140625 C8.12598854 14.18462076 8.12598854 14.18462076 12.61962891 25.05151367 C13.46418877 26.98110924 14.26375193 28.93140994 15.00415039 30.90332031 C16.93421746 35.33810475 18.40461777 38.34659069 22.89990234 40.44604492 C26.55190219 41.36176639 30.14655686 41.97771129 33.875 42.5 C35.19273168 42.72165772 36.50956255 42.94873698 37.82543945 43.18115234 C40.38828085 43.62838105 42.95363108 44.06151254 45.52148438 44.47900391 C55.36148716 46.1597934 64.80674368 49.04306827 73.9375 53.0625 C74.67097656 53.36929688 75.40445313 53.67609375 76.16015625 53.9921875 C94.90695686 61.99346748 110.84927165 73.78502419 121.9375 91.0625 C121.9375 92.3825 121.9375 93.7025 121.9375 95.0625 C120.86757813 95.28164062 119.79765625 95.50078125 118.6953125 95.7265625 C93.53368955 100.92496671 68.62638547 106.93869146 43.9375 114.0625 C44.09903564 114.88057129 44.26057129 115.69864258 44.42700195 116.54150391 C45.00244281 120.51042213 45.09953363 124.39816768 45.10546875 128.3984375 C45.11046135 129.59395737 45.11046135 129.59395737 45.11555481 130.81362915 C45.12060179 132.49960762 45.12296383 134.18559601 45.12280273 135.87158203 C45.12496364 138.39503513 45.14307157 140.91803183 45.16210938 143.44140625 C45.21304862 157.54291263 44.19831802 171.17671589 40.3125 184.8125 C40.05452637 185.73369629 39.79655273 186.65489258 39.53076172 187.60400391 C35.75752432 200.62890776 30.54964527 213.06681004 24.625 225.25 C24.29967285 225.92788574 23.9743457 226.60577148 23.63916016 227.30419922 C21.30045648 231.94151451 21.30045648 231.94151451 17.9375 233.0625 C15.93227855 232.97817583 13.93000547 232.81519981 11.93359375 232.609375 C10.72719238 232.48667236 9.52079102 232.36396973 8.27783203 232.23754883 C6.34593018 232.02714966 6.34593018 232.02714966 4.375 231.8125 C3.71723572 231.74114838 3.05947144 231.66979675 2.3817749 231.59628296 C-2.10228799 231.10700193 -6.58268732 230.58942803 -11.0625 230.0625 C-11.97209473 229.95953613 -12.88168945 229.85657227 -13.81884766 229.75048828 C-37.78486627 226.92540757 -60.72104355 218.07452293 -77.0625 199.875 C-80.79767513 194.62240998 -81.82263022 189.44518072 -81.0625 183.0625 C-79.03469406 174.45710505 -73.51216738 166.92583398 -67.0625 161.0625 C-66.31871094 160.38445312 -65.57492188 159.70640625 -64.80859375 159.0078125 C-60.89258245 155.45649843 -56.94173441 151.95138153 -52.9375 148.5 C-47.53613975 143.77517376 -42.26964089 139.00015948 -38.1875 133.0625 C-37.48625 132.0725 -36.785 131.0825 -36.0625 130.0625 C-35.4025 130.0625 -34.7425 130.0625 -34.0625 130.0625 C-33.79953125 129.3303125 -33.5365625 128.598125 -33.265625 127.84375 C-32.05397562 125.04279429 -30.6542178 122.98493962 -28.8125 120.5625 C-18.70243205 106.44217545 -14.40202793 90.37996255 -16.8125 73.125 C-19.49006301 58.85045955 -27.17033425 49.65316252 -37.4296875 39.63671875 C-39.75621863 37.36196502 -42.03834268 35.07376184 -44.25 32.6875 C-44.80042969 32.10226563 -45.35085937 31.51703125 -45.91796875 30.9140625 C-47.46124218 28.41743587 -47.51923296 26.94760522 -47.0625 24.0625 C-38.13121623 12.85088845 -22.2398109 7.73494238 -9.28125 3.02954102 C-1.03703375 0.02116395 -1.03703375 0.02116395 0 0 Z M-10.875 7.8125 C-11.68259766 8.16054687 -12.49019531 8.50859375 -13.32226562 8.8671875 C-17.7386196 10.82036616 -21.43406761 12.79470288 -25.0625 16.0625 C-18.56862954 17.58192035 -12.09963572 18.73846948 -5.5 19.6875 C-4.13004883 19.88859375 -4.13004883 19.88859375 -2.73242188 20.09375 C-0.50952769 20.41961931 1.71375665 20.74248618 3.9375 21.0625 C3.65311048 19.16556139 3.35966208 17.26997973 3.0625 15.375 C2.90007812 14.31925781 2.73765625 13.26351563 2.5703125 12.17578125 C1.97856931 9.26455086 1.1343194 6.77294393 -0.0625 4.0625 C-3.88695859 4.0625 -7.42526477 6.28169695 -10.875 7.8125 Z M-36.125 22.875 C-36.94677734 23.65810547 -36.94677734 23.65810547 -37.78515625 24.45703125 C-39.37380154 26.11183255 -39.37380154 26.11183255 -39.0625 29.0625 C-37.31614835 29.59543835 -35.56522348 30.11340663 -33.8125 30.625 C-32.83796875 30.91503906 -31.8634375 31.20507812 -30.859375 31.50390625 C-28.10006068 32.05499836 -26.6712176 32.00039609 -24.0625 31.0625 C-25.37105553 29.22634919 -26.68444462 27.39364211 -28 25.5625 C-29.09634766 24.03109375 -29.09634766 24.03109375 -30.21484375 22.46875 C-30.82457031 21.6746875 -31.43429688 20.880625 -32.0625 20.0625 C-33.86521782 20.0625 -34.89205516 21.67703232 -36.125 22.875 Z M-26.0625 21.0625 C-24.0825 23.3725 -22.1025 25.6825 -20.0625 28.0625 C-19.093125 29.2175 -18.12375 30.3725 -17.125 31.5625 C-14.30657031 34.34796228 -14.30657031 34.34796228 -10.875 34.3125 C-5.54192718 33.0272775 -0.73939828 29.82804383 3.9375 27.0625 C3.9375 26.7325 3.9375 26.4025 3.9375 26.0625 C-5.9625 24.4125 -15.8625 22.7625 -26.0625 21.0625 Z M6.9375 29.0625 C5.43462782 30.20456358 3.93526716 31.35124957 2.4375 32.5 C1.6021875 33.13808594 0.766875 33.77617188 -0.09375 34.43359375 C-0.7434375 34.97113281 -1.393125 35.50867187 -2.0625 36.0625 C-2.0625 36.3925 -2.0625 36.7225 -2.0625 37.0625 C2.5575 37.7225 7.1775 38.3825 11.9375 39.0625 C10.11105948 33.46717777 10.11105948 33.46717777 6.9375 29.0625 Z M-31.0625 37.0625 C-30.13112408 38.35858947 -29.1921434 39.64921632 -28.25 40.9375 C-27.46689453 42.01644531 -27.46689453 42.01644531 -26.66796875 43.1171875 C-25.02977223 45.29278655 -25.02977223 45.29278655 -22.0625 47.0625 C-22.7225 44.0925 -23.3825 41.1225 -24.0625 38.0625 C-26.3725 37.7325 -28.6825 37.4025 -31.0625 37.0625 Z M-19.0625 40.0625 C-17.4125 45.3425 -15.7625 50.6225 -14.0625 56.0625 C-12.33 54.7321875 -12.33 54.7321875 -10.5625 53.375 C-6.53952382 50.35058398 -2.37407014 47.65402886 1.9375 45.0625 C-1.29211572 42.90942286 -3.67377654 42.29015131 -7.4375 41.4375 C-8.55898437 41.17710938 -9.68046875 40.91671875 -10.8359375 40.6484375 C-14.33586775 39.91360351 -14.33586775 39.91360351 -19.0625 40.0625 Z M0 50.875 C-0.64646484 51.42220703 -1.29292969 51.96941406 -1.95898438 52.53320312 C-2.57966797 53.06494141 -3.20035156 53.59667969 -3.83984375 54.14453125 C-4.69437134 54.87506714 -4.69437134 54.87506714 -5.56616211 55.62036133 C-7.30305528 57.19131955 -7.30305528 57.19131955 -9.0625 60.0625 C-2.76945459 62.20578358 3.56017685 64.18525039 9.9375 66.0625 C10.22057925 58.81252578 9.44724035 52.15288772 7.9375 45.0625 C5.3469828 45.0625 2.01551953 49.14313139 0 50.875 Z M11.9375 46.0625 C12.246875 47.155625 12.55625 48.24875 12.875 49.375 C14.1838099 54.54526323 14.56676347 59.75511392 14.9375 65.0625 C15.66453125 64.62679687 16.3915625 64.19109375 17.140625 63.7421875 C24.26246306 59.52386804 31.48769103 55.66852455 38.9375 52.0625 C36.70444495 49.82944495 35.80577754 49.62471876 32.796875 48.9921875 C31.97316406 48.81816406 31.14945313 48.64414062 30.30078125 48.46484375 C29.43839844 48.29082031 28.57601562 48.11679687 27.6875 47.9375 C26.84058594 47.75574219 25.99367188 47.57398438 25.12109375 47.38671875 C20.6549075 46.46291973 16.52521091 45.83761221 11.9375 46.0625 Z M-22.0625 47.0625 C-21.0625 49.0625 -21.0625 49.0625 -21.0625 49.0625 Z M48.9375 53.0625 C48.12459249 56.14572604 47.31224556 59.22909951 46.5 62.3125 C46.15485352 63.62154297 46.15485352 63.62154297 45.80273438 64.95703125 C45.58037109 65.80136719 45.35800781 66.64570312 45.12890625 67.515625 C44.82255249 68.67819824 44.82255249 68.67819824 44.51000977 69.86425781 C43.97272409 71.9272515 43.45065644 73.99338729 42.9375 76.0625 C47.75892544 74.68148869 52.54304708 73.20764266 57.29296875 71.59765625 C58.06721191 71.33549316 58.84145508 71.07333008 59.63916016 70.80322266 C61.17800068 70.27966678 62.71551287 69.7521852 64.25146484 69.22021484 C69.4192228 67.46279089 74.58778852 66.14317803 79.9375 65.0625 C76.6886781 62.32205121 73.5021912 61.0105486 69.5 59.625 C68.27152344 59.19960938 67.04304688 58.77421875 65.77734375 58.3359375 C60.19866134 56.4664173 54.57680338 54.73930283 48.9375 53.0625 Z M35.3125 58.1875 C34.68456543 58.59476318 34.05663086 59.00202637 33.40966797 59.42163086 C28.77095728 62.45490997 24.30905328 65.65268844 19.9375 69.0625 C22.78052222 71.55014445 25.69644033 73.6220859 29 75.4375 C29.65097656 75.79585937 30.30195313 76.15421875 30.97265625 76.5234375 C32.96111324 77.27286136 32.96111324 77.27286136 34.94018555 76.33203125 C37.29231123 74.8369752 37.82957099 73.84651069 38.859375 71.2890625 C39.31376953 70.1753125 39.31376953 70.1753125 39.77734375 69.0390625 C40.07769531 68.26304688 40.37804687 67.48703125 40.6875 66.6875 C41.00332031 65.91921875 41.31914062 65.1509375 41.64453125 64.359375 C43.15700982 60.57490482 43.9375 58.23635504 43.9375 54.0625 C40.57657672 54.0625 38.05045831 56.39439036 35.3125 58.1875 Z M-11.0625 68.0625 C-10.7325 74.3325 -10.4025 80.6025 -10.0625 87.0625 C-4.46173998 82.3045634 -4.46173998 82.3045634 0.875 77.3125 C1.46152344 76.74015625 2.04804688 76.1678125 2.65234375 75.578125 C4.15307833 74.13945259 4.15307833 74.13945259 3.9375 72.0625 C2.00191401 71.39029649 0.06395628 70.72491923 -1.875 70.0625 C-3.49341797 69.505625 -3.49341797 69.505625 -5.14453125 68.9375 C-8.03370802 67.91888488 -8.03370802 67.91888488 -11.0625 68.0625 Z M87.9375 68.0625 C87.525 68.95710938 87.1125 69.85171875 86.6875 70.7734375 C82.50371138 79.61691916 77.83475287 87.36182098 70.69921875 94.2109375 C68.70772946 95.87802743 68.70772946 95.87802743 68.9375 98.0625 C68.2775 98.0625 67.6175 98.0625 66.9375 98.0625 C66.9375 98.7225 66.9375 99.3825 66.9375 100.0625 C67.62038086 99.92674561 68.30326172 99.79099121 69.00683594 99.65112305 C81.62161846 97.1545794 94.20680781 94.68295708 106.96777344 93.05151367 C111.4093106 92.58158237 111.4093106 92.58158237 114.9375 90.0625 C107.03266886 81.56603909 98.55417665 74.55312902 88.9375 68.0625 C88.6075 68.0625 88.2775 68.0625 87.9375 68.0625 Z M69.9375 72.0625 C68.96200195 72.44293457 67.98650391 72.82336914 66.98144531 73.21533203 C63.67036651 74.5067631 60.36611939 75.81461517 57.0625 77.125 C55.92296875 77.57166016 54.7834375 78.01832031 53.609375 78.47851562 C52.52398437 78.90970703 51.43859375 79.34089844 50.3203125 79.78515625 C48.84135498 80.36922241 48.84135498 80.36922241 47.33251953 80.96508789 C44.81941731 81.94839253 44.81941731 81.94839253 42.9375 84.0625 C43.4221875 84.45179687 43.906875 84.84109375 44.40625 85.2421875 C50.05023639 89.95274537 54.50985946 95.21000705 58.9375 101.0625 C62.94223203 97.42183452 65.85580447 93.42846958 68.89453125 88.9609375 C71.6633243 85.03274544 74.63340678 81.27049564 77.64916992 77.52929688 C79.80914333 74.79060086 81.47928132 72.57550987 81.9375 69.0625 C77.36281342 69.0625 74.09939775 70.38827827 69.9375 72.0625 Z M13.9375 77.0625 C13.75574219 77.60777344 13.57398438 78.15304688 13.38671875 78.71484375 C11.5703125 84.1640625 9.75390625 89.61328125 7.9375 95.0625 C10.16985697 93.81793833 12.39829662 92.5671061 14.625 91.3125 C15.56375977 90.79042969 15.56375977 90.79042969 16.52148438 90.2578125 C20.27494549 88.13543658 23.63609272 85.86522435 26.9375 83.0625 C25.14868264 82.05741199 23.35635304 81.05857264 21.5625 80.0625 C20.56476563 79.505625 19.56703125 78.94875 18.5390625 78.375 C16.12554491 76.91235732 16.12554491 76.91235732 13.9375 77.0625 Z M4.58984375 80.34765625 C4.02394531 80.93417969 3.45804688 81.52070312 2.875 82.125 C-0.92484058 85.98790848 -4.94492397 89.54384412 -9.0625 93.0625 C-6.48465154 95.71002004 -4.14601902 98.00682065 -1.0625 100.0625 C2.67103242 93.12376522 5.63771649 86.86120106 6.9375 79.0625 C5.74774746 78.94747893 5.74774746 78.94747893 4.58984375 80.34765625 Z M34.9375 89.0625 C33.65644332 90.71190656 33.65644332 90.71190656 32.375 92.875 C27.01698606 101.19367689 20.40728716 108.59736097 13.9375 116.0625 C17.66361234 115.65967704 20.95310639 114.75045991 24.4375 113.4375 C33.79771413 109.91273317 43.39767575 107.05687119 52.9375 104.0625 C51.62063741 101.06101686 50.32854261 99.27918946 47.75 97.265625 C46.82574219 96.54052734 46.82574219 96.54052734 45.8828125 95.80078125 C45.24085938 95.30964844 44.59890625 94.81851563 43.9375 94.3125 C43.29554688 93.80589844 42.65359375 93.29929687 41.9921875 92.77734375 C38.832686 90.01588054 38.832686 90.01588054 34.9375 89.0625 Z M13.9375 98.0625 C13.0196875 98.56652344 12.101875 99.07054688 11.15625 99.58984375 C10.2590625 100.09644531 9.361875 100.60304688 8.4375 101.125 C7.6021875 101.59035156 6.766875 102.05570313 5.90625 102.53515625 C3.84406118 103.8959829 3.84406118 103.8959829 3.06640625 105.91796875 C2.90117716 108.66678001 3.51621623 110.70179733 4.375 113.3125 C4.66246094 114.20453125 4.94992188 115.0965625 5.24609375 116.015625 C5.58833984 117.02882813 5.58833984 117.02882813 5.9375 118.0625 C9.63280976 114.50601226 12.88685174 110.76779324 16 106.6875 C16.42087891 106.14867188 16.84175781 105.60984375 17.27539062 105.0546875 C20.21093825 101.23164873 22.62069487 97.28946548 24.9375 93.0625 C20.94636639 93.0625 17.31909423 96.111972 13.9375 98.0625 Z M-13.0625 102.0625 C-15.42160353 106.3262281 -15.42160353 106.3262281 -16.0625 111.0625 C-13.11293472 109.69305898 -10.53781189 108.18419591 -8.0625 106.0625 C-8.0625 105.4025 -8.0625 104.7425 -8.0625 104.0625 C-10.5375 103.0725 -10.5375 103.0725 -13.0625 102.0625 Z M-3.0625 111.0625 C-4.44382648 112.53752696 -5.79168329 114.04393689 -7.125 115.5625 C-11.27920882 120.23598493 -15.58743947 124.6971821 -20.0625 129.0625 C-15.74647455 130.50117515 -12.97508626 128.51151708 -9.0625 126.6875 C-7.62543669 126.03289465 -6.18795241 125.37921249 -4.75 124.7265625 C-4.11449219 124.43217285 -3.47898437 124.1377832 -2.82421875 123.83447266 C-1.0625 123.0625 -1.0625 123.0625 1.9375 122.0625 C1.33051257 117.93498551 -0.10060791 114.7303852 -2.0625 111.0625 C-2.3925 111.0625 -2.7225 111.0625 -3.0625 111.0625 Z M-16.0625 117.0625 C-17.67452222 118.28134607 -19.27681577 119.51306485 -20.875 120.75 C-21.76832031 121.43449219 -22.66164063 122.11898437 -23.58203125 122.82421875 C-26.06810223 125.06755524 -27.50993627 127.11727113 -29.0625 130.0625 C-25.16332032 128.44712556 -22.34956228 125.78325127 -19.3125 122.9375 C-18.55259766 122.23560547 -18.55259766 122.23560547 -17.77734375 121.51953125 C-16.53530859 120.37123459 -15.29838506 119.21741328 -14.0625 118.0625 C-14.7225 117.7325 -15.3825 117.4025 -16.0625 117.0625 Z M27.8125 118.5625 C27.15378906 118.80097656 26.49507813 119.03945312 25.81640625 119.28515625 C24.18907424 119.8747693 22.5631508 120.46826733 20.9375 121.0625 C23.87677489 124.21072808 26.9231778 126.51707845 30.5625 128.8125 C31.52414063 129.42609375 32.48578125 130.0396875 33.4765625 130.671875 C35.75659346 132.22648873 35.75659346 132.22648873 37.9375 132.0625 C37.6075 126.7825 37.2775 121.5025 36.9375 116.0625 C33.70533877 116.0625 30.81623866 117.46212049 27.8125 118.5625 Z M14.9375 124.0625 C14.88851562 124.93390625 14.83953125 125.8053125 14.7890625 126.703125 C14.29327507 134.60153157 13.40451011 142.28592213 11.9375 150.0625 C16.40802842 148.70248985 20.33740568 146.92302762 24.4375 144.6875 C25.5203125 144.10226563 26.603125 143.51703125 27.71875 142.9140625 C30.90109534 141.08344152 33.90879557 139.13333104 36.9375 137.0625 C33.11292791 133.82688292 29.16013251 131.31425066 24.8125 128.875 C24.19246094 128.51986328 23.57242188 128.16472656 22.93359375 127.79882812 C20.2914236 126.30159838 17.82623441 125.02541147 14.9375 124.0625 Z M-0.1875 129.0625 C-1.17556641 129.49175781 -1.17556641 129.49175781 -2.18359375 129.9296875 C-3.81130671 130.63738879 -5.43708959 131.34952624 -7.0625 132.0625 C-3.71953531 139.63009041 -0.84016103 145.18258405 5.9375 150.0625 C8.11173358 141.92206596 9.39386453 134.4967927 8.9375 126.0625 C5.63789859 126.0625 2.79144348 127.75294465 -0.1875 129.0625 Z M-13.0625 135.0625 C-13.330625 135.80371094 -13.59875 136.54492188 -13.875 137.30859375 C-17.41592214 146.82482199 -21.65187347 155.92385694 -26.0625 165.0625 C-19.79236071 163.31010648 -13.66663172 161.25748576 -7.5625 159 C-6.85609375 158.7426709 -6.1496875 158.4853418 -5.421875 158.22021484 C-1.39455503 156.71472054 -1.39455503 156.71472054 1.9375 154.0625 C1.25042969 153.36125 0.56335938 152.66 -0.14453125 151.9375 C-5.17343605 146.64240138 -9.15772413 142.27343723 -11.0625 135.0625 C-11.7225 135.0625 -12.3825 135.0625 -13.0625 135.0625 Z M-37.0625 146.0625 C-40.03393121 151.87160023 -37.81077318 159.08080498 -36.0625 165.0625 C-35.4025 165.0625 -34.7425 165.0625 -34.0625 165.0625 C-26.70462896 152.4782681 -26.70462896 152.4782681 -21.0625 139.0625 C-26.56343281 139.0625 -32.67774559 142.98933045 -37.0625 146.0625 Z M29.9375 145.75 C24.4135715 149.4782079 18.86994166 153.00785525 12.9375 156.0625 C16.40169301 158.99276234 19.8196572 161.21971898 23.875 163.25 C24.87402344 163.75917969 25.87304688 164.26835937 26.90234375 164.79296875 C29.95041201 166.06790078 32.66915771 166.65821921 35.9375 167.0625 C39.60914961 159.71920077 38.0405287 149.00715783 37.9375 141.0625 C35.34917115 141.0625 32.11563737 144.26722429 29.9375 145.75 Z M-62.4375 161.875 C-66.72826657 166.47096754 -72.0625 172.55739255 -72.0625 179.0625 C-65.48477814 178.40006276 -59.4167605 176.4722775 -53.125 174.5 C-52.05958984 174.17064453 -50.99417969 173.84128906 -49.89648438 173.50195312 C-47.28365762 172.6935 -44.67243378 171.88023465 -42.0625 171.0625 C-41.88693828 168.08566439 -41.88693828 168.08566439 -43 165.5625 C-44.45152399 160.78100922 -44.72655172 156.0309982 -45.0625 151.0625 C-50.63312735 151.0625 -58.56865998 158.18645544 -62.4375 161.875 Z M8.9375 160.0625 C7.26492736 163.85158876 5.60044885 167.64417885 3.9375 171.4375 C3.46054688 172.51773438 2.98359375 173.59796875 2.4921875 174.7109375 C2.04101562 175.7421875 1.58984375 176.7734375 1.125 177.8359375 C0.70605469 178.78903809 0.28710938 179.74213867 -0.14453125 180.72412109 C-1.18430594 182.95409667 -1.18430594 182.95409667 -1.0625 185.0625 C10.86201777 182.45968648 22.22091746 176.72219516 32.9375 171.0625 C30.55763243 169.47592162 28.67032522 168.4541953 26.06640625 167.40625 C24.95749023 166.95572266 24.95749023 166.95572266 23.82617188 166.49609375 C23.05853516 166.18800781 22.29089844 165.87992188 21.5 165.5625 C19.97989857 164.94932829 18.46034854 164.33478752 16.94140625 163.71875 C16.26924072 163.44869141 15.5970752 163.17863281 14.90454102 162.90039062 C12.86988332 162.03369766 10.90535112 161.0707251 8.9375 160.0625 Z M-5.82421875 164.7421875 C-6.77876953 165.09410156 -7.73332031 165.44601563 -8.71679688 165.80859375 C-9.71775391 166.18113281 -10.71871094 166.55367187 -11.75 166.9375 C-17.8091018 169.18927388 -23.81202244 171.40153394 -30.0625 173.0625 C-24.6813005 179.65446939 -19.26093609 186.14971075 -11.0625 189.0625 C-4.52903492 176.30440195 -4.52903492 176.30440195 0.9375 163.0625 C-1.6180731 163.0625 -3.42514012 163.84964193 -5.82421875 164.7421875 Z M28.18359375 176.96875 C27.41893799 177.37947754 26.65428223 177.79020508 25.86645508 178.21337891 C25.0442749 178.65858887 24.22209473 179.10379883 23.375 179.5625 C14.367586 184.38039902 5.22163903 188.8067743 -4.0625 193.0625 C-0.73829588 195.27863608 2.66329736 196.65804856 6.375 198.0625 C7.08205078 198.3301416 7.78910156 198.5977832 8.51757812 198.87353516 C14.55594705 201.07734924 20.5411801 202.35987395 26.9375 203.0625 C27.7321154 200.56340425 28.52324403 198.06328857 29.3125 195.5625 C29.64507812 194.51835937 29.64507812 194.51835937 29.984375 193.453125 C32.91499101 184.42735095 32.91499101 184.42735095 33.9375 175.0625 C31.47089111 175.0625 30.34787441 175.79277354 28.18359375 176.96875 Z M-55.8125 179.4375 C-57.2975 179.77007812 -57.2975 179.77007812 -58.8125 180.109375 C-63.65583811 181.21013366 -68.38642205 182.36066211 -73.0625 184.0625 C-71.79321809 191.20221077 -67.7861486 196.65602695 -63.0625 202.0625 C-62.0725 202.3925 -61.0825 202.7225 -60.0625 203.0625 C-55.66682886 197.08582453 -51.32305915 191.07370834 -47.0625 185 C-46.66490479 184.44030518 -46.26730957 183.88061035 -45.85766602 183.30395508 C-43.71104029 180.45477097 -43.71104029 180.45477097 -43.0625 177.0625 C-47.35450479 177.0625 -51.64525289 178.48651284 -55.8125 179.4375 Z M-37.0625 179.0625 C-38.85495342 181.12955487 -40.53065968 183.20288515 -42.1875 185.375 C-42.67524902 186.00567383 -43.16299805 186.63634766 -43.66552734 187.28613281 C-50.97726057 196.28883573 -50.97726057 196.28883573 -57.0625 206.0625 C-46.96671415 203.11417316 -37.0024862 199.93428467 -27.265625 195.9453125 C-24.56812365 194.86439884 -21.83310147 193.93742678 -19.0625 193.0625 C-19.77019531 192.51078125 -20.47789062 191.9590625 -21.20703125 191.390625 C-25.18795954 188.14488866 -28.88870875 184.61901359 -32.63671875 181.109375 C-34.78826182 178.84753553 -34.78826182 178.84753553 -37.0625 179.0625 Z M-9.0625 198.0625 C-11.00296037 200.78957275 -12.93933163 203.51952432 -14.875 206.25 C-15.42220703 207.01892578 -15.96941406 207.78785156 -16.53320312 208.58007812 C-19.19040581 212.3323704 -21.77954285 216.06532239 -24.0625 220.0625 C-17.98119455 218.78967515 -12.03663735 217.25608782 -6.08984375 215.4609375 C-5.28132462 215.2196109 -4.47280548 214.9782843 -3.63978577 214.72964478 C-1.09229787 213.96854281 1.45386177 213.20310342 4 212.4375 C5.74144996 211.91637754 7.4829857 211.39554161 9.22460938 210.875 C13.46323706 209.60747266 17.70068042 208.33605738 21.9375 207.0625 C21.9375 206.7325 21.9375 206.4025 21.9375 206.0625 C21.06182373 205.85886841 21.06182373 205.85886841 20.16845703 205.65112305 C17.46570335 205.02065839 14.76410892 204.38535142 12.0625 203.75 C11.1446875 203.53666016 10.226875 203.32332031 9.28125 203.10351562 C3.09171101 201.64330748 -2.99300202 199.96055855 -9.0625 198.0625 Z M-26.625 201.25 C-28.15622577 201.70581059 -29.68747654 202.16153715 -31.21875 202.6171875 C-32.01152344 202.85405273 -32.80429688 203.09091797 -33.62109375 203.33496094 C-37.61905012 204.52635194 -41.62221175 205.69996733 -45.625 206.875 C-47.0638269 207.29809271 -48.50263129 207.72126195 -49.94140625 208.14453125 C-50.97136719 208.44746094 -52.00132812 208.75039062 -53.0625 209.0625 C-50.15070107 211.39058166 -47.25947771 213.06706582 -43.875 214.625 C-42.55435547 215.24568359 -42.55435547 215.24568359 -41.20703125 215.87890625 C-37.23228303 217.3749916 -33.22016818 218.23349767 -29.0625 219.0625 C-27.24868538 216.10497078 -25.43667304 213.14634147 -23.625 210.1875 C-22.8505957 208.92486328 -22.8505957 208.92486328 -22.06054688 207.63671875 C-21.56748047 206.83105469 -21.07441406 206.02539062 -20.56640625 205.1953125 C-20.11080322 204.45168457 -19.6552002 203.70805664 -19.18579102 202.94189453 C-18.03449855 201.06899665 -18.03449855 201.06899665 -17.0625 199.0625 C-20.37819224 199.0625 -23.47089963 200.30093843 -26.625 201.25 Z M18.5 211.1875 C7.31887208 216.36504076 -4.90838491 220.07002212 -17.0625 222.0625 C-17.0625 222.3925 -17.0625 222.7225 -17.0625 223.0625 C-12.25958001 223.96812408 -7.45423443 224.85888988 -2.64599609 225.73583984 C-1.00982103 226.03642811 0.62560858 226.3411034 2.26025391 226.64990234 C4.6065692 227.09241542 6.95515048 227.52028407 9.3046875 227.9453125 C10.03807343 228.08687775 10.77145935 228.22844299 11.52706909 228.3742981 C13.31733361 228.69069464 15.12793082 228.88753364 16.9375 229.0625 C19.77306803 226.22693197 20.71195029 222.75874132 22.0625 219.0625 C22.33964844 218.32515625 22.61679688 217.5878125 22.90234375 216.828125 C24.40337146 213.04764952 24.40337146 213.04764952 24.9375 209.0625 C22.31377569 209.0625 20.85817058 210.01761194 18.5 211.1875 Z " fill="#FFFFFF" transform="translate(224.0625,-0.0625)"/>
<path d="M0 0 C6.33869448 5.35648236 10.79917603 12.76416015 12 21 C12.18881334 24.08432144 12.23066023 27.16047199 12.25 30.25 C12.270625 31.05824219 12.29125 31.86648438 12.3125 32.69921875 C12.37917742 43.11756632 8.94467811 50.34856261 2 58 C-1.14776977 60.92292907 -3.94134338 62.60846059 -8 64 C-5.31640971 68.9434558 -1.74037425 72.35370003 2.3125 76.1875 C4 78 4 78 4 80 C-0.45061972 80.54210556 -4.56831367 80.77140335 -9 80 C-11.45759827 77.99268086 -12.87729192 76.0506561 -14.53515625 73.359375 C-17.53388939 68.52941549 -20.30467935 66.59311474 -25.75 65.0625 C-33.58489784 62.61648311 -39.14898391 59.74670374 -44 53 C-45.44921875 50.09765625 -45.44921875 50.09765625 -46.6875 47.0625 C-47.10386719 46.06347656 -47.52023438 45.06445312 -47.94921875 44.03515625 C-51.76868881 33.00270928 -50.59526406 21.39626198 -45.875 10.875 C-41.60043352 2.87261391 -35.51512695 -1.60856318 -26.91796875 -4.3359375 C-17.15603995 -6.55752772 -8.61010829 -5.1461284 0 0 Z M-33.45703125 10.13671875 C-40.32404047 18.42928431 -39.82684996 28.82571203 -39 39 C-37.69792223 45.82088432 -33.98519892 50.8157081 -28.4375 54.875 C-21.9802017 56.98829763 -14.86816991 57.21343058 -8.5625 54.4375 C-3.25984043 51.29559152 -0.74819479 47.06644274 1.3125 41.375 C3.47700259 30.63573717 2.69646767 19.30830691 -3.375 10 C-7.51722289 5.26603098 -11.60866441 4.57554442 -17.66796875 4.04296875 C-24.0031518 3.92624008 -28.86311513 5.73202572 -33.45703125 10.13671875 Z " fill="#FFFFFF" transform="translate(90,259)"/>
<path d="M0 0 C5.85750667 4.22285365 8.38471203 8.02913609 10.6875 14.9375 C10.6875 19.2275 10.6875 23.5175 10.6875 27.9375 C0.4575 27.9375 -9.7725 27.9375 -20.3125 27.9375 C-17.47999339 37.31709887 -17.47999339 37.31709887 -13.6875 40.125 C-6.089776 41.9540817 0.66583022 39.9282112 7.6875 36.9375 C8.6875 37.9375 8.6875 37.9375 8.8125 41.375 C8.6875 44.9375 8.6875 44.9375 7.6875 46.9375 C-0.60070984 50.4279217 -7.84752621 52.15610724 -16.4296875 49.2109375 C-22.38955319 46.62458069 -26.48833757 42.48552726 -29.44921875 36.7265625 C-31.83847657 29.00742184 -31.66573206 18.62079023 -28.25 11.25 C-21.8967722 0.65527069 -11.9854656 -3.84439463 0 0 Z M-16.3125 10.9375 C-18.84121513 13.7371489 -19.36230673 15.13672693 -20.3125 18.9375 C-13.0525 18.9375 -5.7925 18.9375 1.6875 18.9375 C-1.12008831 10.35847649 -1.12008831 10.35847649 -4.8125 8.375 C-9.76607101 7.50812507 -12.29526384 8.05333045 -16.3125 10.9375 Z " fill="#FFFFFF" transform="translate(231.3125,274.0625)"/>
<path d="M0 0 C6.24743747 3.50609485 8.39036761 8.61250908 10.57421875 15.1640625 C10.57421875 19.4540625 10.57421875 23.7440625 10.57421875 28.1640625 C-4.77078125 28.6590625 -4.77078125 28.6590625 -20.42578125 29.1640625 C-17.96318495 35.76792137 -17.96318495 35.76792137 -13.42578125 40.1640625 C-6.72048193 41.89819163 -1.83312383 40.46296694 4.57421875 38.1640625 C5.56421875 37.8340625 6.55421875 37.5040625 7.57421875 37.1640625 C7.57421875 40.4640625 7.57421875 43.7640625 7.57421875 47.1640625 C-8.07058217 52.79812527 -8.07058217 52.79812527 -16.80078125 49.1796875 C-22.98233806 46.04824096 -26.91561493 42.61587123 -29.73828125 36.1640625 C-31.65766147 27.75978598 -31.5240982 18.30765694 -27.90234375 10.42578125 C-21.51454989 0.64130336 -11.39488511 -3.9267398 0 0 Z M-17.42578125 11.1640625 C-18.8575594 13.54318259 -20.42578125 16.3297445 -20.42578125 19.1640625 C-13.49578125 19.1640625 -6.56578125 19.1640625 0.57421875 19.1640625 C0.07965328 13.52889027 0.07965328 13.52889027 -2.05078125 10.8515625 C-7.30358092 7.1193101 -12.31118125 7.44435341 -17.42578125 11.1640625 Z " fill="#FFFFFF" transform="translate(347.42578125,273.8359375)"/>
<path d="M0 0 C0.495 5.445 0.495 5.445 1 11 C-4 10 -4 10 -7 9 C-8.97465189 8.83058542 -10.95614037 8.73403379 -12.9375 8.6875 C-14.49791016 8.63142578 -14.49791016 8.63142578 -16.08984375 8.57421875 C-19.70659889 9.10338158 -20.82341205 10.11499427 -23 13 C-23.75011367 16.45728358 -23.75011367 16.45728358 -23 20 C-18.69944487 24.98567235 -13.26478463 28.55666634 -7.8828125 32.27539062 C-2.28236254 36.3172248 2.0353058 40.82365308 3.62890625 47.72265625 C3.42635184 54.8597203 1.91876147 59.08123853 -3.25 64.25 C-9.55222985 68.26050991 -15.53140134 69.93204187 -23 69 C-32.01848429 66.98151571 -32.01848429 66.98151571 -35 64 C-35.20146402 60.306493 -35.17353189 57.52059568 -34 54 C-29 56 -29 56 -26.70703125 57.0546875 C-23.6170106 58.13374233 -21.14119456 58.2663719 -17.875 58.25 C-16.84117187 58.25515625 -15.80734375 58.2603125 -14.7421875 58.265625 C-11.78392723 58.19676382 -11.78392723 58.19676382 -9 56 C-7.69261821 50.66692348 -7.69261821 50.66692348 -9.06640625 45.55078125 C-11.55824506 42.26356763 -14.41067438 40.27975749 -17.8125 38 C-32.88052813 27.70807043 -32.88052813 27.70807043 -35 18 C-34.87029687 15.05833305 -34.13518496 12.70115805 -33 10 C-32.5875 8.9275 -32.175 7.855 -31.75 6.75 C-24.99986659 -3.8573525 -10.66680294 -3.79264105 0 0 Z " fill="#FFFFFF" transform="translate(195,256)"/>
<path d="M0 0 C0 3.3 0 6.6 0 10 C-0.886875 9.67 -1.77375 9.34 -2.6875 9 C-8.24211117 7.41459763 -14.29350782 7.28283274 -20 8 C-22.53106604 9.84713969 -22.94606275 10.82277762 -23.875 13.875 C-24.03240144 17.81003588 -23.50462465 18.96409133 -21 22 C-17.80270372 24.69130214 -14.37007922 27.0440702 -10.9453125 29.43359375 C1.82089622 38.59844009 1.82089622 38.59844009 3.0625 46.0625 C2.9694163 51.9267734 1.83219212 57.44927186 -2 62 C-11.21226199 67.50868369 -18.04128265 69.09905434 -28.4375 66.5 C-30.273125 66.005 -32.10875 65.51 -34 65 C-34 61.04 -34 57.08 -34 53 C-31.49774377 54.00090249 -28.99417955 55.00261044 -26.53515625 56.10546875 C-23.70428638 57.10434271 -21.43340236 57.29999971 -18.4375 57.3125 C-17.50808594 57.32925781 -16.57867188 57.34601563 -15.62109375 57.36328125 C-12.53322182 56.93530496 -11.18531724 56.20541211 -9 54 C-8.34828291 50.08969747 -8.11966263 47.64375493 -10 44.1328125 C-13.54907764 39.59563938 -17.99941573 36.96639123 -23.0234375 34.26171875 C-24.00183594 33.63716797 -24.00183594 33.63716797 -25 33 C-25 32.34 -25 31.68 -25 31 C-25.556875 30.79375 -26.11375 30.5875 -26.6875 30.375 C-30.05306383 28.37385394 -32.36283465 26.55682197 -34 23 C-35.06073491 16.50987384 -35.34980414 10.0030609 -31.5625 4.375 C-23.34251889 -4.55393053 -10.43166561 -5.68999942 0 0 Z " fill="#FFFFFF" transform="translate(34,257)"/>
<path d="M0 0 C3.3 0 6.6 0 10 0 C10 19.14 10 38.28 10 58 C18.25 58 26.5 58 35 58 C35 61.3 35 64.6 35 68 C23.45 68 11.9 68 0 68 C0 45.56 0 23.12 0 0 Z " fill="#FFFFFF" transform="translate(110,255)"/>
<path d="M0 0 C2.97 0 5.94 0 9 0 C13 11.33333333 17 22.66666667 21 34 C24.97574232 23.99762811 28.77752363 14.00079527 32.0546875 3.74609375 C33 1 33 1 34 0 C35.51928038 -0.07179964 37.04167482 -0.08392007 38.5625 -0.0625 C39.38878906 -0.05347656 40.21507812 -0.04445313 41.06640625 -0.03515625 C41.70449219 -0.02355469 42.34257812 -0.01195312 43 0 C42.45058806 5.07398089 41.28989902 9.24052858 39.3125 13.9375 C38.76790079 15.25192981 38.22498871 16.56705966 37.68359375 17.8828125 C37.40499512 18.55731445 37.12639648 19.23181641 36.83935547 19.92675781 C35.44831607 23.36268178 34.16269079 26.83680862 32.875 30.3125 C26.46066417 47.53933583 26.46066417 47.53933583 25 49 C23.48071962 49.07179964 21.95832518 49.08392007 20.4375 49.0625 C19.61121094 49.05347656 18.78492188 49.04445313 17.93359375 49.03515625 C17.29550781 49.02355469 16.65742188 49.01195312 16 49 C11.68111487 37.88859175 7.47692216 26.73877482 3.5 15.5 C3.15001953 14.52796631 2.80003906 13.55593262 2.43945312 12.55444336 C1.95895508 11.18171265 1.95895508 11.18171265 1.46875 9.78125 C1.18451172 8.97751953 0.90027344 8.17378906 0.60742188 7.34570312 C-0.04907596 4.81048158 -0.10875619 2.60783467 0 0 Z " fill="#FFFFFF" transform="translate(275,274)"/>
<path d="M0 0 C1.58867866 1.58867866 1.20794039 3.24689516 1.25 5.4375 C1.27578125 6.24058594 1.3015625 7.04367187 1.328125 7.87109375 C1.21984375 8.57363281 1.1115625 9.27617187 1 10 C-2 12 -2 12 -4.5 11.625 C-5.325 11.41875 -6.15 11.2125 -7 11 C-7.99 11 -8.98 11 -10 11 C-10.7115625 10.96519531 -11.423125 10.93039062 -12.15625 10.89453125 C-12.9296875 10.86746094 -13.703125 10.84039062 -14.5 10.8125 C-15.2734375 10.77769531 -16.046875 10.74289062 -16.84375 10.70703125 C-19.04394186 10.83318531 -19.04394186 10.83318531 -20.65625 12.19921875 C-23.94541156 16.6070777 -24.28099574 20.88032743 -24.4140625 26.26953125 C-24.43342865 26.95053391 -24.4527948 27.63153656 -24.4727478 28.33317566 C-24.53218132 30.49282593 -24.578782 32.65253057 -24.625 34.8125 C-24.66321328 36.28322544 -24.70226694 37.75392929 -24.7421875 39.22460938 C-24.83785183 42.81620789 -24.92201575 46.40796913 -25 50 C-28.3 50 -31.6 50 -35 50 C-35 33.83 -35 17.66 -35 1 C-31.7 1 -28.4 1 -25 1 C-24.67 1.99 -24.34 2.98 -24 4 C-22.4840625 3.01 -22.4840625 3.01 -20.9375 2 C-17.19076114 -0.15836478 -14.33941452 -0.33380112 -10 0 C0 0 0 0 0 0 Z " fill="#FFFFFF" transform="translate(399,273)"/>
<path d="M0 0 C1 1 1 1 1.09765625 3.06640625 C1.08605469 3.89011719 1.07445312 4.71382813 1.0625 5.5625 C1.05347656 6.38878906 1.04445313 7.21507812 1.03515625 8.06640625 C1.02355469 8.70449219 1.01195312 9.34257812 1 10 C-2 11 -2 11 -5.4375 10.75 C-9.1375424 10.61831017 -9.1375424 10.61831017 -11.375 13.375 C-13.92202531 17.48942551 -14.20121649 20.44202545 -14.31640625 25.1953125 C-14.33718735 25.90275604 -14.35796844 26.61019958 -14.37937927 27.33908081 C-14.44481078 29.60095425 -14.50372974 31.86294462 -14.5625 34.125 C-14.60569133 35.65756422 -14.64930582 37.19011657 -14.69335938 38.72265625 C-14.80048555 42.48165073 -14.9017709 46.24076292 -15 50 C-18.3 50 -21.6 50 -25 50 C-25 33.83 -25 17.66 -25 1 C-22.03 1 -19.06 1 -16 1 C-15.67 2.32 -15.34 3.64 -15 5 C-14.236875 4.360625 -13.47375 3.72125 -12.6875 3.0625 C-8.45498375 -0.18571014 -5.21945547 -0.19331317 0 0 Z " fill="#FFFFFF" transform="translate(273,273)"/>
<path d="M0 0 C1.2065625 0.0309375 1.2065625 0.0309375 2.4375 0.0625 C2.7675 1.3825 3.0975 2.7025 3.4375 4.0625 C2.798125 4.165625 2.15875 4.26875 1.5 4.375 C0.819375 4.601875 0.13875 4.82875 -0.5625 5.0625 C-0.8925 6.0525 -1.2225 7.0425 -1.5625 8.0625 C0.4175 8.0625 2.3975 8.0625 4.4375 8.0625 C4.4375 6.7425 4.4375 5.4225 4.4375 4.0625 C5.7575 3.7325 7.0775 3.4025 8.4375 3.0625 C8.7675 4.7125 9.0975 6.3625 9.4375 8.0625 C12.04464703 7.59693803 13.30973519 7.17748833 15.3125 5.375 C17.4375 4.0625 17.4375 4.0625 20.625 4.8125 C23.4375 6.0625 23.4375 6.0625 24.4375 7.0625 C24.75 9.9375 24.75 9.9375 24.4375 13.0625 C22.8125 15 22.8125 15 20.4375 16.0625 C16.76456204 15.84212372 15.06783454 15.69283454 12.4375 13.0625 C11.4475 13.0625 10.4575 13.0625 9.4375 13.0625 C9.4375 16.3625 9.4375 19.6625 9.4375 23.0625 C10.7575 22.7325 12.0775 22.4025 13.4375 22.0625 C13.1075 23.7125 12.7775 25.3625 12.4375 27.0625 C10.0943787 26.80688677 7.75906597 26.46979228 5.4375 26.0625 C4.11520811 23.41791621 4.34072806 21.38488699 4.375 18.4375 C4.38402344 17.43460938 4.39304687 16.43171875 4.40234375 15.3984375 C4.41394531 14.62757813 4.42554687 13.85671875 4.4375 13.0625 C2.4575 13.0625 0.4775 13.0625 -1.5625 13.0625 C-1.5625 17.6825 -1.5625 22.3025 -1.5625 27.0625 C-3.2125 26.7325 -4.8625 26.4025 -6.5625 26.0625 C-6.52769531 24.79792969 -6.52769531 24.79792969 -6.4921875 23.5078125 C-6.47414063 22.41210938 -6.45609375 21.31640625 -6.4375 20.1875 C-6.41429688 19.09695312 -6.39109375 18.00640625 -6.3671875 16.8828125 C-6.26189466 13.9253949 -6.26189466 13.9253949 -8.5625 12.0625 C-8.5625 8.0625 -8.5625 8.0625 -6.5625 6.0625 C-5.55062105 4.40301852 -4.5498454 2.73669438 -3.5625 1.0625 C-2.5625 0.0625 -2.5625 0.0625 0 0 Z " fill="#FFFFFF" transform="translate(118.5625,222.9375)"/>
<path d="M0 0 C5 1 5 1 6.2578125 2.8203125 C6.54398438 3.58085937 6.83015625 4.34140625 7.125 5.125 C7.41632812 5.87007812 7.70765625 6.61515625 8.0078125 7.3828125 C8.33523438 8.24648437 8.66265625 9.11015625 9 10 C9.98355601 12.34069182 10.99159201 14.66983691 12 17 C12.40992188 15.94039062 12.81984375 14.88078125 13.2421875 13.7890625 C13.78618379 12.40093404 14.33046971 11.01291907 14.875 9.625 C15.14441406 8.92632812 15.41382813 8.22765625 15.69140625 7.5078125 C17.7734375 2.2265625 17.7734375 2.2265625 20 0 C21.32 0 22.64 0 24 0 C24 8.58 24 17.16 24 26 C22.68 26 21.36 26 20 26 C18.54218666 21.62655999 18.9401968 17.60484643 19 13 C17.35 17.29 15.7 21.58 14 26 C12.68 26 11.36 26 10 26 C8.35 21.71 6.7 17.42 5 13 C4.67 17.29 4.34 21.58 4 26 C2.68 26 1.36 26 0 26 C0 17.42 0 8.84 0 0 Z " fill="#FFFFFF" transform="translate(2,224)"/>
<path d="M0 0 C3.35257489 2.14908647 3.89145337 3.57356681 4.875 7.4375 C5.03490602 11.9948215 4.42596999 14.4684026 1.3125 17.8125 C-2.00939726 19.51833914 -4.31514818 19.45252566 -8 19 C-10.9375 17.625 -10.9375 17.625 -13 15 C-14.04726402 9.95099544 -13.79344525 6.23975821 -11 1.875 C-6.83594076 -0.72753703 -4.86097528 -0.69442504 0 0 Z M-6 4 C-7.73666727 6.19832713 -7.73666727 6.19832713 -9 9 C-8.60019461 11.79174051 -8.60019461 11.79174051 -7 14 C-5.12042756 15.1576585 -5.12042756 15.1576585 -3 15 C-1.02421261 14.10938785 -1.02421261 14.10938785 0 12 C-0.23477199 8.35458155 -0.23477199 8.35458155 -1 5 C-2.65 4.67 -4.3 4.34 -6 4 Z " fill="#FFFFFF" transform="translate(75,231)"/>
<path d="M0 0 C2.7716107 2.14799829 3.75580223 3.71389175 4.41015625 7.16015625 C4.68638611 11.40276366 4.35538992 13.47229982 1.9375 17.0625 C-1.78227638 19.51596953 -3.6233589 19.78154305 -8 19 C-11.07504636 16.97177793 -12.66581629 15.50246824 -13.48046875 11.83984375 C-13.73957582 7.64511033 -13.33216044 5.50862067 -11 1.9375 C-6.81895862 -0.76275589 -4.91883328 -0.78076719 0 0 Z M-7.875 5 C-9.62020832 8.10259257 -8.69997967 10.6273707 -8 14 C-4.41672247 15.00217064 -4.41672247 15.00217064 -1 14 C-1 11.03 -1 8.06 -1 5 C-4.51480683 3.89970401 -4.51480683 3.89970401 -7.875 5 Z " fill="#FFFFFF" transform="translate(106,231)"/>
<path d="M0 0 C0.33 1.65 0.66 3.3 1 5 C-0.98 5 -2.96 5 -5 5 C-4.195625 5.804375 -3.39125 6.60875 -2.5625 7.4375 C1 11 1 11 1.25 13.375 C1 16 1 16 0 17.8125 C-3.27997665 19.75998613 -6.23454745 19.24293242 -10 19 C-11 18 -11 18 -11.0625 15.4375 C-11.041875 14.633125 -11.02125 13.82875 -11 13 C-8.69 13.33 -6.38 13.66 -4 14 C-4.78375 13.401875 -5.5675 12.80375 -6.375 12.1875 C-9 10 -9 10 -11 7 C-10.8125 4.4375 -10.8125 4.4375 -10 2 C-6.3558226 -0.4294516 -4.28758728 -0.16179575 0 0 Z " fill="#FFFFFF" transform="translate(91,231)"/>
<path d="M0 0 C0.33 1.65 0.66 3.3 1 5 C-1.97 5 -4.94 5 -8 5 C-8 7.64 -8 10.28 -8 13 C-4.846632 13.70074844 -2.27275026 14 1 14 C0.125 17.875 0.125 17.875 -1 19 C-7.96238651 19.57068742 -7.96238651 19.57068742 -11.5 17.625 C-13.85379695 13.50585533 -13.84310611 9.61843083 -13 5 C-9.41387839 -0.60331501 -6.13079617 -0.519559 0 0 Z " fill="#FFFFFF" transform="translate(50,231)"/>
<path d="M0 0 C3.3 0 6.6 0 10 0 C10.33 0.99 10.66 1.98 11 3 C10.67 3.66 10.34 4.32 10 5 C8.68 5 7.36 5 6 5 C5.67 9.62 5.34 14.24 5 19 C3.35 19 1.7 19 0 19 C0 12.73 0 6.46 0 0 Z " fill="#FFFFFF" transform="translate(52,231)"/>
<path d="M0 0 C5.41538462 -0.36923077 5.41538462 -0.36923077 8.375 1.5 C8.91125 1.995 9.4475 2.49 10 3 C10.33 2.34 10.66 1.68 11 1 C11.99 1 12.98 1 14 1 C14 3.64 14 6.28 14 9 C9.71 9 5.42 9 1 9 C0.67 6.03 0.34 3.06 0 0 Z " fill="#FFFFFF" transform="translate(250,223)"/>
<path d="M0 0 C1.32 0 2.64 0 4 0 C5.17245774 3.51737321 5.13266285 6.3575132 5.125 10.0625 C5.12757812 11.31160156 5.13015625 12.56070313 5.1328125 13.84765625 C5 17 5 17 4 19 C2.68 19 1.36 19 0 19 C0 12.73 0 6.46 0 0 Z " fill="#FFFFFF" transform="translate(30,231)"/>
<path d="M0 0 C0.99 0.33 1.98 0.66 3 1 C2.67 2.65 2.34 4.3 2 6 C0.68 5.67 -0.64 5.34 -2 5 C-2 3.68 -2 2.36 -2 1 C-1.34 0.67 -0.68 0.34 0 0 Z " fill="#FFFFFF" transform="translate(32,223)"/>
</svg>
