<?xml version="1.0" encoding="UTF-8"?>
<svg version="1.1" xmlns="http://www.w3.org/2000/svg" width="512" height="512">
<path d="M0 0 C0.58394531 1.81757812 0.58394531 1.81757812 1.1796875 3.671875 C5.12740916 15.62215805 9.90140036 26.78480531 15.88769531 37.85595703 C16.85003706 39.71093623 17.68408398 41.63141494 18.4921875 43.55859375 C20.25702775 47.31261835 21.80853372 50.11211421 25.79931641 51.72900391 C30.75773625 53.15609515 35.84222341 53.82467866 40.94238281 54.54003906 C66.38306591 58.36711084 92.58803216 65.04755157 115 78 C115.99 78.5580835 115.99 78.5580835 117 79.12744141 C126.58971251 84.58295257 134.75183103 90.81087247 142.57324219 98.58349609 C143.92125282 99.92181877 145.2920332 101.23709337 146.6640625 102.55078125 C150.65880509 106.42190803 154.31697309 110.10055955 157 115 C157 115.99 157 116.98 157 118 C156.21915039 118.10957031 155.43830078 118.21914062 154.63378906 118.33203125 C125.54423949 122.48165676 97.1234516 128.56888591 68.8125 136.4375 C67.61868713 136.7692775 67.61868713 136.7692775 66.40075684 137.10775757 C64.16789439 137.73163876 61.93699042 138.36192127 59.70703125 138.99609375 C58.70513512 139.27836823 58.70513512 139.27836823 57.68299866 139.56634521 C54.58416423 140.29656814 54.58416423 140.29656814 52 142 C52.08711886 143.74048336 52.24104831 145.47768226 52.421875 147.2109375 C56.84767796 195.56640405 45.10122564 243.22233916 25 287 C-12.51998812 288.75570135 -62.4254209 278.65872552 -91.73046875 253.671875 C-98.22332954 247.44381277 -102.98789153 241.13488383 -103.3125 231.875 C-103.15717808 222.40036297 -98.27144295 214.77739425 -92 208 C-88.75493505 204.89231736 -85.42131637 201.91190508 -82 199 C-81.34 199.33 -80.68 199.66 -80 200 C-80.60328125 200.556875 -81.2065625 201.11375 -81.828125 201.6875 C-88.82175297 208.3652867 -91.99789374 213.94599212 -95 223 C-93.86457764 222.69707031 -92.72915527 222.39414062 -91.55932617 222.08203125 C-87.35035396 220.96012775 -83.14010171 219.84309602 -78.92944336 218.72753906 C-77.10649845 218.24384431 -75.28390438 217.75882535 -73.46166992 217.27246094 C-70.84384596 216.57399443 -68.22480129 215.88028462 -65.60546875 215.1875 C-64.78974899 214.96876221 -63.97402924 214.75002441 -63.1335907 214.5246582 C-60.01356344 213.70335378 -57.24115177 213 -54 213 C-54.34933594 212.20335937 -54.69867188 211.40671875 -55.05859375 210.5859375 C-55.51363281 209.52632812 -55.96867187 208.46671875 -56.4375 207.375 C-56.88996094 206.33085937 -57.34242188 205.28671875 -57.80859375 204.2109375 C-59.95799606 198.41812209 -60.10499695 193.08982324 -60 187 C-60.91523438 187.58910156 -61.83046875 188.17820313 -62.7734375 188.78515625 C-63.97369181 189.54469218 -65.17422729 190.30378391 -66.375 191.0625 C-66.97828125 191.45244141 -67.5815625 191.84238281 -68.203125 192.24414062 C-69.76492557 193.22460432 -71.37992214 194.11916075 -73 195 C-73.66 194.67 -74.32 194.34 -75 194 C-73.98015015 192.9958606 -73.98015015 192.9958606 -72.93969727 191.97143555 C-70.36793875 189.43645127 -67.80327683 186.89438153 -65.24047852 184.3503418 C-64.13980081 183.25959309 -63.03732017 182.1706601 -61.93286133 181.08374023 C-54.79138833 174.05268565 -48.19041387 166.89726616 -42 159 C-41.15719614 157.96537439 -40.31365859 156.93134504 -39.46875 155.8984375 C-24.48989801 136.6993534 -17.3629676 116.34909791 -19 92 C-21.34576682 77.55186934 -29.91701624 65.20857253 -40 55 C-40.60070312 54.33871094 -41.20140625 53.67742187 -41.8203125 52.99609375 C-46.68316108 47.78589884 -52.24767593 43.74101957 -58.07275391 39.67993164 C-59.74779832 38.49823385 -61.3784842 37.25414112 -63 36 C-63 35.34 -63 34.68 -63 34 C-48.84866294 21.97762516 -32.14649621 13.93396256 -15.5625 5.875 C-14.65884705 5.43368744 -14.65884705 5.43368744 -13.73693848 4.98345947 C-12.01675413 4.14616676 -10.2916675 3.31896854 -8.56640625 2.4921875 C-7.56552979 2.01120605 -6.56465332 1.53022461 -5.53344727 1.03466797 C-3 0 -3 0 0 0 Z M-11.9375 11.625 C-12.60467041 11.89135254 -13.27184082 12.15770508 -13.95922852 12.43212891 C-19.88797559 14.85356 -25.47473869 17.76065761 -31 21 C-27.35405756 23.43062829 -23.92443638 23.93815461 -19.6875 24.625 C-18.89166504 24.75688721 -18.09583008 24.88877441 -17.27587891 25.0246582 C-10.13778147 26.12781872 -3.22291608 26.31353494 4 26 C3.57847656 25.02417969 3.15695312 24.04835938 2.72265625 23.04296875 C2.16920669 21.75784012 1.61582481 20.47268234 1.0625 19.1875 C0.64581055 18.22360352 0.64581055 18.22360352 0.22070312 17.24023438 C-0.9518811 14.51362285 -2.06089549 11.81731354 -3 9 C-6.2039156 9 -9.00002276 10.44769641 -11.9375 11.625 Z M-35 26 C-30.72162289 31.24101196 -26.22311711 35.70543705 -21 40 C-20.030625 40.86625 -19.06125 41.7325 -18.0625 42.625 C-14.70767963 44.13124588 -14.16506276 44.12363572 -10.8125 43.125 C-5.30050482 40.91455825 -0.1347996 37.96570668 5 35 C2.09973881 33.40207482 -0.45233583 32.58925439 -3.7109375 32.03515625 C-4.62020996 31.8762793 -5.52948242 31.71740234 -6.46630859 31.55371094 C-7.42617676 31.39161133 -8.38604492 31.22951172 -9.375 31.0625 C-11.35446969 30.71657326 -13.33363747 30.36891451 -15.3125 30.01953125 C-16.27929688 29.8488916 -17.24609375 29.67825195 -18.2421875 29.50244141 C-23.8587589 28.47916733 -29.43088387 27.25447667 -35 26 Z M-45.82421875 29.75 C-46.74654297 30.86375 -46.74654297 30.86375 -47.6875 32 C-48.62142578 33.11375 -48.62142578 33.11375 -49.57421875 34.25 C-50.27998047 35.11625 -50.27998047 35.11625 -51 36 C-50.39414063 36.29519531 -49.78828125 36.59039062 -49.1640625 36.89453125 C-47 38 -47 38 -44.375 39.6875 C-39.70919985 41.50197784 -35.85696936 40.79669656 -31 40 C-31.38671875 39.55269531 -31.7734375 39.10539062 -32.171875 38.64453125 C-32.69265625 38.03996094 -33.2134375 37.43539062 -33.75 36.8125 C-34.29785156 36.17828125 -34.84570312 35.5440625 -35.41015625 34.890625 C-36.72528424 33.32668901 -37.96705018 31.70138976 -39.1875 30.0625 C-39.785625 29.381875 -40.38375 28.70125 -41 28 C-44.06049937 27.65386277 -44.06049937 27.65386277 -45.82421875 29.75 Z M3.125 40.875 C1.52011719 41.67550781 1.52011719 41.67550781 -0.1171875 42.4921875 C-3.08133324 43.97774016 -3.08133324 43.97774016 -6 46 C-0.96948894 49.35367404 3.9140563 49.13587777 9.8125 49.0625 C10.50537109 49.05798828 11.19824219 49.05347656 11.91210938 49.04882812 C13.60811068 49.03713156 15.30406703 49.01919924 17 49 C15.68315779 46.23156893 14.22149755 43.7422712 12.4375 41.25 C12.00308594 40.63640625 11.56867188 40.0228125 11.12109375 39.390625 C10.75113281 38.93171875 10.38117188 38.4728125 10 38 C7.70726565 38 5.09481992 39.88772815 3.125 40.875 Z M-43 45 C-42.34 45.66 -41.68 46.32 -41 47 C-36 52 -31 57 -26 62 C-27.94765232 53.99618709 -27.94765232 53.99618709 -32 47 C-35.74901467 45.2884933 -38.90061825 44.7588599 -43 45 Z M-24 50 C-22.02 57.26 -20.04 64.52 -18 72 C-15.69 70.02 -13.38 68.04 -11 66 C-9.70299455 65.06388139 -8.38646772 64.15273626 -7.03515625 63.296875 C-6.38095703 62.8740625 -5.72675781 62.45125 -5.05273438 62.015625 C-3.69936559 61.15499402 -2.34516713 60.29566664 -0.99023438 59.4375 C0.70536029 58.33985231 2.3573653 57.17542458 4 56 C4 55.34 4 54.68 4 54 C-5.4521267 51.46561864 -14.26851161 50.45474245 -24 50 Z M15 57 C15.60785403 65.73390265 16.68141666 74.3459967 18 83 C21.85846425 81.63818909 24.70868731 79.87247915 27.9375 77.375 C32.85992892 73.69824697 37.92720302 70.6249463 43.31616211 67.70263672 C46.30335421 66.06382699 48.66557742 64.4684004 51 62 C38.94844111 59.15577919 27.38607452 57.31718501 15 57 Z M-7.1875 69.8125 C-10.14501765 72.45208086 -10.14501765 72.45208086 -11 76 C-7.56496228 77.17400588 -4.12659286 78.33793209 -0.6875 79.5 C0.28896484 79.83386719 1.26542969 80.16773437 2.27148438 80.51171875 C3.20927734 80.82753906 4.14707031 81.14335938 5.11328125 81.46875 C5.97735596 81.76201172 6.84143066 82.05527344 7.73168945 82.35742188 C10.08814103 83.13627972 10.08814103 83.13627972 13 83 C12.34 74.75 11.68 66.5 11 58 C4.48656971 58 -2.8148188 65.52310797 -7.1875 69.8125 Z M57 65 C38.10882762 73.61027945 38.10882762 73.61027945 25 88 C26.17755859 88.45439453 26.17755859 88.45439453 27.37890625 88.91796875 C33.5746612 91.38866858 38.70326294 93.96987398 44 98 C44.66 98 45.32 98 46 98 C50.15799398 90.43892161 53.56589022 83.03589755 56 74.75 C56.21938232 74.01144775 56.43876465 73.27289551 56.66479492 72.51196289 C57.93492714 68.70614864 57.93492714 68.70614864 57 65 Z M62 66 C61.78085937 67.0415625 61.56171875 68.083125 61.3359375 69.15625 C59.07560143 79.50154083 55.96270873 89.18569137 52 99 C56.31360431 97.68596743 60.3006921 95.98661058 64.37207031 94.07983398 C76.94458841 88.19479875 89.88871437 83.53067759 103 79 C98.12763558 75.75175706 92.53119707 74.33981369 87 72.5 C85.81792969 72.09652344 84.63585937 71.69304687 83.41796875 71.27734375 C76.3309452 68.90979343 69.39705524 67.07936622 62 66 Z M-14 84 C-13.67 91.92 -13.34 99.84 -13 108 C-7.42734042 103.23045809 -7.42734042 103.23045809 -1.875 98.4375 C-1.25367188 97.89996094 -0.63234375 97.36242187 0.0078125 96.80859375 C2.41645364 94.62192542 4.69966627 92.30033373 7 90 C0.07 88.02 -6.86 86.04 -14 84 Z M98.359375 86.37890625 C97.60013733 86.62865707 96.84089966 86.8784079 96.05865479 87.13572693 C94.44391133 87.66890609 92.82997805 88.20454416 91.21679688 88.74243164 C88.80391337 89.5445769 86.38665339 90.33227982 83.96875 91.11914062 C73.95119456 94.42317239 64.443432 98.30026592 55 103 C57.37817869 105.38702864 59.75125062 107.76707214 62.2109375 110.0703125 C67.90691355 115.47840528 72.05869757 121.21994598 76 128 C79.76117297 124.48177361 82.77920858 120.53096499 85.875 116.4375 C86.71188354 115.33595581 86.71188354 115.33595581 87.56567383 114.2121582 C91.97215234 108.39497034 96.34113502 102.54970935 100.6875 96.6875 C101.28739746 95.88175537 101.88729492 95.07601074 102.50537109 94.24584961 C103.06434082 93.48796143 103.62331055 92.73007324 104.19921875 91.94921875 C104.69252686 91.28237061 105.18583496 90.61552246 105.6940918 89.9284668 C106.98937908 88.01568417 108.01745469 86.08809053 109 84 C105.17151002 84 101.95198839 85.1868835 98.359375 86.37890625 Z M113 86 C111.38325743 88.13520461 109.970013 90.23157827 108.5625 92.5 C101.22671599 103.90679389 93.27383186 115.07308139 84 125 C87.69892382 126.23297461 89.35836526 125.63257687 93.125 124.70703125 C94.37700195 124.40821045 95.62900391 124.10938965 96.91894531 123.80151367 C97.58462524 123.63992767 98.25030518 123.47834167 98.93615723 123.31185913 C111.46678344 120.279999 123.9084806 117.8875158 136.70703125 116.2434082 C137.75761719 116.10507568 138.80820312 115.96674316 139.890625 115.82421875 C140.80875977 115.71166748 141.72689453 115.59911621 142.67285156 115.4831543 C145.25877875 115.09757593 145.25877875 115.09757593 148 113 C140.28289113 104.09704697 132.49919345 96.44288904 122.625 90 C121.71391479 89.40239868 121.71391479 89.40239868 120.78442383 88.79272461 C117.18306218 86.50504384 117.18306218 86.50504384 113 86 Z M17 95 C15.12020647 98.94631398 13.25076233 102.89730961 11.39086914 106.85302734 C10.75634392 108.19877329 10.11898071 109.54318484 9.47875977 110.88623047 C8.56041849 112.81396468 7.65230085 114.74622536 6.74609375 116.6796875 C5.92129517 118.42354736 5.92129517 118.42354736 5.07983398 120.20263672 C4.72348877 121.1257666 4.36714355 122.04889648 4 123 C4.33 123.66 4.66 124.32 5 125 C15.08271204 118.11232918 25.09199171 111.13686222 35 104 C34.28710447 100.75166737 34.28710447 100.75166737 31.19921875 99.39453125 C30.04035156 98.87246094 28.88148438 98.35039062 27.6875 97.8125 C26.53636719 97.28269531 25.38523437 96.75289063 24.19921875 96.20703125 C20.94614223 94.76466623 20.94614223 94.76466623 17 95 Z M9 96 C8.40461426 96.59538574 7.80922852 97.19077148 7.19580078 97.80419922 C0.46386719 104.53613281 -6.26806641 111.26806641 -13 118 C-11.3970947 118.81498562 -9.79262722 119.62689927 -8.1875 120.4375 C-7.29417969 120.88996094 -6.40085937 121.34242188 -5.48046875 121.80859375 C-2.96000522 123.0831605 -2.96000522 123.0831605 0 124 C1.70284849 119.9020339 3.38461211 115.79574223 5.0625 111.6875 C5.54783203 110.52025391 6.03316406 109.35300781 6.53320312 108.15039062 C6.98759766 107.03212891 7.44199219 105.91386719 7.91015625 104.76171875 C8.33433838 103.73006592 8.75852051 102.69841309 9.19555664 101.63549805 C10.29909389 98.93160168 10.29909389 98.93160168 9 96 Z M46 110 C45.33355469 110.85980469 44.66710937 111.71960938 43.98046875 112.60546875 C38.74339604 119.33213375 33.41170302 125.9466221 27.87060547 132.42529297 C24.10246818 136.84268401 20.50427783 141.37148287 17 146 C19.81913411 147.40956706 21.03652763 146.53380608 24.00048828 145.55297852 C25.04141632 145.2125502 26.08234436 144.87212189 27.15481567 144.52137756 C28.28192963 144.14436203 29.40904358 143.7673465 30.5703125 143.37890625 C31.72167694 143.00015854 32.87304138 142.62141083 34.05929565 142.23118591 C37.75020522 141.01525623 41.43759131 139.78900065 45.125 138.5625 C47.62086916 137.7382519 50.11696017 136.91467526 52.61328125 136.09179688 C58.74478672 134.06899332 64.87342775 132.03769295 71 130 C70.04687367 128.87954077 69.0925379 127.76011029 68.13769531 126.64111328 C67.60638 126.01761993 67.0750647 125.39412659 66.52764893 124.7517395 C60.65728844 118.02025677 54.16112544 113.54387075 46 110 Z M35 111 C32.54154342 112.21027524 32.54154342 112.21027524 29.80078125 114.0078125 C28.75599609 114.66523438 27.71121094 115.32265625 26.63476562 116 C25.53841797 116.70125 24.44207031 117.4025 23.3125 118.125 C21.69698242 119.14207031 21.69698242 119.14207031 20.04882812 120.1796875 C14.5821154 123.63869886 9.2119641 127.16745415 4 131 C4.1330957 131.59893066 4.26619141 132.19786133 4.40332031 132.81494141 C5.60221354 138.20996094 6.80110677 143.60498047 8 149 C12.18776957 145.02857277 15.65583451 140.72981394 19.125 136.125 C19.68469482 135.38773682 20.24438965 134.65047363 20.82104492 133.89086914 C26.29743346 126.65523427 31.66724533 119.3418887 37 112 C36.34 111.67 35.68 111.34 35 111 Z M-17 126 C-17.69670416 127.78810766 -18.38211189 129.58062052 -19.0625 131.375 C-19.44535156 132.37273437 -19.82820313 133.37046875 -20.22265625 134.3984375 C-21.30907481 136.95231831 -21.30907481 136.95231831 -20 139 C-16.37 136.69 -12.74 134.38 -9 132 C-10.64856825 127.87596527 -10.64856825 127.87596527 -14 126 C-14.99 126 -15.98 126 -17 126 Z M-2 134 C-2.37697021 134.40726318 -2.75394043 134.81452637 -3.14233398 135.23413086 C-4.90557355 137.13694792 -6.67109335 139.03762251 -8.4375 140.9375 C-9.07623047 141.62465088 -9.71496094 142.31180176 -10.37304688 143.01977539 C-13.84366761 146.7386103 -17.35571819 150.38698188 -21 153.9375 C-24.78577704 157.65959107 -27.97336516 161.64401966 -31 166 C-24.8980848 164.09746424 -19.11094112 161.54223918 -13.25195312 159.00976562 C-7.9109553 156.7281326 -2.53923924 154.74674166 3 153 C3.35621515 146.5881273 2.53060222 140.95504101 0 135 C-0.66 134.67 -1.32 134.34 -2 134 Z M-26 147 C-27.39083603 148.59372755 -28.73796626 150.22575692 -30.0625 151.875 C-30.79597656 152.77992188 -31.52945313 153.68484375 -32.28515625 154.6171875 C-34.19470982 156.78126591 -34.19470982 156.78126591 -34 159 C-29.89041233 157.54955729 -26.56741255 155.48889248 -23 153 C-23.66 151.02 -24.32 149.04 -25 147 C-25.33 147 -25.66 147 -26 147 Z M35.75 150.5 C34.13351562 150.91765625 34.13351562 150.91765625 32.484375 151.34375 C31.66453125 151.5603125 30.8446875 151.776875 30 152 C31.82024193 155.64048386 36.35651318 156.68988674 39.921875 158.3671875 C42.94806835 159.9724525 45.40309378 161.77820245 48 164 C48.19392201 158.47322267 47.7479503 154.24385089 46 149 C42.20032431 149 39.39962363 149.54792427 35.75 150.5 Z M19 156 C17.99720444 160.05537841 17.00047442 164.1121854 16.00927734 168.17041016 C15.67141344 169.55004811 15.33191099 170.92928589 14.99072266 172.30810547 C14.49988814 174.29290858 14.01501256 176.27908799 13.53125 178.265625 C13.23798828 179.45961914 12.94472656 180.65361328 12.64257812 181.88378906 C11.86536266 185.12263429 11.86536266 185.12263429 12 189 C16.35007074 187.66652037 20.20051256 185.96993649 24.203125 183.8125 C25.92015625 182.88824219 25.92015625 182.88824219 27.671875 181.9453125 C28.55262695 181.46626465 28.55262695 181.46626465 29.45117188 180.97753906 C31.25574759 179.99687658 33.06500614 179.0253065 34.875 178.0546875 C40.81561522 175.05322092 40.81561522 175.05322092 46 171 C38.23463686 163.27385587 29.96877144 157.67091617 19 156 Z M4.87109375 160.96875 C3.83662109 161.37480469 2.80214844 161.78085938 1.73632812 162.19921875 C0.64771484 162.62847656 -0.44089844 163.05773437 -1.5625 163.5 C-2.65498047 163.92925781 -3.74746094 164.35851562 -4.87304688 164.80078125 C-7.5826275 165.86568193 -10.29157804 166.9321566 -13 168 C-10.35404084 172.99930637 -7.61728637 176.79145665 -3.5625 180.8125 C-2.63566406 181.74707031 -1.70882812 182.68164062 -0.75390625 183.64453125 C1.83167414 185.85602767 3.78469889 186.99047715 7 188 C9.56943397 178.15858309 11.1844217 169.18417599 11 159 C8.9108451 159 6.77399966 160.22006571 4.87109375 160.96875 Z M-18 172 C-18.43828125 172.66902344 -18.8765625 173.33804688 -19.328125 174.02734375 C-23.98127928 181.07327858 -28.78151394 187.99493963 -33.69824219 194.85913086 C-39.67172495 201.96199604 -39.67172495 201.96199604 -43 210 C-35.91339154 209.49432967 -29.94566823 207.87131608 -23.3125 205.375 C-22.35585449 205.02179688 -21.39920898 204.66859375 -20.41357422 204.3046875 C-12.65202346 201.37925023 -5.27895723 197.97485719 2 194 C2 193.34 2 192.68 2 192 C0.21403683 190.46469175 0.21403683 190.46469175 -2.0625 188.875 C-8.43117577 184.06845225 -13.05362151 178.20175004 -18 172 Z M-28 174 C-31.98651261 175.58632855 -35.96273721 177.19698024 -39.9375 178.8125 C-41.64196289 179.49022461 -41.64196289 179.49022461 -43.38085938 180.18164062 C-44.46044922 180.62314453 -45.54003906 181.06464844 -46.65234375 181.51953125 C-47.65257568 181.92276611 -48.65280762 182.32600098 -49.68334961 182.74145508 C-52.32416559 183.83473638 -52.32416559 183.83473638 -53 187 C-53.80111239 194.27567642 -52.46019684 199.60481477 -49 206 C-48.01 206 -47.02 206 -46 206 C-40.17579697 199.8184839 -35.73193072 192.18665815 -31.375 184.9375 C-30.70005493 183.83063843 -30.70005493 183.83063843 -30.01147461 182.70141602 C-29.60292236 182.00459717 -29.19437012 181.30777832 -28.7734375 180.58984375 C-28.40653809 179.96972412 -28.03963867 179.34960449 -27.66162109 178.71069336 C-26.71321531 176.79844634 -26.71321531 176.79844634 -28 174 Z M38.8046875 180.5 C38.09724396 180.85513672 37.38980042 181.21027344 36.66091919 181.57617188 C34.39704591 182.71371564 32.136014 183.85678529 29.875 185 C28.34263155 185.77119831 26.81008169 186.5420363 25.27734375 187.3125 C21.51610988 189.2041554 17.75741542 191.10077204 14 193 C15.88124056 197.36264879 18.54895154 198.68133931 22.75 200.5625 C23.41016113 200.86478516 24.07032227 201.16707031 24.75048828 201.47851562 C31.25576796 204.32989089 37.92610862 206.16036898 45 207 C47.1909447 204.8090553 46.75399838 200.10888196 47.0625 197.0625 C47.15192871 196.20035889 47.24135742 195.33821777 47.33349609 194.44995117 C47.91202718 188.60348132 48.19271526 182.8778154 48 177 C44.61606992 177 41.77223148 178.99401877 38.8046875 180.5 Z M-0.84765625 199.1953125 C-1.83797852 199.66146973 -2.82830078 200.12762695 -3.84863281 200.60791016 C-4.90920898 201.1085498 -5.96978516 201.60918945 -7.0625 202.125 C-17.99599846 207.21890483 -29.17850961 212.31329764 -41 215 C-38.71995254 221.65013842 -34.67562579 225.52806159 -29.125 229.6875 C-27.61292969 230.83798828 -27.61292969 230.83798828 -26.0703125 232.01171875 C-23.071972 233.95339218 -20.42554697 235.0439145 -17 236 C-7.71145333 225.11070606 3.71704941 211.60026539 6 197 C3.28814301 197 1.60290438 198.0273611 -0.84765625 199.1953125 Z M10 198 C9.39865234 199.57974609 9.39865234 199.57974609 8.78515625 201.19140625 C3.69391309 214.23144029 -2.79274132 225.68262225 -11 237 C-6.62941691 236.36011229 -2.94546109 234.73404616 0.99609375 232.83203125 C2.00108665 232.35608772 2.00108665 232.35608772 3.02638245 231.87052917 C5.1659527 230.8564133 7.30191592 229.83498005 9.4375 228.8125 C12.22622832 227.482213 15.01680921 226.15589134 17.80859375 224.83203125 C18.49053802 224.50743927 19.1724823 224.18284729 19.87509155 223.84841919 C25.6483952 221.11937549 31.50786717 218.63962571 37.42211914 216.2331543 C40.1231963 215.26517167 40.1231963 215.26517167 41 213 C40.2471875 212.74347656 39.494375 212.48695313 38.71875 212.22265625 C29.17781439 208.78375106 20.73382335 204.09912003 12 199 C11.34 198.67 10.68 198.34 10 198 Z M-68.14453125 220.75 C-69.2992115 221.01635254 -69.2992115 221.01635254 -70.47721863 221.28808594 C-72.92353037 221.85361451 -75.36800123 222.42669109 -77.8125 223 C-79.47579547 223.38591692 -81.13920581 223.77133911 -82.80273438 224.15625 C-86.86984239 225.09844158 -90.93531684 226.04740421 -95 227 C-95.10052281 235.4963629 -93.55263538 242.76865547 -87.5625 249.125 C-84.89410203 251.71291264 -82.7609481 252.84933028 -79 253 C-72.90897567 249.04658043 -68.48385143 242.21799301 -64.1875 236.4375 C-63.73165527 235.82519531 -63.27581055 235.21289062 -62.80615234 234.58203125 C-57.33909035 227.389341 -57.33909035 227.389341 -55 219 C-59.56359119 218.74929628 -63.73629747 219.7072546 -68.14453125 220.75 Z M33.50390625 222.578125 C32.64119614 222.94597107 31.77848602 223.31381714 30.88963318 223.69281006 C28.11319528 224.87684534 25.3377736 226.06323854 22.5625 227.25 C19.81926739 228.42225558 17.07580495 229.59396264 14.33177185 230.76434326 C12.62267435 231.49338067 10.91403531 232.22349422 9.20594788 232.95489502 C3.50362213 235.38833512 -2.23486507 237.71949666 -8 240 C-7.32801618 243.1031145 -7.32801618 243.1031145 -4.97265625 244.2109375 C3.07912331 247.43164932 11.18749316 249.22714021 19.6875 250.875 C20.85853271 251.1023584 22.02956543 251.3297168 23.23608398 251.56396484 C28.73591094 252.9839779 28.73591094 252.9839779 34 252 C34.90647399 249.96718758 34.90647399 249.96718758 35.65625 247.4765625 C35.95660156 246.53683594 36.25695312 245.59710938 36.56640625 244.62890625 C36.87449219 243.63761719 37.18257812 242.64632812 37.5 241.625 C37.80808594 240.67238281 38.11617187 239.71976563 38.43359375 238.73828125 C40.48797337 232.22245919 41.93785062 225.74728742 43 219 C39.99839565 219 36.29990778 221.3798938 33.50390625 222.578125 Z M-49 221 C-49.31710938 221.63164062 -49.63421875 222.26328125 -49.9609375 222.9140625 C-55.865552 234.23395881 -63.26102088 244.68228054 -72 254 C-68.32909671 255.31953796 -65.94885207 254.6624436 -62.265625 253.55859375 C-61.14067627 253.22472656 -60.01572754 252.89085937 -58.85668945 252.546875 C-57.66648193 252.18078125 -56.47627441 251.8146875 -55.25 251.4375 C-54.04110107 251.07269531 -52.83220215 250.70789063 -51.58666992 250.33203125 C-42.57830955 247.57708525 -33.73235575 244.53038579 -25 241 C-25.68964844 240.45214844 -26.37929687 239.90429688 -27.08984375 239.33984375 C-30.27493337 236.77894619 -33.42795655 234.18483957 -36.5625 231.5625 C-37.40844727 230.86543945 -37.40844727 230.86543945 -38.27148438 230.15429688 C-40.91873106 227.93432509 -43.10490301 225.86882626 -45.27734375 223.15234375 C-45.84582031 222.44207031 -46.41429687 221.73179687 -47 221 C-47.66 221 -48.32 221 -49 221 Z M-28.37890625 246.046875 C-29.69901195 246.48296447 -31.01924817 246.91865901 -32.33959961 247.35400391 C-33.37574905 247.69688446 -33.37574905 247.69688446 -34.43283081 248.04669189 C-46.17138732 251.92326671 -57.85979559 255.58278248 -70 258 C-64.00029365 264.74041084 -51.99800721 270.56890541 -43 272 C-38.20058313 271.73123266 -36.261562 269.68982721 -33.125 266.1875 C-27.58859572 259.84835848 -21.61742762 252.44656647 -20 244 C-23.00878578 244 -25.52852541 245.09642371 -28.37890625 246.046875 Z M-14 246 C-14.29132813 246.46784912 -14.58265625 246.93569824 -14.8828125 247.41772461 C-25.06024056 263.6780062 -25.06024056 263.6780062 -31.63671875 270.53125 C-33.11338359 271.78816594 -33.11338359 271.78816594 -33 273 C-25.66485243 272.48106987 -18.74424406 271.19074024 -11.625 269.375 C-10.59294434 269.11428711 -9.56088867 268.85357422 -8.49755859 268.58496094 C-1.4392987 266.75195584 5.48875954 264.64846425 12.375 262.25 C13.64029541 261.80986572 13.64029541 261.80986572 14.93115234 261.36083984 C19.35824802 259.83660693 19.35824802 259.83660693 23 257 C21.96166016 256.74476563 21.96166016 256.74476563 20.90234375 256.484375 C17.59900769 255.66615737 14.29924153 254.8345767 11 254 C9.75089844 253.68675781 8.50179687 253.37351562 7.21484375 253.05078125 C-0.10652695 251.16644067 -7.06464324 249.0071736 -14 246 Z M18.25390625 263.51953125 C17.48755356 263.77876877 16.72120087 264.03800629 15.93162537 264.30509949 C12.65920211 265.41217649 9.39034046 266.52959862 6.12133789 267.64672852 C-3.17607889 270.81726319 -12.3963639 273.86387745 -22 276 C-18.41758966 278.38827356 -15.0958227 278.88185957 -10.9375 279.5625 C-10.16889648 279.69180908 -9.40029297 279.82111816 -8.60839844 279.9543457 C1.339644 281.5938217 10.90733989 282.14237295 21 282 C24.30417422 275.13045202 27.033631 268.36988707 29 261 C25.11693643 261 21.88094202 262.26953166 18.25390625 263.51953125 Z " fill="#000000" transform="translate(282,46)"/>
<path d="M0 0 C7.68942685 5.34473419 13.07859065 12.84708823 15.3671875 21.953125 C17.38284487 34.59518656 16.50726418 48.40292431 9.0625 59.18359375 C4.73168469 64.36960803 -0.67930991 68.71228435 -7.1875 70.74609375 C-2.71080047 75.62976597 1.31197597 79.4881604 8.15234375 79.9921875 C11.38255793 79.99569479 14.58736428 79.92068756 17.8125 79.74609375 C17.8125 83.04609375 17.8125 86.34609375 17.8125 89.74609375 C13.00025059 92.15221846 6.35602637 91.24407331 1.21875 90.23828125 C-7.30202262 87.38880209 -15.24915256 80.15361492 -20.1875 72.74609375 C-22.73441304 72.16248871 -22.73441304 72.16248871 -25.6875 71.93359375 C-34.946559 70.56968446 -41.82874693 66.19841769 -47.71875 58.9609375 C-54.56809736 48.63226742 -55.42257065 36.49625527 -53.7265625 24.48046875 C-51.65434009 14.97262476 -47.13051789 7.44287507 -39.57421875 1.25390625 C-27.96133978 -6.08254429 -11.97130141 -6.86212099 0 0 Z M-36.4375 12.80859375 C-42.81491869 21.01559976 -44.39768812 30.59533218 -43.1875 40.74609375 C-41.36142501 48.6864423 -38.13993018 55.55220404 -31.15234375 60.05859375 C-24.91150828 63.22854193 -18.75610906 63.8562977 -11.953125 62.203125 C-4.57221911 59.69195213 -0.86246525 55.7276751 2.796875 48.96484375 C6.40517186 41.08210292 6.12801408 28.99934851 3.75 20.68359375 C1.27196202 14.69209347 -2.90097002 10.20947294 -8.3125 6.74609375 C-18.47108502 3.23759825 -29.02255219 5.15445407 -36.4375 12.80859375 Z " fill="#000000" transform="translate(108.1875,375.25390625)"/>
<path d="M0 0 C0 3.96 0 7.92 0 12 C-1.11375 11.525625 -2.2275 11.05125 -3.375 10.5625 C-10.94247307 7.77307871 -17.45547424 7.29995091 -25.08984375 10.015625 C-27.2112837 11.1088824 -28.5121011 12.13443868 -30 14 C-30.66707548 17.41499591 -30.66707548 17.41499591 -30 21 C-26.02329974 25.88268238 -20.9544139 28.551296 -15.5 31.5625 C0.57748167 40.51221606 0.57748167 40.51221606 3 48 C3.72570975 53.878982 3.89466411 59.07303114 1.375 64.5 C-4.55234498 70.7393105 -9.53711008 73.91510992 -18.26953125 74.30078125 C-19.78374646 74.31925936 -21.29820692 74.32277728 -22.8125 74.3125 C-23.99465088 74.31056641 -23.99465088 74.31056641 -25.20068359 74.30859375 C-31.25929319 74.20888407 -36.31840206 73.19932824 -42 71 C-42 67.04 -42 63.08 -42 59 C-37 61 -37 61 -34.96484375 61.8515625 C-27.54205104 64.68337937 -20.03078158 65.18143598 -12.375 62.9375 C-9.05275675 60.22724893 -8.50093708 58.22218392 -8 54 C-9.42335934 48.91657379 -12.05809074 46.92159902 -16.41796875 44.4140625 C-17.27003906 43.94742188 -18.12210938 43.48078125 -19 43 C-20.75831083 42.01759144 -22.5164039 41.03476659 -24.27026367 40.04443359 C-25.4759336 39.36550034 -26.68556419 38.69353665 -27.8996582 38.02978516 C-34.07222 34.58483659 -39.68365455 30.94903636 -42 24 C-42.66837182 17.78042886 -42.77320429 12.2337995 -39 7 C-29.03100134 -4.24281516 -13.49538509 -3.65976545 0 0 Z " fill="#000000" transform="translate(254,373)"/>
<path d="M0 0 C0 3.96 0 7.92 0 12 C-1.11375 11.525625 -2.2275 11.05125 -3.375 10.5625 C-12.00160395 7.39385286 -20.48932413 7.10764007 -29 11 C-30.21260877 14.63782632 -30.39544552 17.17735999 -30 21 C-26.1482443 25.73062853 -21.43435537 28.17820448 -16.125 30.9375 C-0.15313992 39.241278 -0.15313992 39.241278 3 48 C4.46349646 54.37666316 3.92010012 59.10342717 1 65 C-2.9926694 69.96385926 -7.7960495 72.69436842 -14 74 C-23.81814675 74.50151634 -32.71352322 74.5947652 -42 71 C-42 67.04 -42 63.08 -42 59 C-37 61 -37 61 -34.96484375 61.8515625 C-27.57421135 64.67111012 -19.91991709 65.35169555 -12.375 62.75 C-9.81204666 60.86150806 -8.76977364 60.07909457 -8 57 C-7.84516561 53.49739918 -7.84516561 53.49739918 -9 50 C-13.48668811 45.67455225 -18.51776311 42.89491057 -24 40 C-37.22585187 33.01605182 -37.22585187 33.01605182 -40.875 26.8125 C-42.61925521 20.90141292 -42.86265137 15.63869831 -40.9375 9.75 C-36.69234009 3.72461174 -31.97858161 0.30917853 -24.80859375 -1.53515625 C-16.32275997 -2.93962665 -8.25162245 -2.23772812 0 0 Z " fill="#000000" transform="translate(42,373)"/>
<path d="M0 0 C4.78346043 2.94770259 7.65910538 7.16436929 9.65625 12.34765625 C10.78125 17.09765625 10.78125 17.09765625 10.78125 28.09765625 C-1.09875 28.09765625 -12.97875 28.09765625 -25.21875 28.09765625 C-23.68601947 36.85024235 -23.68601947 36.85024235 -18.21875 42.09765625 C-14.10092875 44.43479804 -9.85331334 44.77803256 -5.21875 44.09765625 C-1.06810872 42.75462298 2.88180052 41.04738099 6.78125 39.09765625 C6.78125 42.39765625 6.78125 45.69765625 6.78125 49.09765625 C-1.91758408 54.15879608 -12.11467841 54.85804936 -21.8828125 52.4375 C-28.1777002 49.63032035 -32.59362594 44.31018002 -35.09375 37.97265625 C-37.89667085 28.10368941 -36.88621814 18.18540575 -32.21875 9.09765625 C-25.42332956 -1.99395705 -11.77005567 -5.1855778 0 0 Z M-21.21875 10.09765625 C-23.74053836 13.21280658 -25.21875 16.00591598 -25.21875 20.09765625 C-16.63875 20.09765625 -8.05875 20.09765625 0.78125 20.09765625 C-0.91115699 12.0432658 -0.91115699 12.0432658 -6.21875 7.09765625 C-12.10774561 5.20873313 -16.42308383 6.42548671 -21.21875 10.09765625 Z " fill="#000000" transform="translate(302.21875,393.90234375)"/>
<path d="M0 0 C4.73364528 4.0881482 7.48242244 7.92968974 9 14 C9 18.29 9 22.58 9 27 C-2.88 27 -14.76 27 -27 27 C-24.57352593 36.693558 -24.57352593 36.693558 -18 42 C-11.00734644 44.33088452 -5.48523251 42.83469651 1 40 C1.99 39.608125 2.98 39.21625 4 38.8125 C4.66 38.544375 5.32 38.27625 6 38 C6 41.3 6 44.6 6 48 C-3.33328045 52.74071388 -13.40683121 53.78400441 -23.66015625 51.375 C-29.7645817 48.74033468 -33.62502379 43.27915288 -36.13671875 37.2890625 C-38.32055143 28.96875881 -38.61941498 18.221592 -35 10.3125 C-31.5806891 4.70405521 -27.02087759 0.5440041 -21.1875 -2.4375 C-13.60873927 -3.77492836 -6.75532268 -3.91808715 0 0 Z M-21 8 C-24.63513576 11.63513576 -25.28777556 13.86332669 -27 19 C-18.42 19 -9.84 19 -1 19 C-1.76006626 11.82423709 -1.76006626 11.82423709 -6 7 C-11.61866726 4.3250258 -15.59386029 4.77710902 -21 8 Z " fill="#000000" transform="translate(449,395)"/>
<path d="M0 0 C3.63 0 7.26 0 11 0 C11 21.45 11 42.9 11 65 C20.57 65 30.14 65 40 65 C40 67.97 40 70.94 40 74 C26.8 74 13.6 74 0 74 C0 49.58 0 25.16 0 0 Z " fill="#000000" transform="translate(137,372)"/>
<path d="M0 0 C3.63 0 7.26 0 11 0 C11.38857178 1.145896 11.77714355 2.29179199 12.17749023 3.47241211 C13.61511834 7.70942577 15.05659846 11.94512031 16.49926758 16.18041992 C17.12402412 18.01632303 17.74772473 19.85258582 18.37036133 21.68920898 C19.26368603 24.32369956 20.16075657 26.95688816 21.05859375 29.58984375 C21.3377916 30.41588608 21.61698944 31.24192841 21.90464783 32.09300232 C22.94237783 35.83407207 22.94237783 35.83407207 25 39 C29.62 26.13 34.24 13.26 39 0 C42.63 0 46.26 0 50 0 C48.00108841 6.96200947 45.6824184 13.66233492 42.98828125 20.3828125 C42.61519333 21.32309296 42.24210541 22.26337341 41.85771179 23.23214722 C40.67988073 26.1980026 39.49629885 29.16152229 38.3125 32.125 C37.50677806 34.15088923 36.70143597 36.17692957 35.89648438 38.203125 C33.93537257 43.13717294 31.9691043 48.0691366 30 53 C26.37 53 22.74 53 19 53 C15.00089109 43.57953695 11.2746871 34.07289246 7.64135742 24.50634766 C6.67780137 21.97451596 5.70510316 19.44630643 4.73242188 16.91796875 C4.11662225 15.29969415 3.5013675 13.68121207 2.88671875 12.0625 C2.59617111 11.31145996 2.30562347 10.56041992 2.00627136 9.78662109 C0.68526272 6.27729449 0 3.79896482 0 0 Z " fill="#000000" transform="translate(358,393)"/>
<path d="M0 0 C0 3.3 0 6.6 0 10 C-2.3203125 9.87625 -2.3203125 9.87625 -4.6875 9.75 C-8.06286647 9.7786048 -9.83824583 9.92428528 -12.9375 11.375 C-19.06777998 19.17717451 -18.52333947 29.66935361 -18.6875 39.125 C-18.72075453 40.47659385 -18.75525136 41.82815773 -18.79101562 43.1796875 C-18.87284947 46.45304112 -18.94221113 49.72614854 -19 53 C-22.3 53 -25.6 53 -29 53 C-29 35.51 -29 18.02 -29 0 C-25.7 0 -22.4 0 -19 0 C-18.67 2.31 -18.34 4.62 -18 7 C-17.278125 6.05125 -16.55625 5.1025 -15.8125 4.125 C-11.82811198 -0.62045091 -5.9306782 -2.9653391 0 0 Z " fill="#000000" transform="translate(353,393)"/>
<path d="M0 0 C0 3.3 0 6.6 0 10 C-2.3203125 9.8453125 -2.3203125 9.8453125 -4.6875 9.6875 C-8.64403283 9.6875 -9.68895052 9.77319309 -13 12.1875 C-16.60049013 17.25068925 -17.31247846 21.58599507 -17.4140625 27.70703125 C-17.43342865 28.43242599 -17.4527948 29.15782074 -17.4727478 29.90519714 C-17.53222108 32.20751422 -17.57879845 34.50988219 -17.625 36.8125 C-17.66320958 38.37957832 -17.70226303 39.94663631 -17.7421875 41.51367188 C-17.83789563 45.34228152 -17.92204448 49.17098942 -18 53 C-21.3 53 -24.6 53 -28 53 C-28 35.51 -28 18.02 -28 0 C-24.7 0 -21.4 0 -18 0 C-17.67 1.98 -17.34 3.96 -17 6 C-16.443125 5.21625 -15.88625 4.4325 -15.3125 3.625 C-11.38353493 -0.8349063 -5.62460001 -2.8123 0 0 Z " fill="#000000" transform="translate(498,393)"/>
<path d="M0 0 C1.98 0 3.96 0 6 0 C8.83173079 6.94376539 11.46868455 13.94158315 14 21 C14.20681396 20.39937744 14.41362793 19.79875488 14.62670898 19.17993164 C15.56064116 16.47307571 16.49900895 13.76777852 17.4375 11.0625 C17.92573242 9.64420898 17.92573242 9.64420898 18.42382812 8.19726562 C18.73642578 7.29814453 19.04902344 6.39902344 19.37109375 5.47265625 C19.65911865 4.64000244 19.94714355 3.80734863 20.24389648 2.94946289 C21 1 21 1 22 0 C23.98 0 25.96 0 28 0 C28 9.57 28 19.14 28 29 C26.35 29 24.7 29 23 29 C22.67 23.72 22.34 18.44 22 13 C20.3962364 17.89040176 20.3962364 17.89040176 18.79907227 22.78295898 C17.11111111 27.88888889 17.11111111 27.88888889 16 29 C14.35 29 12.7 29 11 29 C9.02 23.39 7.04 17.78 5 12 C4.67 17.61 4.34 23.22 4 29 C2.68 29 1.36 29 0 29 C0 19.43 0 9.86 0 0 Z " fill="#000000" transform="translate(0,331)"/>
<path d="M0 0 C0.33 0.99 0.66 1.98 1 3 C0.67 3.66 0.34 4.32 0 5 C-0.66 5.144375 -1.32 5.28875 -2 5.4375 C-2.66 5.623125 -3.32 5.80875 -4 6 C-4.33 6.99 -4.66 7.98 -5 9 C-2.69 9 -0.38 9 2 9 C2 7.02 2 5.04 2 3 C3.32 2.34 4.64 1.68 6 1 C6 3.64 6 6.28 6 9 C7.32 9 8.64 9 10 9 C10 9.99 10 10.98 10 12 C8.68 12 7.36 12 6 12 C6 16.62 6 21.24 6 26 C7.32 26 8.64 26 10 26 C9.67 27.65 9.34 29.3 9 31 C3.125 30.125 3.125 30.125 2 29 C1.92674832 26.13732433 1.90761795 23.299281 1.9375 20.4375 C1.94426758 19.22803711 1.94426758 19.22803711 1.95117188 17.99414062 C1.96299482 15.99606244 1.98093086 13.99802217 2 12 C-0.31 12 -2.62 12 -5 12 C-5 17.94 -5 23.88 -5 30 C-6.32 30 -7.64 30 -9 30 C-9 24.06 -9 18.12 -9 12 C-9.99 12 -10.98 12 -12 12 C-12 11.01 -12 10.02 -12 9 C-11.01 9 -10.02 9 -9 9 C-9.061875 7.88625 -9.12375 6.7725 -9.1875 5.625 C-9.125625 4.42875 -9.06375 3.2325 -9 2 C-5.5647952 -0.29013653 -4.014669 -0.17842973 0 0 Z " fill="#000000" transform="translate(150,330)"/>
<path d="M0 0 C2.5625 1.875 2.5625 1.875 4 5 C4.72687406 10.09576976 4.73037251 14.41223368 2.5625 19.125 C-1.1161913 21.81672534 -4.48711232 22.29011421 -9 22 C-12.670261 20.43818681 -13.7727373 19.34089404 -16 16 C-16.68492931 10.85506585 -16.82045541 6.41457828 -14.1875 1.875 C-9.82957003 -1.86036854 -5.28915781 -1.33661028 0 0 Z M-9.75 4.0625 C-11.49785775 6.77167952 -11.87126034 8.78150845 -12 12 C-11.02522193 14.87502253 -11.02522193 14.87502253 -9 17 C-6.56189845 18.15474612 -6.56189845 18.15474612 -4 18 C-1.39040836 16.41560508 -1.01472676 15.04838793 -0.125 12.125 C0.02639877 8.34003084 -0.54560295 6.86346322 -3 4 C-5.81201166 2.87519534 -7.11594505 2.46325235 -9.75 4.0625 Z " fill="#000000" transform="translate(90,339)"/>
<path d="M0 0 C3.57471257 2.05214981 5.44836954 3.20557855 6.6640625 7.16015625 C7.28923696 11.51456907 7.40601651 15.17224647 5 19 C2.15453294 22.00806518 0.63857387 22.92017827 -3.5 23.4375 C-7.24018705 22.96997662 -9.10912767 22.39529422 -12 20 C-14.29331853 16.0685968 -14.39318905 12.48235521 -14 8 C-12.80874943 4.843186 -11.91864736 2.72179436 -9.25 0.625 C-5.92755785 -0.2979006 -3.43992004 -0.41516276 0 0 Z M-7.75 5.5625 C-9.46752489 8.91167354 -9.39821287 11.28334656 -9 15 C-7.64114884 17.40083438 -7.64114884 17.40083438 -6 19 C-3.06556598 18.73343428 -3.06556598 18.73343428 0 18 C2.48038907 14.2794164 2.46337203 12.40203429 2 8 C0.39450853 5.47688989 0.39450853 5.47688989 -2 4 C-5.89371498 3.55598949 -5.89371498 3.55598949 -7.75 5.5625 Z " fill="#000000" transform="translate(130,338)"/>
<path d="M0 0 C2 2 2 2 2 6 C-2.875 5.125 -2.875 5.125 -4 4 C-5.66617115 3.95936168 -7.33388095 3.957279 -9 4 C-9 4.66 -9 5.32 -9 6 C-7.82630859 6.39832031 -7.82630859 6.39832031 -6.62890625 6.8046875 C-5.11103516 7.33449219 -5.11103516 7.33449219 -3.5625 7.875 C-2.55316406 8.22304688 -1.54382813 8.57109375 -0.50390625 8.9296875 C2 10 2 10 3 12 C3.375 14.875 3.375 14.875 3 18 C0.26798367 21.14595819 -1.35762437 21.91970305 -5.5 22.4375 C-9.22681047 21.97164869 -11.14839188 21.43225399 -14 19 C-14.8125 16.3125 -14.8125 16.3125 -15 14 C-12.625 13.8125 -12.625 13.8125 -10 14 C-9.01 15.485 -9.01 15.485 -8 17 C-5.41619823 17.25030977 -5.41619823 17.25030977 -3 17 C-3 16.01 -3 15.02 -3 14 C-3.62648438 13.80664062 -4.25296875 13.61328125 -4.8984375 13.4140625 C-5.71570313 13.15367187 -6.53296875 12.89328125 -7.375 12.625 C-8.59316406 12.24214844 -8.59316406 12.24214844 -9.8359375 11.8515625 C-12 11 -12 11 -14 9 C-14.4375 5.5625 -14.4375 5.5625 -14 2 C-10.09828867 -2.02757299 -5.07977073 -1.32732713 0 0 Z " fill="#000000" transform="translate(111,339)"/>
<path d="M0 0 C2.9375 1.75 2.9375 1.75 5 4 C5 5.32 5 6.64 5 8 C2.525 7.505 2.525 7.505 0 7 C0 6.34 0 5.68 0 5 C-2.3431213 5.25561323 -4.67843403 5.59270772 -7 6 C-8.50934217 9.01868434 -8.17510672 11.67297229 -8 15 C-7.01 16.485 -7.01 16.485 -6 18 C-2.91634129 18.2502157 -2.91634129 18.2502157 0 18 C0.33 16.68 0.66 15.36 1 14 C2.65 14 4.3 14 6 14 C5.1690807 17.11594739 4.48993358 19.45562935 2.3125 21.875 C-1.01431875 23.49345236 -3.34545874 23.44880331 -7 23 C-10.6867046 21.03375755 -12.23781032 19.09788091 -13.4375 15.1875 C-14.25023208 10.99098915 -13.74747432 7.95081151 -12 4 C-8.31937631 -0.1012664 -5.41226952 -0.77318136 0 0 Z " fill="#000000" transform="translate(54,338)"/>
<path d="M0 0 C1.9375 1.0625 1.9375 1.0625 3 3 C3.50030235 6.93094707 3.5996142 9.1005787 1.375 12.4375 C-1.71685231 14.47161336 -3.36367425 14.60605429 -7 14 C-9.375 12.375 -9.375 12.375 -11 10 C-11.60605429 6.36367425 -11.47161336 4.71685231 -9.4375 1.625 C-6.1005787 -0.5996142 -3.93094707 -0.50030235 0 0 Z M-8 3 C-8.33 3.33 -8.66 3.66 -9 4 C-8.71269945 6.33944736 -8.38063221 8.6739143 -8 11 C-7.67 11 -7.34 11 -7 11 C-7 8.36 -7 5.72 -7 3 C-7.33 3 -7.66 3 -8 3 Z M-1 3 C-2.00217064 6.58327753 -2.00217064 6.58327753 -1 10 C-0.34 10 0.32 10 1 10 C1 8.02 1 6.04 1 4 C0.34 3.67 -0.32 3.34 -1 3 Z M-5 4 C-5 4.66 -5 5.32 -5 6 C-4.34 6 -3.68 6 -3 6 C-3 5.34 -3 4.68 -3 4 C-3.66 4 -4.32 4 -5 4 Z M-5 8 C-5 9.32 -5 10.64 -5 12 C-4.34 12 -3.68 12 -3 12 C-3.66 10.68 -4.32 9.36 -5 8 Z " fill="#000000" transform="translate(173,334)"/>
<path d="M0 0 C-0.33 1.65 -0.66 3.3 -1 5 C-2.65 5 -4.3 5 -6 5 C-7.4807848 7.9615696 -7.35314037 10.83506295 -7.5625 14.125 C-7.64628906 15.40632813 -7.73007813 16.68765625 -7.81640625 18.0078125 C-7.90728516 19.48894531 -7.90728516 19.48894531 -8 21 C-9.32 21 -10.64 21 -12 21 C-12 14.07 -12 7.14 -12 0 C-7.03301135 -0.82783144 -4.66671349 -1.00001003 0 0 Z " fill="#000000" transform="translate(74,339)"/>
<path d="M0 0 C1.32 0 2.64 0 4 0 C4 6.93 4 13.86 4 21 C2.68 21 1.36 21 0 21 C0 14.07 0 7.14 0 0 Z " fill="#000000" transform="translate(33,339)"/>
<path d="M0 0 C1.45742463 -0.08096803 2.91612807 -0.13917774 4.375 -0.1875 C5.18710937 -0.22230469 5.99921875 -0.25710938 6.8359375 -0.29296875 C7.55007813 -0.19628906 8.26421875 -0.09960938 9 0 C9.66 0.99 10.32 1.98 11 3 C11.33 2.01 11.66 1.02 12 0 C12.99 0 13.98 0 15 0 C15 2.64 15 5.28 15 8 C12.36 8 9.72 8 7 8 C7 6.02 7 4.04 7 2 C6.34 2 5.68 2 5 2 C5 3.98 5 5.96 5 8 C4.34 8 3.68 8 3 8 C3 6.02 3 4.04 3 2 C2.01 2 1.02 2 0 2 C0 1.34 0 0.68 0 0 Z " fill="#000000" transform="translate(313,325)"/>
<path d="M0 0 C2 2 2 2 2.25 5 C2 8 2 8 0 10 C-3.625 9.625 -3.625 9.625 -7 9 C-8.33157895 3.55263158 -8.33157895 3.55263158 -6.875 1.125 C-4.40522151 -0.3568671 -2.83386167 -0.3633156 0 0 Z M-6 3 C-5 7 -5 7 -5 7 Z M0 4 C-0.33 4.66 -0.66 5.32 -1 6 C-0.34 6 0.32 6 1 6 C0.67 5.34 0.34 4.68 0 4 Z M-3 7 C-2 9 -2 9 -2 9 Z " fill="#000000" transform="translate(510,393)"/>
<path d="M0 0 C1.32 0 2.64 0 4 0 C4 1.65 4 3.3 4 5 C2.68 5 1.36 5 0 5 C0 3.35 0 1.7 0 0 Z " fill="#000000" transform="translate(33,331)"/>
<path d="" fill="#000000" transform="translate(0,0)"/>
</svg>
